<?xml version="1.0" encoding="UTF-8" standalone="no"?>
<svg
   inkscape:export-ydpi="1000"
   inkscape:export-xdpi="1000"
   inkscape:export-filename="..\..\..\Eurorack_dev\Salix\Panel\Salix_COPPER.svg"
   sodipodi:docname="Salix_panel.svg"
   inkscape:version="1.3.2 (091e20e, 2023-11-25, custom)"
   id="svg8"
   version="1.1"
   viewBox="0 0 38.247723 125.84853"
   height="125.84853mm"
   width="38.247723mm"
   xml:space="preserve"
   xmlns:inkscape="http://www.inkscape.org/namespaces/inkscape"
   xmlns:sodipodi="http://sodipodi.sourceforge.net/DTD/sodipodi-0.dtd"
   xmlns="http://www.w3.org/2000/svg"
   xmlns:svg="http://www.w3.org/2000/svg"
   xmlns:rdf="http://www.w3.org/1999/02/22-rdf-syntax-ns#"
   xmlns:cc="http://creativecommons.org/ns#"
   xmlns:dc="http://purl.org/dc/elements/1.1/"><defs
     id="defs2"><clipPath
       clipPathUnits="userSpaceOnUse"
       id="clipPath9766"><g
         id="g9770"><path
           id="path9768"
           style="fill:#ff0000;fill-opacity:1;fill-rule:nonzero;stroke:none;stroke-width:0.264583"
           d="M -0.223759,11.233423 V 124.10457 c 0.17827,-8e-4 0.349689,0.1096 0.38654,0.34778 0.0032,0.0208 0.0066,0.0417 0.0098,0.0625 -0.01984,0.15767 -0.01305,-0.008 0.02842,0.15709 0.02826,0.11228 -0.01793,0.0895 0.01602,0.20722 0.06082,0.21083 0.05627,0.12227 0.05374,0.0956 0.0016,0.0144 0.0062,0.0542 0.01912,0.14624 0.001,0.10875 -4.87e-4,0.14311 -5.16e-4,0.14986 0.0024,-0.009 0.01621,-0.0772 0.07545,0.13229 0.01273,0.045 -0.0057,0.0951 0.0052,0.14056 0.01025,0.043 0.0613,0.0759 0.05684,0.11989 -0.005,0.0494 -0.08215,0.0749 -0.08165,0.12454 3.68e-4,0.0365 0.05587,0.0467 0.08372,0.0703 -0.0352,0.0479 -0.05452,0.0716 -0.06356,0.0816 0.01529,-0.0131 0.05342,-0.0366 0.07286,0.0186 0.0066,0.0187 -0.05553,0.0307 -0.04031,0.0434 0.02017,0.0168 0.05482,-0.0256 0.07752,-0.0124 0.01999,0.0117 -0.07405,0.0551 -0.0072,0.0693 0.02466,-0.004 0.03678,-0.006 0.04134,-0.007 -0.0079,0.003 -0.04172,0.0147 -0.03307,0.0388 0.0056,0.0156 0.03606,-7e-5 0.04909,0.0103 0.07664,0.0609 -0.05897,0.0752 0.0052,0.12299 0.06037,0.045 0.08227,0.0929 0.07648,0.14108 h 37.93818 V 11.233423 Z" /></g></clipPath><clipPath
       clipPathUnits="userSpaceOnUse"
       id="clipPath5530"><path
         id="path5532"
         style="fill:#ff0000;fill-opacity:1;fill-rule:nonzero;stroke:none;stroke-width:0.264583"
         d="M -0.22375895,0.25889893 V 126.3649 H 38.54545 V 0.25889893 Z M 22.975859,3.7914998 c 0.09284,0.096017 0.215174,0.1749314 0.270784,0.3023071 0.0037,0.0084 0.0067,0.0171 0.0093,0.025839 0.0024,0.00385 0.0045,0.00743 0.0067,0.011369 0.02738,0.048103 0.03015,0.05417 0.05529,0.1147217 0.0022,0.00544 0.0073,0.0142 0.01137,0.022738 0.02462,0.034816 0.02308,0.0317 0.03411,0.063562 -6.1e-5,-3.969e-4 -2.9e-5,5.556e-4 5.29e-4,0.00103 l 5.29e-4,5.292e-4 c 0.0049,0.00995 0.0095,0.020288 0.01395,0.030489 0.02226,0.020854 0.02786,0.037324 0.05478,0.095084 0.0083,0.00849 0.01631,0.016306 0.02222,0.021188 0.174053,0.1815179 -0.130554,-0.1480929 0.112654,0.1069702 0.0029,0.00302 0.0055,0.00615 0.0083,0.0093 l 5.29e-4,5.291e-4 c 0.01835,0.015237 0.03327,0.034208 0.05013,0.05116 0.02287,0.03152 0.05781,0.058826 0.08475,0.089917 v 5.291e-4 c 0.02905,0.023839 0.05724,0.048432 0.08578,0.072864 0.0053,0.00471 0.0103,0.00918 0.0155,0.013952 0.0027,0.00246 0.0079,0.00701 0.0124,0.010853 8.2e-4,5.556e-4 0.0018,9.789e-4 0.0026,0.00156 0.02176,0.015179 0.04372,0.030177 0.05943,0.05116 0.01803,0.02409 0.03239,0.050546 0.04599,0.077514 0.0065,0.00655 0.0138,0.015084 0.02222,0.025839 -0.0025,-0.00514 -0.0056,-0.011266 -0.0072,-0.014986 0.01437,0.025556 0.0055,0.00977 0.01188,0.021188 l 5.29e-4,5.291e-4 c 0.002,0.00265 0.0041,0.00487 0.0062,0.00775 0.02531,0.035042 0.04467,0.073684 0.06718,0.1105876 0.0069,0.029547 8.9e-5,0.0032 0.0057,0.025321 3.97e-4,6.35e-4 0.001,0.00143 0.001,0.00206 0.02091,0.033812 0.0471,0.065157 0.06098,0.1023192 0.0029,0.00775 0.0066,0.018219 0.01034,0.029972 0.03263,0.071757 0.0268,0.077247 0.03669,0.1860349 -0.02916,0.082219 -0.04386,0.17086 -0.08733,0.2464967 -0.02799,0.048703 -0.07591,0.083885 -0.121439,0.1167886 -0.117495,0.08492 -0.281735,0.1257311 -0.42478,0.1374595 l 0.01912,0.076481 c -0.157827,0.020563 -0.07808,0.020312 -0.239262,0 -0.06966,-0.024979 -0.121008,-0.037173 -0.180868,-0.082165 -0.0084,-0.00629 -0.01587,-0.012793 -0.02377,-0.019637 -0.0196,-0.00512 -0.03828,-0.010829 -0.05581,-0.017052 -0.03596,4.2e-6 -0.07205,2.35e-5 -0.108004,0 -0.03261,-3e-7 -0.06506,1.529e-4 -0.09767,0 -0.03602,-3.175e-4 -0.07251,1.72e-5 -0.10852,0.00103 -0.01582,-6.086e-4 -0.03122,-0.00119 -0.04703,-0.00206 -0.0048,-2.635e-4 -0.0097,-0.00101 -0.01447,-0.00156 -9.79e-4,-0.00161 -0.0052,-0.00225 -0.0067,-0.00259 v -5.292e-4 c 0.0069,-0.00338 0.0144,-0.00436 0.0217,-0.00672 -0.06081,0.015171 -0.02867,0.0073 -0.155029,0.027389 -0.002,3.175e-4 -0.0082,1.191e-4 -0.0062,-5.291e-4 -0.02597,0.00305 9.52e-4,8.731e-4 -0.06408,0.00414 -0.05497,-3.175e-4 -0.096,6.615e-4 -0.152446,-0.00672 -0.03234,-0.00424 -0.08662,0.013118 -0.09612,-0.018087 -0.06961,-0.2294295 -0.05387,-0.4794932 -0.124541,-0.708484 -0.02556,0.022632 -0.05175,0.044914 -0.07958,0.064596 -0.02867,0.02027 0.06692,-0.1047951 0.07752,-0.071313 7.14e-4,0.00222 0.0014,0.00448 0.0021,0.00672 0.01526,-0.013512 0.0304,-0.027234 0.04599,-0.040307 0.01431,-0.00724 0.02833,-0.014994 0.04289,-0.021704 6.62e-4,-2.911e-4 -0.0012,0.00241 -5.29e-4,0.00206 0.01859,-0.00976 0.03379,-0.030857 0.05478,-0.030489 0.01493,2.62e-4 -0.03157,0.016081 -0.03204,0.031006 -0.006,0.1901668 -0.04498,0.3894335 0.01344,0.5705078 0.02279,0.070645 0.133852,0.063487 0.201022,0.095085 -0.04437,-0.2467509 -0.125109,-0.4899329 -0.132809,-0.7405232 -0.0012,-0.039213 0.072,-0.031004 0.109037,-0.043925 0.01896,-0.00661 0.03887,-0.00979 0.0584,-0.01447 0.04269,-0.010221 0.08507,-0.022109 0.128157,-0.030489 0.166781,-0.032453 0.174462,-0.037135 0.241329,-0.036173 -0.0059,-0.00736 -0.01152,-0.013938 -0.01809,-0.02222 -0.01753,-0.022098 -0.02876,-0.048495 -0.03927,-0.074931 -0.02519,-0.025405 -0.03772,-0.050234 -0.07751,-0.1317749 -0.0043,-0.00881 0.02064,0.033198 0.01654,0.024289 -0.01545,-0.034044 -0.02774,-0.057824 -0.03721,-0.076481 -0.0075,-0.00946 -0.01457,-0.019386 -0.02119,-0.029456 -0.01727,-0.026284 -0.02805,-0.05624 -0.04134,-0.08475 -0.0019,-0.00397 -0.008,-0.014364 -0.0041,-0.012401 6.62e-4,3.44e-4 0.0014,8.202e-4 0.0021,0.00156 -0.01137,-0.020669 -0.02405,-0.040926 -0.03462,-0.062012 -0.01835,-0.016886 -0.03654,-0.033621 -0.05426,-0.05116 -0.0056,-0.00553 -0.01,-0.011986 -0.01499,-0.018087 l 0.03256,-0.040308 c -0.0168,-0.062745 -0.02981,-0.1278208 -0.01705,-0.09095 0.0093,0.026928 0.01693,0.054486 0.02377,0.082165 z m -0.45527,0.5694744 -0.0067,0.00878 c 0.0082,0.030657 0.01699,0.060651 0.0248,0.078031 0.0015,0.00324 0.0028,0.00681 0.0047,0.00982 -0.008,-0.032105 -0.01481,-0.064521 -0.02274,-0.096635 z m 1.520321,0.7839315 c 0.0015,0.00655 -8.73e-4,0.00183 0.0016,0.00775 0.0024,0.00483 0.0048,0.00962 0.0072,0.01447 -6.62e-4,-0.00288 -8.73e-4,-0.00333 0.0016,-0.00206 -0.0036,-0.00697 -0.0075,-0.014594 -0.01033,-0.020153 z M 23.265247,4.1739053 c 0.0012,0.0019 0.0019,0.00282 0.0031,0.00465 -6.7e-5,-3.175e-4 6.1e-5,-7.143e-4 0,-0.00103 -9.26e-4,-0.00127 -0.0022,-0.00233 -0.0031,-0.00362 z m 0.0031,0.00465 c 0.0052,0.033874 0.009,0.068122 0.02015,0.1002523 0.01287,0.037172 -0.0044,-0.035744 -0.01912,-0.098702 -2.24e-4,-2.91e-4 -2.91e-4,-7.408e-4 -5.29e-4,-0.00103 z m 0.001,0.00156 c 0.02301,0.03521 0.03894,0.058632 0.05064,0.075448 -0.0012,-0.00434 -0.0024,-0.00871 -0.0047,-0.012401 -0.01338,-0.022402 -0.03049,-0.042043 -0.04599,-0.063045 z m 0.12454,0.2206585 c 0.0045,0.010869 0.0092,0.021823 0.01395,0.032556 0.0016,0.00161 0.0035,0.00297 0.0052,0.00465 -0.003,-0.01007 -0.0086,-0.024537 -0.01344,-0.030489 -0.0018,-0.00225 -0.0038,-0.00451 -0.0057,-0.00672 z m 0.06304,0.1080037 c 0.0081,0.016431 0.01685,0.034496 0.02791,0.05581 7.4e-4,0.00143 0.0022,0.00445 0.0031,0.00672 -0.0058,-0.01596 -0.0088,-0.033732 -0.0186,-0.047542 -0.0038,-0.0053 -0.0079,-0.010128 -0.0124,-0.014986 z m -0.646472,0.3963583 c 10e-4,0.012888 -0.01417,1.402e-4 0.04392,0.043408 0.0018,4.36e-5 0.0038,-4.5e-5 0.0057,0 -0.02003,-0.018053 -0.03553,-0.031373 -0.04961,-0.043408 z m 1.175639,0.1586465 c 8.99e-4,0.00135 0.0017,0.00273 0.0026,0.00414 0.0042,0.0061 0.0053,0.00604 0.0041,0.00259 -2.58e-4,-2.614e-4 -2.1e-5,-7.673e-4 -5.29e-4,-0.00103 -0.002,-0.00201 -0.0043,-0.00373 -0.0062,-0.00568 z m -1.547193,0.083716 c -0.0053,4.07e-5 -0.01118,0.00146 -0.01447,0.00206 0.0062,-5.027e-4 0.01242,-9.789e-4 0.0186,-0.00156 -0.0012,-1.468e-4 -0.0026,-5.292e-4 -0.0041,-5.292e-4 z m 0.965833,0.02222 c 0.01068,0.0028 0.02136,0.00546 0.03204,0.00827 0.003,8.202e-4 0.0047,8.732e-4 0.0057,0.00103 -0.0056,-0.00243 -0.02875,-0.00991 -0.03772,-0.0093 z m -0.506429,0.6593912 c 0.0075,0.00662 0.0066,0.0062 0.0217,0.019637 0.001,3.44e-4 0.0021,7.144e-4 0.0031,0.00103 -0.0088,-0.00734 -0.01753,-0.014444 -0.0248,-0.020672 z m -0.402559,0.034623 c -8.74e-4,3.968e-4 -0.0023,0.00119 -0.0031,0.00156 0.0011,-4.762e-4 1.26e-4,2.646e-4 0.0021,-5.292e-4 3.71e-4,-2.91e-4 0.001,-7.408e-4 0.001,-0.00103 z m -6.248715,26.4226765 0.869198,2.063956 c -0.242614,0.105527 -0.746673,0.33182 -1.001489,0.41393 -0.03117,0.01006 -0.06265,0.01961 -0.09405,0.02894 l 0.09457,0.284221 c -0.233178,0.07679 -0.478932,0.114432 -0.722436,0.0646 -0.03318,-0.0068 -0.06509,-0.01828 -0.09715,-0.02946 0.0083,0.003 0.01649,0.0063 0.0248,0.0093 -0.01219,-0.0041 -0.03501,-0.01159 -0.05478,-0.0181 -5.55e-4,-1.83e-4 2.35e-4,5.3e-5 -0.0016,-5.29e-4 -3.17e-4,-8e-5 -10e-4,7.6e-5 -10e-4,0 -0.01408,-0.0046 -0.02605,-0.0089 -0.03152,-0.01085 l 5.3e-4,0.0016 c 0.0025,0.0011 0.0056,0.0021 0.0072,0.0026 0.0029,0.0011 0.007,0.0024 0.01188,0.0036 -0.0062,-0.0013 -0.0124,-0.0028 -0.0186,-0.0041 l 0.09922,0.497644 0.43098,0.42168 c 0.0013,-0.0011 0.0014,-7.94e-4 0.0041,-0.0031 -8.73e-4,0.0016 -0.0017,0.003 -0.0026,0.0047 l -0.0016,-0.0016 c -0.0094,0.0079 0.0094,-0.0061 -0.03876,0.04961 -0.03646,0.04211 -0.0694,0.08831 -0.112138,0.124026 -0.07163,0.05982 -0.101735,0.07624 -0.14056,0.101801 l 0.108521,0.543637 c -0.114599,0.02719 -0.228902,0.0551 -0.343649,0.08165 -0.166663,0.03856 -0.73695,0.169029 -0.926558,0.20619 -0.09107,0.01786 -0.182179,0.04836 -0.274919,0.04496 -0.200292,-0.0073 -0.533687,0.112273 -0.610815,-0.05788 -0.21375,-0.01603 -0.206315,-0.02056 -0.621668,-0.148828 -0.05472,-0.01691 -0.108617,-0.03674 -0.162264,-0.05684 -0.118944,-0.0041 -0.09441,-0.0079 -0.323494,-0.06977 -0.0012,7.94e-4 -0.002,0.0019 -0.0036,0.0026 -0.06037,0.02977 -0.133705,-0.01863 -0.198955,-0.03514 -0.09196,-0.02328 -0.181178,-0.05625 -0.271818,-0.08423 l -0.175183,-0.07183 0.871265,-2.062921 c 0.02051,0.0093 0.04098,0.0186 0.06149,0.0279 -0.01927,-0.0024 -0.03798,-0.0076 -0.05736,-0.0067 -0.0087,2.64e-4 0.01579,0.0065 0.02429,0.0083 0.120746,0.02582 0.243103,0.04607 0.363285,0.07441 0.0099,0.0024 0.02633,0.0072 0.04237,0.01241 0.06965,0.0055 0.139054,0.01169 0.208256,0.02119 0.04279,0.0059 0.08229,0.02741 0.12299,0.04186 0.02986,0.01061 0.05956,0.02096 0.0894,0.03152 0.0067,-0.10514 0.01295,-0.160065 0.07648,-0.337962 0.01545,-0.0433 0.02862,-0.09259 0.06356,-0.122473 0.02172,-0.01857 0.04446,-0.03593 0.0677,-0.05271 l -0.149345,-0.08062 c -0.01957,0.02844 -0.04069,0.05578 -0.06098,0.08372 -0.0083,0.0091 -0.101864,0.12092 -0.127124,0.11162 -0.0012,-5.29e-4 -0.0024,-0.0011 -0.0036,-0.0016 -0.0212,0.01164 -0.04162,0.02567 -0.06408,0.03462 -0.09394,0.03758 -0.205836,0.03568 -0.296106,-0.01188 -0.02356,-0.01241 -0.04301,-0.03091 -0.0646,-0.04651 -0.02307,-0.03141 -0.05022,-0.06056 -0.06925,-0.09457 -0.01692,-0.03024 -0.02675,-0.06376 -0.03772,-0.09663 -0.02354,-0.07051 -0.03286,-0.124997 -0.03876,-0.200507 -0.0022,-0.02861 -0.0059,-0.05803 -0.001,-0.0863 0.0055,-0.03139 0.01705,-0.06127 0.02739,-0.09147 L 12.388376,33.62235 c 0.522441,-0.303897 0.868998,-0.461645 1.025778,-0.53795 0.0011,-0.01926 0.0012,-0.0386 0.0021,-0.05788 -0.01873,0.0019 -0.04022,0.0041 -0.06459,0.0067 -0.06336,0.02658 -0.05071,0.04234 -0.0739,0.0078 0.03113,-0.0033 0.04886,-0.0051 0.0739,-0.0078 0.01462,-0.0061 0.0333,-0.01283 0.05736,-0.01963 0.0027,-7.93e-4 0.0055,-0.0013 0.0083,-0.0021 0.0082,-0.194882 0.01004,-0.389806 0.0093,-0.584978 h 0.395841 c 6.88e-4,0.154363 -4.49e-4,0.308361 -0.0041,0.462505 0.172359,-0.04999 0.346784,-0.08972 0.526582,-0.09043 0.01654,-0.0072 0.03325,-0.01328 0.05064,-0.0181 0.450548,-0.124381 0.363686,-0.107186 0.722953,-0.08372 0.02375,0.0045 0.0313,0.0056 0.04858,0.0088 0.380534,-0.07329 0.720776,-0.282845 1.080037,-0.419097 z m -1.015442,2.806031 c 9.26e-4,2.4e-4 3.17e-4,-2.12e-4 0.0026,5.29e-4 0.01333,0.0037 0.02666,0.008 0.03979,0.01241 3.7e-4,8.7e-5 10e-4,5.29e-4 10e-4,5.29e-4 0.0069,0.0024 0.01382,0.0043 0.02067,0.0067 -0.02147,-0.0079 -0.04307,-0.01513 -0.0646,-0.02273 z m -0.24908,-2.374017 c -0.02934,0 0.05874,0.0063 0.08785,0.0026 0.0038,-5.29e-4 0.0076,-0.0011 0.01137,-0.0016 -0.02942,-5.3e-4 -0.0626,-0.0011 -0.09922,-0.0011 z m -0.68678,0.10387 c -0.0168,0.0051 -0.03651,0.01201 -0.06304,0.02223 -0.007,0.0027 -0.02354,0.01767 -0.01654,0.01498 0.02719,-0.01072 0.05334,-0.02405 0.07958,-0.03721 z m 11.329541,0.620636 c 0.05301,7.94e-4 0.10545,0.01204 0.15813,0.0181 0.0025,0.0021 0.0037,0.003 0.0062,0.0052 0.0069,7.94e-4 0.01388,0.0024 0.02067,0.0036 0.03021,0.006 0.05892,0.01757 0.08785,0.02842 0.0073,0.0013 0.01447,0.003 0.02015,0.0047 -0.0052,-0.0011 -0.01032,-0.0021 -0.0155,-0.0031 0.0088,0.0033 0.01748,0.0064 0.02636,0.0093 0.0019,-0.0019 -0.0018,-0.0037 -0.0083,-0.0057 0.04292,0.0078 0.08592,0.0149 0.128676,0.02379 0.02582,0.0052 0.05029,0.01545 0.07545,0.02326 0.0059,-0.02098 1.92e-4,-0.0034 0.05736,0.01138 0.01369,0.0035 0.0272,0.0076 0.04082,0.01138 6.88e-4,1.54e-4 0.0014,-2.1e-5 0.0021,5.29e-4 0.0038,0.0011 0.0076,0.0021 0.01137,0.0031 0.0044,0.0013 0.01571,0.0037 0.0186,0.0041 l -5.29e-4,-5.3e-4 c 0.03704,0.0083 0.07406,0.01603 0.111105,0.02429 0.04517,0.01228 0.08833,0.03071 0.133326,0.04341 0.0016,5.29e-4 -0.0024,-0.0024 -0.0036,-0.0036 0.03611,0.01228 0.07434,0.02027 0.108521,0.03721 0.04581,0.0227 0.08688,0.05404 0.130225,0.08113 0.1363,0.148175 0.125963,0.113128 0.211873,0.318845 0.01651,0.03954 0.02927,0.08122 0.03617,0.123507 0.02551,0.156215 0.01339,0.289105 -0.0041,0.442865 -0.01998,0.117311 -0.01577,0.12065 -0.06873,0.252698 -0.01503,0.0375 -0.03243,0.07454 -0.05426,0.108522 -0.08424,0.131114 -0.176485,0.212079 -0.283702,0.330729 -0.0523,0.05788 -0.102569,0.117565 -0.153998,0.176215 0.03065,-0.11095 -0.04968,0.05132 -0.09818,0.130225 -0.0087,0.0141 -0.01641,0.02588 -0.02222,0.03256 -2.91e-4,2.65e-4 -0.001,7.94e-4 -0.001,0.0011 -2.29e-4,2.64e-4 -2.91e-4,7.93e-4 -5.29e-4,0.0011 -0.0056,0.0075 -0.01135,0.01511 -0.01654,0.02273 -0.03378,0.04965 -0.109667,0.139348 -0.147794,0.185518 -0.0802,0.104645 -0.185154,0.184401 -0.282154,0.271817 -0.0067,0.0061 -0.01169,0.01376 -0.01809,0.02016 -0.0308,0.03075 -0.06268,0.05976 -0.09405,0.08992 -0.01638,0.01603 -0.03278,0.03248 -0.04909,0.04858 -0.02289,0.02259 -0.03137,0.03077 -0.03514,0.03462 0.0039,-0.0046 0.0015,-0.0045 -0.07286,0.06253 -0.0012,0.0011 -4.24e-4,0.0042 -0.001,0.0052 -0.03396,0.02662 -0.07009,0.05066 -0.103869,0.07752 0.0034,-0.0016 0.01594,-0.009 0.02119,-0.01188 -0.01031,0.01344 -0.01911,0.02513 -0.02945,0.03617 -3.44e-4,2.65e-4 -10e-4,0.0029 -10e-4,0.0031 -0.01042,0.01955 -0.0298,0.03502 -0.04547,0.05116 -0.08845,0.09111 -0.104021,0.09377 -0.198954,0.144693 -0.01051,0.0092 -0.02231,0.01966 -0.02997,0.02635 -0.0274,0.02392 -0.07587,0.04592 -0.113688,0.0615 0.0022,0.0021 -0.03064,0.01841 -0.04237,0.02532 -0.01846,0.01085 -0.03816,0.02056 -0.05684,0.03101 -0.02873,0.01609 -0.02638,0.01672 -0.02377,0.01601 -0.002,2.65e-4 -0.02125,0.0065 -0.126608,0.04961 -0.06565,0.01958 -0.123299,0.03991 -0.192235,0.04651 -0.04582,0.0044 -0.09196,0.0038 -0.137978,0.0031 -0.05507,-7.93e-4 -0.110719,-0.0083 -0.165881,-0.01241 -5.02e-4,-3.7e-5 8.5e-5,4.3e-5 -0.0016,0 -0.02544,0.0019 -0.05095,0.0028 -0.07648,0.0031 -0.03046,0.02191 -0.05601,0.03503 -0.06511,0.02326 -0.0058,-0.0076 -0.01139,-0.01558 -0.01705,-0.02326 -0.0019,-2.1e-5 -0.0038,4.5e-5 -0.0057,0 0.0017,0 0.0035,-0.0011 0.0052,-0.0011 -0.148056,-0.201076 -0.235642,-0.441542 -0.353983,-0.661977 -0.01653,0.01746 -0.02612,0.04342 -0.04806,0.05271 -0.02235,0.0095 0.02588,-0.03939 0.04702,-0.05478 -9e-4,-0.0016 -0.0017,-0.0045 -0.0026,-0.0062 0.155436,-0.113231 0.04006,-0.03455 0.314192,-0.18655 0.0044,-0.0024 0.009,-0.0038 0.01344,-0.0062 l -0.356567,-0.182417 c 0.01531,-0.02564 0.03017,-0.05136 0.04547,-0.077 0.0011,-7.94e-4 0.0028,-0.0021 0.0036,-0.0031 0.0075,-0.01082 0.0158,-0.04486 0.0217,-0.03307 0.0052,0.01045 -0.007,0.02103 -0.01499,0.03152 0.03243,-0.03182 0.06816,-0.06077 0.103353,-0.09043 -0.0075,-0.0073 -0.01367,-0.01381 -0.01912,-0.02016 -0.01716,0.01693 -0.03522,0.03385 -0.04651,0.04496 0.0074,-0.01704 0.01467,-0.03444 0.02274,-0.05116 0.0025,-0.0052 0.0052,-0.0096 0.0083,-0.01447 -0.0204,-0.03328 -0.0034,-0.04824 0.03721,-0.05064 0.01512,-0.02008 0.02865,-0.04048 0.03359,-0.06615 -0.0015,0.01405 -0.0027,0.01714 0.01137,-0.01085 0.0067,-0.01333 0.0035,-0.04384 0.01809,-0.04082 0.157905,0.03229 0.33109,0.162105 0.488859,0.218591 0.0052,-0.02262 0.01019,-0.04484 0.01912,-0.06615 0.02033,-0.04846 0.04268,-0.09677 0.06925,-0.14211 0.0186,-0.03173 0.04052,-0.06124 0.06408,-0.08992 -0.122069,-0.09556 -0.291593,-0.166664 -0.401526,-0.132292 -0.03061,0.03808 -0.01541,0.03601 -0.06408,0.04031 0.01748,-0.0195 0.03922,-0.03254 0.06408,-0.04031 0.01309,-0.0163 0.03404,-0.03944 0.07286,-0.07441 0.04136,-0.03726 0.08466,-0.0723 0.125057,-0.110588 0.129446,-0.122732 0.101233,-0.116575 0.217557,-0.202054 h 5.29e-4 c 0.108339,-0.107688 0.199942,-0.2315 0.318327,-0.329179 0.03825,-0.03059 0.0158,-0.01865 0.0047,0.01447 0.0023,-0.0035 0.0097,-0.01619 0.01292,-0.02119 0.02159,-0.03355 0.03776,-0.07181 0.0677,-0.09819 0.0011,-0.0011 0.0027,0.0024 0.0041,0.0031 0.0051,-0.0082 0.0061,-0.02736 0.0155,-0.02479 0.0022,5.29e-4 0.0031,0.0033 0.0031,0.0067 0.01038,-0.04708 0.01186,-0.0965 0.02429,-0.143142 0.0011,-0.0039 0.0016,-0.0071 0.0026,-0.01085 l -0.21549,-0.719336 c 0.179897,-0.05857 0.363654,-0.102833 0.547253,-0.147793 0.05712,-0.014 0.115583,-0.03234 0.175183,-0.03152 z m 0.277503,0.05684 c -0.0015,-5.29e-4 -0.0031,-0.0011 -0.0047,-0.0016 -0.01876,-0.0037 -0.0377,-0.0064 -0.03152,-0.0052 0.01203,0.0024 0.02411,0.0045 0.03617,0.0067 z m -0.211357,-0.04496 c -0.01004,2.65e-4 -0.01846,0.0016 -0.02067,0.0026 1.45e-4,5.29e-4 10e-4,0.0013 0.0036,0.0016 0.02137,0.0024 0.04305,0.0032 0.0646,0.0041 -6.88e-4,-5.29e-4 -0.0014,-0.0011 -0.0021,-0.0016 -0.0088,-0.0056 -0.02941,-0.0071 -0.04547,-0.0067 z m -12.597681,0.550355 c -1.68e-4,0.0037 5.29e-4,0.006 -5.29e-4,0.01035 2.59e-4,0.0011 10e-4,0.0021 10e-4,0.0031 0.0024,-0.0033 0.0042,-0.0059 0.0067,-0.0093 z m 0.04599,0.02479 c -0.01168,0.0113 -0.02275,0.02154 -0.03307,0.03152 0.02064,0.03713 0.06859,0.11213 0.254764,0.209288 0.017,0.0089 0.0225,-0.04477 0.0083,-0.05684 -0.104357,-0.08441 -0.152767,-0.127956 -0.192237,-0.163299 z m 12.747026,0.523481 c -1.5e-5,0.0019 7e-5,0.0033 -5.29e-4,0.0052 0.0062,-0.0013 0.01105,-0.0021 0.01912,-0.0041 -0.0064,-2.44e-4 -0.01267,-0.0011 -0.0186,-0.0011 z m -13.150618,0.112654 c -0.0059,1.4e-4 -0.0164,5.29e-4 -0.03307,0.0011 -0.01673,0.0016 -0.06684,0.0034 -0.05013,0.0052 0.03472,0.0038 0.06957,0.0069 0.104387,0.0098 -0.04948,-0.01259 0.0043,-0.01662 -0.02119,-0.01603 z m 2.502689,0.319879 c 0.02428,0.0199 0.05362,0.04401 0.09457,0.07596 0.0295,0.02302 -0.05272,-0.05531 -0.0863,-0.07183 -0.0027,-0.0013 -0.0055,-0.0028 -0.0083,-0.0041 z m -1.85105,0.03462 c -0.759574,1.050526 -0.875402,0.758323 -0.04444,1.71359 -0.05855,-0.479134 0.01767,-0.979061 0.03669,-1.470194 -0.145196,0.0042 -0.141515,-0.0072 0.0026,-0.07597 0.0014,-0.05573 0.0059,-0.112032 0.0052,-0.167431 z m 10.694438,0.572059 c -0.0073,-0.0016 -0.04399,0.03124 -0.08527,0.07028 0.01135,0.0011 0.02386,0.0032 0.03669,0.0052 h 5.29e-4 c 0.01578,-0.01794 0.03017,-0.03718 0.04237,-0.05788 0.0069,-0.01164 0.0085,-0.01701 0.0057,-0.01757 z m 1.097607,1.149283 c -0.0057,0.0029 -0.0116,0.0059 -0.01705,0.0093 0.0025,-2.62e-4 0.01148,-0.0029 0.01395,-0.0057 0.001,-0.0011 0.0021,-0.0024 0.0031,-0.0036 z m -0.865063,0.224793 c -0.01816,0.0013 0.01036,7.94e-4 0.0155,0.0011 -0.0051,-2.64e-4 -0.01039,-7.93e-4 -0.0155,-0.0011 z m 7.807274,17.532263 c 0.05073,2.48e-4 0.101586,0.0011 0.152445,0.0016 h 1.200443 v 2.23914 h -0.746207 c 1.1e-5,0.02175 7.94e-4,0.04356 -0.0021,0.06511 -5.3e-4,0.0044 -0.01027,0.0034 -0.01035,0.0078 -1.08e-4,0.01482 0.0069,0.02898 0.01035,0.04341 -0.0191,-0.03265 -0.06911,-0.134223 -0.05736,-0.09818 0.0414,0.126651 0.09283,0.250224 0.146762,0.37207 0.0084,0.01887 2.14e-4,-0.0092 -0.0093,-0.04186 -0.0045,-0.01323 -0.008,-0.02397 -0.01344,-0.04031 -0.0013,-0.0036 -0.0024,-0.01262 -0.0026,-0.01498 0.0034,0.0123 0.01011,0.03513 0.01603,0.05529 0.06363,0.186722 0.0398,0.0931 0.07648,0.253217 0.06541,0.145923 0.12237,0.288292 0.140044,0.449066 0.01437,0.06991 0.03208,0.139346 0.04341,0.209807 0.02426,0.150982 0.02331,0.184589 0.02791,0.313158 0.0032,0.09042 0.0113,0.193855 -0.0011,0.283705 -0.0076,0.06285 -0.02217,0.12436 -0.0341,0.186553 v 0.464052 h -1.582849 v -0.205671 -0.192754 c -0.01323,0.0066 -0.02647,0.01281 -0.04031,0.0181 -0.08841,0.03379 -0.317487,0.160261 -0.273368,0.07648 0.04687,-0.08899 0.189728,-0.06584 0.284737,-0.0987 0.0046,-0.01191 0.0093,-0.02376 0.01394,-0.03566 -0.04462,0.02138 -0.158771,0.01834 -0.370004,0.02326 -0.05547,-0.213011 -0.110932,-0.426228 -0.166399,-0.639239 l -0.5333,-0.0615 c -0.02664,0.08743 -0.05962,0.186981 -0.100769,0.302824 -0.01188,-0.106397 -0.02379,-0.212447 -0.03566,-0.318844 l 0.136427,0.01603 c 0.19785,-0.649473 0.04971,-0.576646 0.326594,-0.671793 0.0094,-0.0073 0.01908,-0.01455 0.02997,-0.01913 0.01513,-0.0063 0.0381,-0.01471 0.06305,-0.02376 -0.0073,-0.02143 -0.01445,-0.04303 -0.0217,-0.06511 -0.0079,-0.0241 0.04527,-0.02281 0.06821,-0.03359 0.06679,-0.03144 0.134649,-0.06072 0.20102,-0.09302 0.03996,-0.01945 0.07974,-0.03934 0.119374,-0.05943 -0.01677,-0.09489 -0.024,-0.191222 -0.02791,-0.287838 -0.01966,0.0026 -0.03919,0.0052 -0.05891,0.0078 -0.04908,0.0181 -0.09832,0.03637 -0.147278,0.05478 -0.01585,0.0159 -0.0273,0.03784 -0.04754,0.04754 -0.285205,0.136906 -0.444225,0.170318 -0.737939,0.284737 -0.199207,0.0776 -0.494654,0.213921 -0.686779,0.300241 l -0.915707,-2.043803 c 0.328428,-0.146857 0.511855,-0.233219 0.850593,-0.365352 0.09086,-0.03544 0.184743,-0.06263 0.275953,-0.09715 0.255021,-0.09652 0.501332,-0.21463 0.757576,-0.307991 -0.08111,0.04107 -0.329218,0.151461 -0.24288,0.122989 0.150257,-0.04955 0.28692,-0.134011 0.43615,-0.186552 0.049,-0.0172 0.101558,-0.02082 0.15348,-0.02582 0.118385,-0.02426 0.241519,-0.0303 0.351917,-0.08578 0.108423,-0.01778 0.216577,-0.03932 0.325559,-0.05323 0.168669,-0.02151 0.336719,-0.02925 0.505396,-0.03101 0.0506,-5.3e-4 0.101201,-7.94e-4 0.151929,-5.3e-4 z m -1.310513,2.918169 c 7.93e-4,0.0027 0.0016,0.0056 0.0026,0.0083 0.03661,-0.01365 0.07733,-0.02952 0.12454,-0.04909 0.0058,-0.0024 0.0097,-0.0043 0.01138,-0.0052 -0.01114,0.0021 -0.08075,0.025 -0.138491,0.04599 z m 0.0026,0.0083 c -0.03082,0.01151 -0.05737,0.02103 -0.08165,0.02946 0.06409,0.246118 0.128667,0.492342 0.192751,0.738457 l 0.196371,0.02273 c -0.0019,-0.02315 -0.0039,-0.04655 -0.0057,-0.07132 -0.09506,-0.184721 -0.199612,-0.419857 -0.301789,-0.719336 z m 0.307475,0.790651 c 0.04415,0.553858 0.10282,0.653884 0.352952,0.560171 7.94e-4,-0.0019 0.0013,-0.0034 0.0021,-0.0052 v -0.02532 c -0.03203,-0.07683 -0.159883,-0.227312 -0.320911,-0.52555 z m 0.352952,0.560171 c -0.0043,0.01103 -0.0087,0.02204 -0.01291,0.03307 0.0063,-0.003 0.0114,-0.0068 0.01498,-0.01085 v -0.02273 c -7.94e-4,2.2e-4 -0.0013,2.7e-5 -0.0021,5.29e-4 z m -0.742074,-1.321366 c -2.2e-4,-7.94e-4 -6.4e-5,-0.0019 -5.29e-4,-0.0026 -0.0028,0.0019 -0.0039,0.0027 -0.0083,0.0057 0.0031,-0.0011 0.0056,-0.0021 0.0088,-0.0031 z m -0.0088,0.0031 c -0.0019,5.3e-4 -0.0034,0.0013 -0.0052,0.0021 -0.0083,0.0064 -0.0164,0.01265 -0.02479,0.0186 -0.0099,0.007 0.0141,-0.0097 0.02997,-0.02066 z M 9.4408297,55.642063 c 0.051059,-5.29e-4 0.1107271,0.006 0.1886188,0.0217 0.186204,0.03747 0.2909975,0.09561 0.3953245,0.186036 h 5.29e-4 c 0.03954,0.01725 0.07451,0.0429 0.109037,0.06924 0.101061,0.0057 0.200638,0.0087 0.299723,0.03514 v 1.583365 c -0.247451,-0.02225 -0.170571,-0.01082 -0.365869,-0.04082 -0.01913,-0.003 -0.04043,-0.01871 -0.05736,-0.0093 -0.0073,0.004 0.0069,0.007 0.02274,0.0088 -0.1259039,-0.0087 -0.1450219,-0.01458 -0.262516,-0.03617 -0.00511,-7.94e-4 -0.010562,-0.0011 -0.015502,-0.0026 -0.00411,-0.0013 -0.2517907,-0.07095 -0.3033408,-0.10387 -0.045369,-0.02897 -0.086301,-0.05714 -0.122473,-0.0832 0.046077,0.01918 0.093747,0.03433 0.1421101,0.04754 -0.073664,-0.0382 -0.1678109,-0.08725 -0.2387449,-0.124021 -0.00265,-7.94e-4 -0.00569,-0.0019 -0.00827,-0.0026 0.027318,0.02175 0.061608,0.04823 0.1043866,0.07907 -0.00983,-0.0041 -0.019817,-0.0084 -0.029455,-0.01291 -0.035708,-0.01683 -0.1102791,-0.06522 -0.1457277,-0.0925 -0.094183,-0.04145 -0.1301274,-0.09109 -0.2108399,-0.177768 -0.00159,-7.94e-4 -0.00308,-0.0019 -0.00465,-0.0026 -0.00378,-0.0046 -0.012676,-0.01564 -0.015502,-0.01913 0.00717,0.0075 0.013631,0.01471 0.020153,0.0217 0.1491136,0.07722 0.3009419,0.149722 0.4501018,0.226861 L 9.2878807,55.676991 c -0.032662,0.0062 -0.065524,0.01243 -0.098185,0.0186 -0.01959,0.0061 -0.040364,0.01209 -0.063045,0.0186 -0.014825,0.0042 0.028858,-0.0099 0.043408,-0.01498 0.00653,-0.0013 0.01311,-0.0024 0.019637,-0.0036 0.093674,-0.02925 0.1582459,-0.05286 0.2511475,-0.05374 z m -0.047543,1.571998 0.00103,0.01188 c 0.00775,5.29e-4 0.015468,5e-5 0.023254,5.29e-4 -0.00806,-0.0042 -0.016208,-0.0082 -0.024289,-0.01241 z m 0.00103,0.01188 c -0.030728,-0.0016 -0.061102,-0.0055 -0.09095,-0.01291 -0.012486,-0.0031 -0.023852,-0.0062 -0.03514,-0.0093 0.071528,0.03628 0.1410771,0.07733 0.2113565,0.116274 0.022341,0.006 0.044859,0.01127 0.067179,0.01704 0.026952,0.007 0.107282,0.02016 0.083199,0.0062 -0.057018,-0.03308 -0.1143508,-0.06528 -0.1725993,-0.09612 -0.020333,0.003 -0.040646,0.0063 -0.060978,0.0093 z m 0.085266,0.09405 c -0.00262,-7.94e-4 -0.00515,-0.0013 -0.00775,-0.0021 0.023781,0.01233 0.046487,0.02358 0.059945,0.03049 -0.01751,-0.0093 -0.034827,-0.01881 -0.052193,-0.02842 z M 31.078784,56.887459 c -0.0241,0.003 -0.04835,0.0066 -0.07235,0.01035 -0.01963,0.0031 0.04054,5.3e-4 0.05943,-0.0057 0.0036,-0.0011 0.0089,-0.0033 0.01291,-0.0047 z M 19.569926,69.689263 c 4.76e-4,5.8e-5 0.0015,-1.51e-4 0.0026,5.29e-4 0.01064,0.0033 0.05099,0.01992 0.134876,0.05581 l -0.0036,0.0088 c 0.0217,5.29e-4 0.04758,0.0013 0.0801,0.0026 0.02248,7.94e-4 0.04474,0.0037 0.06718,0.0052 0.0088,5.29e-4 0.01785,-0.0019 0.02636,5.29e-4 0.135399,0.03961 0.270809,0.07921 0.406176,0.118856 0.237631,0.204565 0.225722,0.176258 0.247014,0.228925 0.104839,0.07558 0.210326,0.205375 0.270268,0.274921 -0.01028,-0.01847 -0.02038,-0.03696 -0.02997,-0.05581 -0.0011,-0.0021 -0.001,-0.0044 -0.001,-0.0052 0.0094,0.0065 0.09343,0.125013 0.06821,0.101802 -0.0084,-0.0078 -0.02193,-0.0231 -0.03721,-0.04082 0.03847,0.06912 0.08088,0.136096 0.120406,0.204639 -0.150006,-0.199654 -0.212823,-0.283233 -0.252698,-0.336415 0.0896,0.120372 0.268576,0.361844 0.283703,0.390158 0.06857,0.128307 0.05138,0.348498 0.03824,0.494027 -0.362466,0.639887 -0.210531,0.54755 -0.472839,0.597379 -0.01947,0.01775 -0.03842,0.03594 -0.05736,0.05426 0.0099,-0.0033 0.0199,-0.0066 0.02997,-0.0093 0.0012,-2.62e-4 0.0021,-7.4e-5 0.0026,0 -0.0028,0.005 -0.05015,0.03311 -0.05581,0.03307 1.6e-4,-5.29e-4 8.47e-4,-0.0016 10e-4,-0.0026 0.0071,-0.0071 0.01447,-0.01418 0.0217,-0.02119 -0.01008,0.0033 -0.02,0.0067 -0.02997,0.01035 -0.02905,0.02437 -0.05829,0.0485 -0.08733,0.07286 0.02121,-0.01116 0.03741,-0.01929 0.0248,-0.01138 -0.136905,0.0851 -0.233775,0.129532 -0.409277,0.153998 -0.08342,0.01162 -0.168499,-0.0038 -0.252698,-0.0057 -0.0078,-0.0016 -0.01424,-0.0027 -0.02067,-0.0036 v 5.29e-4 c -0.01681,-7.94e-4 -0.02577,-0.0019 -0.02842,-0.0026 0.0016,-5.29e-4 0.01232,-2.65e-4 0.02842,0.0021 l -0.01912,-0.557589 c -0.0032,-0.0039 -0.0066,-0.0074 -0.0098,-0.01138 -0.02465,-0.01159 -0.04931,-0.02323 -0.07028,-0.04031 -0.01319,-0.01074 -0.02568,-0.02109 -0.03772,-0.031 -0.09131,0.0074 -0.1786,-0.02341 -0.3545,-0.09767 -0.05562,-0.02347 -0.07009,-0.03679 -0.109554,-0.06718 l 0.115755,-0.27027 c -0.0058,-0.01193 -0.01147,-0.02379 -0.01757,-0.03669 -0.0043,-0.0091 -0.0071,-0.01511 -0.0083,-0.0181 0.0034,0.0052 0.01482,0.02331 0.02894,0.04806 l 0.489893,-1.143598 c -0.05655,0.01619 -0.178644,0.08009 -0.575159,0.213423 -0.03846,0.03014 -0.07732,0.05978 -0.117305,0.08785 -0.02524,0.01773 0.03223,-0.05956 0.0615,-0.06925 0.01951,-0.0065 0.03749,-0.01243 0.05581,-0.0186 0.07055,-0.05527 0.139705,-0.112813 0.210323,-0.167949 0.274543,-0.06329 0.241301,-0.07454 0.372071,-0.07131 -0.07016,-0.03343 -0.126976,-0.06167 -0.129708,-0.06511 z m 0.129708,0.06511 c 0.0012,5.29e-4 0.0024,0.0011 0.0036,0.0016 l 5.3e-4,-0.0016 c -0.0015,-3.7e-5 -0.0027,3.7e-5 -0.0041,0 z m -0.04392,1.682586 c 0.0031,0.0013 0.0062,0.0027 0.0093,0.0041 v -5.29e-4 c -0.0059,-0.0032 -0.0059,-0.003 -0.01085,-0.0057 5.29e-4,5.29e-4 -2.65e-4,0.0013 0.0016,0.0021 z m -0.0016,-0.0021 c -2.27e-4,-2.62e-4 4.9e-5,-7.94e-4 -5.29e-4,-0.0011 -0.0098,-0.0052 -0.01963,-0.01027 -0.02946,-0.0155 -0.01005,-0.0054 0.01605,0.009 0.02997,0.01654 z m -5.29e-4,-0.0011 c 0.0038,0.0021 0.0075,0.0042 0.01137,0.0062 v 5.3e-4 c 0.0068,0.0037 0.0059,0.0033 0.0124,0.0067 -0.0042,-0.0021 -0.0082,-0.0042 -0.0124,-0.0062 l 5.3e-4,0.0072 c 0.04599,0.05657 0.08256,0.09936 0.08785,0.101801 -2.59e-4,-0.0019 -0.0044,-0.01021 -0.01499,-0.02532 -0.01757,-0.025 -0.0358,-0.04955 -0.05426,-0.0739 -4.5e-4,-5.29e-4 -0.0011,-0.0016 -0.0016,-0.0021 -0.0059,-0.0031 -0.01169,-0.0062 -0.01757,-0.0093 l -5.3e-4,-0.01447 c -0.01795,-0.0232 -0.03637,-0.04639 -0.05478,-0.06925 -0.005,0.0013 -0.01011,0.0021 -0.01499,0.0031 0.02029,0.02598 0.03983,0.05129 0.05891,0.07493 z m 0.77618,0.365869 c 0.02445,-0.0205 0.04893,-0.041 0.07338,-0.0615 -0.08709,0.0173 -0.216422,0.04945 -0.417545,0.125058 -0.05102,0.01918 0.110434,0.0094 0.163814,-0.0016 0.06229,-0.01283 0.120524,-0.04001 0.180351,-0.06201 z m 0.07338,-0.0615 c 0.0048,-0.0011 0.01,-0.0021 0.01447,-0.0031 0.05627,-0.05134 0.114214,-0.100637 0.170532,-0.151929 -0.06164,0.0517 -0.123359,0.103333 -0.185002,0.155029 z M 5.7645459,69.764635 c 0.1560264,-0.0024 0.3103308,0.01183 0.4661215,0.04909 0.016163,0.0039 0.042453,0.0098 0.069246,0.01603 -0.00119,-0.0016 -0.00259,-0.003 -0.00362,-0.0047 -0.050788,-0.07861 0.5008753,0.129892 0.5234823,0.138494 0.067525,0.02577 0.1339472,0.05371 0.2010212,0.08061 l -0.365869,0.976686 0.5550048,0.307475 c 0.056282,-0.265938 0.029295,-0.280258 0.041341,-0.133843 0.00545,0.0614 0.010636,0.111348 0.011369,0.163299 l 0.00827,0.0047 c 0.059422,-0.185502 0.1835182,-0.600331 0.00206,0.0011 l -0.00206,-0.0011 c -0.00265,0.0083 -0.00591,0.01807 -0.00827,0.02532 -0.00111,0.04866 -0.00707,0.100687 -0.021188,0.166399 -0.00408,0.019 -0.034613,0.09938 -0.063046,0.169497 -0.022823,0.117542 -0.027423,0.142711 -0.1038696,0.304374 -0.018743,0.03964 -0.042614,0.0769 -0.065629,0.114205 -0.00519,0.0084 -0.021421,0.03109 -0.020672,0.02119 8.732e-4,-0.01153 0.00437,-0.02278 0.00672,-0.03411 -0.09232,0.03698 -0.062819,0.02516 -0.0863,0.144695 1.85e-5,5.29e-4 -1.58e-5,0.0011 0,0.0016 0.00172,0.05586 0.00217,0.111172 -5.291e-4,0.166399 0.092714,-0.02238 0.244072,-0.04568 0.3162596,-0.05271 0.049098,-0.0048 0.09409,-0.0071 0.1369428,-0.0078 0.1856943,-0.0021 0.3241746,0.03409 0.5136636,0.09198 0.00313,0.0011 0.00619,0.0021 0.0093,0.0031 0.00185,-0.01754 0.00212,-0.03528 0.00465,-0.05271 0.016478,-0.112903 0.067874,-0.219165 0.10542,-0.325562 0.025985,-0.07366 0.047579,-0.149037 0.074931,-0.222211 0.009,-0.02408 0.022836,-0.04615 0.034106,-0.06925 0.03606,-0.08951 0.1024901,-0.257432 0.135909,-0.309542 0.063875,-0.0996 0.142348,-0.189677 0.2222088,-0.276984 0.03399,-0.03716 0.07786,-0.06392 0.1178221,-0.09457 0.091011,-0.0698 0.1895388,-0.129419 0.2795696,-0.200507 1.6670625,0.09576 1.1546285,0.101322 0.1524455,-0.08371 -0.012814,-0.0024 0.023357,-0.01148 0.03514,-0.01704 0.2309571,-0.109093 0.1040428,-0.04835 0.030489,-0.01291 0.04567,-0.02159 0.1397352,-0.06591 0.350366,-0.16588 0.1282071,-0.06084 0.2564088,-0.122312 0.3844727,-0.183452 l 0.6428553,1.44694 c -0.114707,0.05497 -0.229289,0.110228 -0.344165,0.164849 -0.2184112,0.103841 -0.2249957,0.10613 -0.391191,0.183967 -0.106113,-0.01783 -0.2158024,-0.05808 -0.3255616,-0.09818 l -0.018603,0.08578 c 0.1201568,0.0081 0.2318666,0.01738 0.306958,0.03204 -0.020794,0.01664 -0.041228,0.03363 -0.062528,0.04961 -0.00658,0.0049 -0.013488,0.0097 -0.020153,0.01447 v 5.29e-4 c -0.00862,0.01767 -0.018672,0.03471 -0.025839,0.05271 -0.023201,0.05063 -0.049223,0.100169 -0.069763,0.151929 -0.00106,0.0026 0.00911,-2.64e-4 0.00827,0.0026 -0.00512,0.01683 -0.012089,0.03306 -0.018087,0.04961 0.014989,0.0019 0.02998,0.0035 0.044958,0.0052 0.00122,9e-5 0.00241,-9.2e-5 0.00362,0 5.556e-4,-8.4e-5 0.03179,0.0019 0.045992,0.0016 0.050781,-0.0016 0.1017555,-0.0038 0.1524455,-0.0072 0.050487,-0.0033 0.1004752,-0.0087 0.1508953,-0.01291 l 0.3684528,2.208652 c -0.3080447,0.03784 -0.6193588,0.06989 -0.9286255,0.02946 0.00763,0.0016 0.0151,0.0036 0.022738,0.0052 -0.024482,1.61e-4 -0.048982,0.0026 -0.073381,5.29e-4 -0.248399,-0.02074 -0.2556166,-0.02336 -0.3870563,-0.04651 -0.2211337,0.0132 -0.4431556,0.0056 -0.6645592,0.0036 -0.2031434,0.0024 -0.4009859,0.006 -0.602547,-0.03876 -0.124931,-0.0277 -0.2446864,-0.07576 -0.3669028,-0.113689 -0.013356,-0.005 -0.026511,-0.0104 -0.039791,-0.0155 -0.1823202,0.09955 -0.4373465,0.214024 -0.574125,0.252698 -0.07398,0.02093 -0.1500438,0.01521 -0.2268595,0.0011 -0.020323,0.0098 -0.040459,0.01939 -0.060978,0.02842 -0.012338,-0.0029 -0.018968,-0.0045 -0.030489,-0.0072 l -0.014986,0.02119 c -0.022447,0.134858 -0.075159,0.03269 -0.1297077,-0.05426 -0.2830973,-0.06359 -0.1676075,-0.02707 -0.3172934,-0.08423 6.086e-4,2.65e-4 6.49e-5,5.29e-4 -0.00206,0 C 5.7149935,74.734051 5.5837813,74.676 5.446212,74.611167 c -0.0045,0 -0.008,-1.38e-4 -0.00982,-5.3e-4 -0.427837,-0.07004 -0.3491306,-0.04307 -0.5524211,-0.121441 l 0.097152,-0.252695 c -0.031849,-0.03071 -0.063627,-0.06103 -0.096118,-0.09095 -0.00212,-0.0019 -0.00553,-0.008 -0.0062,-0.0098 0.039568,0.03538 0.073276,0.06654 0.1043866,0.0956 L 5.2152156,73.62921 c -0.013211,-0.07897 -0.028394,-0.158731 -0.026355,-0.238744 0.00285,-0.112035 -0.062584,-0.292875 0.034106,-0.338997 -1.939e-4,-0.02315 3.175e-4,-0.04599 5.292e-4,-0.06925 0.038571,-0.220927 0.061879,-0.426492 0.1007689,-0.646472 -0.00206,-0.0182 -0.0054,-0.0366 -0.00362,-0.05478 0.010639,-0.108402 0.028198,-0.216016 0.042375,-0.324011 0.054232,-0.15657 0.029843,-0.09759 0.088884,-0.196371 0.00731,-0.02167 0.014623,-0.04289 0.018087,-0.05633 0.027739,-0.10277 0.076361,-0.194056 0.1286743,-0.283703 l -0.00775,-1.645896 c 0.058283,-0.0051 0.1160346,-0.0089 0.1736328,-0.0098 z m -0.7813474,4.466394 -0.00206,0.0052 c 0.055693,0.0537 0.1116254,0.107961 0.168982,0.159679 -0.037446,-0.04046 -0.09061,-0.09357 -0.1669148,-0.164849 z m 1.4360879,0.641305 c 0.1772145,-0.08527 0.3485481,-0.192696 0.5255493,-0.279051 -0.032272,-0.0091 -0.095673,-0.03945 -0.2656168,-0.111106 l 0.177767,-0.328663 -0.5033286,0.70435 c 0.021881,0.0053 0.043807,0.01032 0.065629,0.01447 z M 5.5820881,69.77507 c -0.010557,0.0011 -0.020934,0.0021 -0.031522,0.0031 4.233e-4,-2.65e-4 6.085e-4,-7.94e-4 0.00103,-0.0011 0.010131,-7.93e-4 0.02036,-0.0013 0.030489,-0.0021 z m 0.4630209,0.04599 c -0.081935,0.01521 -0.1327828,0.0481 0.5245158,0.101804 -0.077778,-0.01021 -0.1816775,-0.0304 -0.2392619,-0.06666 -0.095341,-0.0043 -0.1903466,-0.02246 -0.2852539,-0.03514 z m 14.532963,0.389125 c 0.0222,0.04125 0.05422,0.09684 0.102836,0.174149 0.03302,0.0525 -0.03955,-0.07015 -0.0801,-0.154511 -0.0075,-0.0065 -0.01596,-0.01373 -0.02274,-0.01963 z m -1.030428,0.300757 c -0.0058,0.0024 -0.0099,0.0037 -0.01602,0.0062 -0.02239,0.009 -0.08188,0.05082 -0.06098,0.03876 0.02722,-0.01572 0.05345,-0.03074 0.077,-0.04496 z m 0.0863,0.03617 c -0.03387,0.07456 -0.09394,0.205534 -0.213941,0.432015 2.91e-4,0.01781 2.17e-4,0.03887 0.0026,0.04754 0.0093,0.04629 0.01113,0.09664 0.03204,0.138493 0.027,0.03382 0.0542,0.06729 0.08165,0.10077 0.0411,0.0099 0.08234,0.01971 0.123507,0.02946 z m -0.09767,0.718818 c -0.0053,-0.0013 -0.0107,-0.0024 -0.01602,-0.0036 0.0039,0.0052 0.0079,0.01064 0.01188,0.01601 0.02509,0.02252 0.04889,0.04683 0.07235,0.07131 -0.02258,-0.02797 -0.04541,-0.05591 -0.06821,-0.08372 z m -0.01602,-0.0036 c -0.02384,-0.0323 -0.04425,-0.06194 -0.0584,-0.08423 -0.0027,-0.0042 -0.005,-0.0085 -0.0072,-0.01291 -0.0054,-0.0068 -0.01115,-0.01333 -0.01654,-0.02016 0.02426,0.03954 0.05196,0.0774 0.07751,0.116271 0.0015,2.65e-4 0.0029,5.29e-4 0.0047,0.0011 z m 9.525516,-0.613916 c 0.05428,-7.93e-4 0.108543,0.0016 0.163298,0.0098 0.07098,0.01053 0.243361,0.03004 0.32866,0.05788 0.0035,0.0013 -0.0088,0.009 -0.0052,0.0098 0.02907,0.0065 0.115234,-0.0047 0.08888,0.0093 -0.101322,0.05372 -0.629737,0.288989 -0.808736,0.368454 0.114385,-0.05032 0.379238,-0.166783 0.876432,-0.38499 0.118362,0.01516 0.23766,0.02387 0.355016,0.04548 0.175723,0.03237 0.350043,0.123777 0.5271,0.164848 0.262176,0.06078 0.168968,-0.0063 0.248047,0.05323 0.160374,0.0076 0.335317,0.01093 0.490926,0.03152 0.258353,0.03418 0.499272,0.142483 0.757061,0.179832 l -0.543121,2.171962 c -0.176853,-0.04069 -0.218657,-0.05032 -0.260964,-0.05994 0.09265,0.02035 0.172106,0.03566 -0.277503,-0.07493 -0.04051,-7.94e-4 -0.243779,-0.01053 -0.27337,-0.01188 -0.09417,-0.01323 -0.188251,-0.02474 -0.282152,-0.03979 -0.249941,-0.04004 -0.376703,-0.06931 -0.636138,-0.144693 -0.03843,-0.01116 -0.07635,-0.02336 -0.114204,-0.03617 -7.94e-4,0.02342 -0.0013,0.04685 -0.0026,0.07028 -0.0011,0.02029 -0.0074,0.0446 -0.0026,0.06563 0.01966,0.08571 0.02281,0.04205 0.04548,0.155546 0.0076,0.03808 0.0093,0.0767 0.01394,0.115239 -0.0011,0.09395 0.0066,0.188211 0.0016,0.282152 -0.0019,0.02101 -0.0035,0.04208 -0.0057,0.06304 -0.0011,0.0099 0.0052,0.02577 -0.0041,0.02946 -0.0026,0.0011 -0.0039,-0.0024 -0.0047,-0.0067 5.29e-4,0.02917 0.0041,0.05825 0.0021,0.08733 -0.0035,0.04974 -0.01431,0.08039 -0.02739,0.124023 -0.0204,0.06217 -0.03372,0.106514 -0.06305,0.172083 -0.03273,0.07317 -0.05606,0.105015 -0.09405,0.170016 -0.09105,0.155789 -0.0064,0.01823 -0.124542,0.203604 -0.06177,0.08245 -0.111503,0.1524 -0.187584,0.229444 -0.02609,0.02643 -0.05751,0.0468 -0.08785,0.06821 -0.160602,0.113366 -0.294891,0.182718 -0.496612,0.188618 -0.142087,-0.134252 -0.284969,-0.268023 -0.426328,-0.403076 l -5.3e-4,-5.3e-4 c -7.93e-4,-7.93e-4 -2.62e-4,-0.0031 0,-0.0036 -0.0024,-0.01535 -0.0011,-0.0028 -0.0031,-0.06563 0.0024,-0.05087 0.0013,-0.04603 0.0072,-0.09819 0.0011,-0.01016 0.0016,-0.03219 0.0026,-0.04496 8e-6,-7.93e-4 5.29e-4,-0.0013 5.29e-4,-0.0021 0.0013,-0.044 0.01487,-0.07902 0.03411,-0.165881 5.29e-4,-0.0013 0.0016,-0.0024 0.0021,-0.0036 3.7e-5,-2.65e-4 -3.9e-5,-7.94e-4 0,-0.0011 0.0021,-0.01931 0.0051,-0.03854 0.0067,-0.05788 0.01013,-0.03269 0.0177,-0.06642 0.03049,-0.09819 0.0059,-0.01471 0.01728,-0.04366 0.02687,-0.06511 v -5.29e-4 c 0.0019,-0.0053 0.003,-0.009 0.0036,-0.01035 -8.2e-5,5.29e-4 1.45e-4,0.0016 -5.3e-4,0.0036 0.0028,-0.0059 0.0056,-0.01066 0.0078,-0.01394 0.0033,-0.0093 0.005,-0.01519 0.0072,-0.0217 -0.0013,0.0037 0.0016,-0.0073 0.0041,-0.01085 7.94e-4,1.74e-4 0.0019,0.0044 0.0021,0.0031 5.29e-4,-0.0027 5.29e-4,-0.006 5.29e-4,-0.0093 -2.64e-4,0.0011 -0.0021,0.0045 -0.0026,0.0057 0.0011,-0.0029 0.0016,-0.0038 0.0026,-0.0067 -7.94e-4,-0.01654 -0.0067,-0.03734 0.0067,-0.03824 5.29e-4,-2.9e-5 7.93e-4,-1.6e-5 0.0011,0 -0.0013,-0.01153 -0.0024,-0.02357 -0.0021,-0.03514 0.0011,-0.03435 0.0079,-0.06818 0.01188,-0.102319 7.94e-4,-0.0029 -2.14e-4,-0.0065 0.0021,-0.0088 0.0011,-0.0013 0.0013,0.0055 0.0016,0.0041 0.0046,-0.03226 0.008,-0.06426 0.01188,-0.09664 0.0044,-0.02482 0.0066,-0.05001 0.01291,-0.07441 0.0011,-0.0044 0.0085,-0.0062 0.0088,-0.01085 0.0016,-0.03194 -0.003,-0.06414 -0.0031,-0.09612 -2.64e-4,-0.08568 0.0024,-0.17041 0.0217,-0.254246 0.007,-0.03554 0.01418,-0.07143 0.02119,-0.106971 0.0016,-0.0024 0.0044,-0.0043 0.0052,-0.0072 0.01548,-0.05723 0.02035,-0.116134 0.03101,-0.173631 -0.03505,0.0098 -0.06752,0.01873 -0.122473,0.03462 -0.01532,0.0045 0.06293,-0.0074 0.04806,-0.0016 -0.218961,0.08545 -0.450022,0.139004 -0.672312,0.214974 -0.07191,0.02304 -0.143581,0.04621 -0.215489,0.06925 l -0.682131,-2.132688 c 0.06212,-0.01984 0.123913,-0.03959 0.186037,-0.05943 0.08489,-0.0281 0.169423,-0.0575 0.254764,-0.08423 0.09108,-0.02853 0.184965,-0.04761 0.275434,-0.07803 0.107445,-0.03613 0.21249,-0.07948 0.320395,-0.114205 0.113085,-0.03639 0.241144,-0.01572 0.346231,-0.08372 0.106733,-0.01296 0.21332,-0.02958 0.320395,-0.03928 0.06088,-0.0055 0.09411,0.0044 0.150378,0.0021 0.119579,-0.005 0.238705,-0.02236 0.358119,-0.02429 z M 20.1042,71.16154 c -0.169518,0.06603 -0.283548,0.117197 -0.37052,0.151929 0.03989,0.01 0.0795,0.02066 0.118856,0.03256 -0.0077,5.29e-4 -0.0516,-0.0011 -0.101803,-0.0041 0.125148,0.06636 0.382908,0.351946 0.231511,-0.07493 0.04132,-0.03431 0.08156,-0.06988 0.121956,-0.10542 z m -0.442867,0.1788 c -0.0181,0.0061 -0.03488,0.01095 -0.05116,0.01498 0.01794,0.01881 0.03569,0.0376 0.05374,0.05633 z m 0.06356,0.131257 c 0.0038,0.0035 0.0075,0.0069 0.01137,0.01035 0.01344,0.01183 0.06466,0.03177 0.04909,0.02273 -0.01985,-0.01127 -0.04033,-0.02233 -0.06046,-0.03307 z M 6.887436,72.374903 c -0.00331,0.02503 -0.00827,0.04933 -5.292e-4,0.01188 2.323e-4,-0.0039 2.91e-4,-0.0079 5.292e-4,-0.01188 z m 0.6588744,0.06149 c 6.879e-4,0.0074 0.375929,0.197477 -0.6438882,0.05323 -0.00436,0.04667 -0.00908,0.09345 -0.02222,0.139528 -0.013613,0.04426 -0.013925,0.04318 -0.01447,0.05684 0.1885673,0.06148 0.369823,0.160906 0.5172811,0.251663 0.032754,0.02016 0.064219,0.04246 0.096118,0.06408 L 7.7437146,72.511842 C 7.589012,72.452402 7.546078,72.433892 7.5463106,72.436392 Z M 6.85643,72.482906 c -0.00564,0.009 -0.012091,0.02 -0.019637,0.03307 0.00584,-0.0086 0.015221,-0.02439 0.020153,-0.03307 z m 2.6882082,0.121957 c 0.069875,0.008 0.1397447,0.01566 0.2098063,0.0217 0.022016,0.0019 -0.043131,-0.01061 -0.065112,-0.01291 -0.048082,-0.0049 -0.096488,-0.0053 -0.144694,-0.0088 z m 20.9723608,0.02687 c -0.0095,-1.99e-4 -0.02267,7.94e-4 -0.04031,0.0026 -0.279115,0.02924 -0.527553,0.186875 -0.790649,0.289388 -0.0013,0.0099 -0.003,0.01963 -0.0047,0.02946 -2.9e-5,7.94e-4 2.9e-5,0.0019 0,0.0026 0.0026,5.29e-4 0.0052,0.0011 0.0078,0.0016 0.246137,-0.101081 0.970783,-0.32259 0.827855,-0.325562 z M 29.07316,74.24869 c -0.01423,0.02588 -0.02463,0.04533 -0.03049,0.05788 -0.0011,0.0071 -0.0013,0.01326 -0.0026,0.0217 0.0075,-0.008 0.01987,-0.02731 0.02222,-0.03617 0.0029,-0.01098 0.0046,-0.01778 0.0067,-0.02635 -0.0029,0.0063 -0.0059,0.01281 -0.0088,0.01913 0.0021,-0.0051 0.0056,-0.014 0.0098,-0.02379 0.0011,-0.0038 0.0024,-0.0091 0.0031,-0.01241 z m -0.03049,0.05788 5.29e-4,-0.0036 c -5.29e-4,0.0011 -5.29e-4,0.003 -0.0011,0.0041 z m -0.0011,0.0021 c -2.65e-4,7.94e-4 -0.0013,0.0021 -0.0016,0.0031 v 5.29e-4 c -0.0016,0.0046 -0.004,0.01114 -0.0057,0.01601 v 5.29e-4 c -7.94e-4,0.0043 0.0013,0.0034 0.0052,-5.29e-4 5.29e-4,-0.0056 0.0013,-0.01357 0.0021,-0.01963 z m -0.773078,0.06821 c -1.17e-4,0.0013 -5.29e-4,0.003 -5.29e-4,0.0041 -2.25e-4,0.0026 0.0019,0.0088 0.0026,0.01035 h 5.3e-4 c -5.3e-4,-0.0048 -0.0019,-0.0096 -0.0026,-0.01447 z m 0.74414,0.01394 c -0.0024,0.0072 -0.0041,0.01209 -0.0067,0.01963 1.32e-4,0.0019 -1.3e-4,0.0038 0,0.0057 0.0024,-0.0033 0.0046,-0.0068 0.0072,-0.01138 -1.48e-4,-0.0047 -1.16e-4,-0.0093 -5.29e-4,-0.01394 z m 5.3e-4,0.100769 c -7.94e-4,0.0019 -0.0016,0.0038 -0.0026,0.0057 1.6e-5,0.0011 -8e-6,0.0021 0,0.0031 0,0.003 -0.0035,0.02545 -0.0057,0.04496 1.75e-4,0.0019 1.27e-4,0.0039 5.29e-4,0.0057 0.0042,-0.01257 0.0066,-0.03398 0.0078,-0.05943 z m -0.0088,0.05633 c -2.38e-4,0.0021 -1.37e-4,0.0047 -5.29e-4,0.0067 2.65e-4,-5.29e-4 7.94e-4,-0.0013 0.0011,-0.0021 -1.51e-4,-0.0016 -1.06e-4,-0.003 -5.3e-4,-0.0047 z m -21.6736119,5.3e-4 c -0.029337,0.01953 -0.053658,0.03766 -0.094568,0.06046 0.055838,0.0089 0.1118314,0.01548 0.1679485,0.01241 0.096713,-0.0054 0.3808812,-0.05323 0.2842204,-0.05943 -0.1501772,-0.0097 -0.2661152,-0.01331 -0.3576009,-0.01344 z m 20.8850299,0.06666 c 0.0011,0.0065 0.0021,0.01495 0.0041,0.03152 7.94e-4,0.0069 -0.0021,-0.01376 -0.0031,-0.02066 -5.3e-4,-0.0036 -7.94e-4,-0.0072 -0.0011,-0.01085 z M 6.0962593,74.772742 c -0.00363,5.29e-4 -0.00688,0.0019 -0.010335,0.0041 -0.015579,0.01037 0.029602,0.02585 0.048059,0.02894 0.00446,7.94e-4 0.00897,0.0019 0.013436,0.0026 -0.017791,-0.02254 -0.035417,-0.03744 -0.05116,-0.03566 z m 27.4117617,16.342672 0.203089,2.229837 c -0.394507,0.05066 -0.789821,0.03351 -1.185458,0.02379 -0.11022,0.0026 -0.220469,0.0042 -0.330729,0.0036 l 0.01291,-2.239142 c 0.125174,7.94e-4 0.249986,-0.0036 0.375171,-0.0026 0.309071,0.0081 0.616651,0.02809 0.925007,-0.01551 z m -13.321665,1.283124 c 0.187348,0.269253 0.286481,0.372991 0.352949,0.553974 0.01959,0.01082 0.04711,0.02998 0.113688,0.07183 0.175355,0.0132 0.169698,0.01323 0.372588,0.03462 v 0.21549 c 0.04496,0.04039 0.08258,0.0753 0.04961,0.05788 -0.01686,-0.0089 -0.03335,-0.01855 -0.04961,-0.02842 v 1.994194 c -0.120558,-0.0088 -0.241207,-0.01725 -0.361736,-0.02635 -0.276082,-0.02093 -0.609464,-0.0177 -0.859895,-0.148828 -0.06255,-0.03275 -0.123883,-0.07454 -0.180352,-0.117821 -0.05226,-0.01995 -0.104295,-0.04059 -0.156578,-0.06046 -0.100081,-0.03803 -0.392569,-0.07159 -0.303859,-0.168465 3.44e-4,-2.62e-4 8.74e-4,-7.94e-4 0.001,-0.0011 -0.0554,-0.03058 -0.109847,-0.06306 -0.161747,-0.09922 -0.114196,-0.07957 -0.281807,-0.303768 -0.351917,-0.420645 -0.05035,-0.08394 -0.08873,-0.174352 -0.132291,-0.262001 -0.0087,-0.01762 -0.01879,-0.03486 -0.02429,-0.05374 -0.02145,-0.07376 -0.04071,-0.147836 -0.05995,-0.22221 0.03984,0.08531 0.10227,0.163531 0.145727,0.240813 z m -0.03307,0.415996 c 0.08643,0.0414 0.17257,0.08393 0.260449,0.121957 -0.0099,-0.009 -0.01619,-0.01368 -0.02222,-0.01757 -0.0073,-0.0035 -0.01429,-0.0072 -0.0217,-0.01085 -0.02509,-0.01024 -0.07491,-0.02814 -0.216524,-0.09354 z m -0.795301,1.952853 c 0.0017,0.0032 0.01544,0.02005 0.04393,0.05581 0.01614,0.01124 0.03242,0.02241 0.04858,0.03359 -0.05186,-0.04907 -0.08625,-0.08498 -0.09198,-0.0894 z M 4.6327827,103.1643 c 0.1276416,0.006 0.255737,0.005 0.3829222,0.017 0.3293303,0.0316 0.6364745,0.11022 0.9250082,0.27542 0.1087483,0.0679 0.1657742,0.10327 0.2015382,0.12506 -0.00293,-10e-4 -0.00521,-0.003 -0.0062,-0.003 0.00108,0.003 0.018545,0.0182 0.072347,0.0568 0.022069,0.0158 0.045107,0.0314 0.069246,0.0439 0.022487,0.0116 0.095503,0.0299 0.07028,0.0279 -0.046613,-0.004 -0.1801308,-0.0502 -0.1364256,-0.0336 0.1068957,0.0407 0.2166612,0.0739 0.3255614,0.10903 0.060054,0.0303 0.2031476,0.10194 0.3731037,0.20412 0.028398,0.017 0.052492,0.0408 0.076481,0.0636 0.016531,0.0158 0.1504198,0.13996 0.2769857,0.28008 0.03104,0.0276 0.060513,0.0567 0.086816,0.0889 0.2210972,0.27074 0.303345,0.52378 0.3369304,0.86609 0.011171,0.11384 -0.011761,0.22837 -0.017571,0.34262 -0.03051,0.12156 -0.046249,0.24794 -0.091467,0.36483 -0.094445,0.2442 -0.1679866,0.36602 -0.3100586,0.53279 -0.089863,0.23223 -0.1553887,0.38454 -0.4113442,0.55449 -0.00322,0.002 -0.00937,0.006 -0.01292,0.009 -0.072043,0.11045 -0.1463884,0.22924 -0.2377117,0.31781 -0.087243,0.0976 -0.1659808,0.20299 -0.2614827,0.29249 -0.2705653,0.25363 -0.6932903,0.42866 -1.0583333,0.44855 -0.4427633,0.0414 -0.5979424,0.0397 -0.938961,-0.15813 -0.4185595,-0.11935 -0.5586185,-0.39204 -0.7849648,-0.83974 -0.038325,-0.0758 -0.033094,-0.16579 -0.049609,-0.24908 -0.026125,-0.38083 -0.035301,-0.29894 -0.010853,-0.63614 0.00525,-0.0725 -0.022527,-0.15905 0.021188,-0.21704 5.027e-4,-5.3e-4 0.00106,10e-4 0.00156,-0.002 -0.014002,-0.18795 -0.0092,-0.0526 0.1338421,-0.62683 0.0532,-0.0751 0.1074891,-0.14934 0.1601971,-0.2248 0.00398,-0.008 0.00746,-0.0149 0.011369,-0.0222 -0.00761,0.01 -0.013674,0.0186 -0.020672,0.0279 -0.00983,0.0151 -0.018677,0.0284 -0.032039,0.0486 -0.00562,0.008 0.009,-0.0186 0.014986,-0.0269 0.00364,-0.005 0.011411,-0.0142 0.017052,-0.0217 0.018775,-0.0288 0.032831,-0.0518 0.040824,-0.0646 -0.00574,0.01 -0.012324,0.0221 -0.020153,0.0367 0.020553,-0.027 0.038002,-0.0492 0.026355,-0.032 -0.012353,0.0182 -0.025141,0.0363 -0.037724,0.0543 -0.011761,0.0233 -0.02332,0.0485 -0.030489,0.0708 -0.025733,0.08 -0.036614,0.1644 -0.054777,0.2465 0.00108,0.0642 -0.015433,0.25354 0.00362,0.19223 0.078011,-0.25126 0.1067358,-0.51555 0.1757,-0.76946 0.0086,-0.0316 0.029774,-0.061 0.055294,-0.0816 7.673e-4,-5.3e-4 0.00161,-7.9e-4 0.00206,-0.001 0.00106,0.001 -0.00196,0.01 -0.00672,0.0191 0.033686,-0.0603 0.056463,-0.10296 0.070797,-0.13074 0.0064,-0.11483 0.093167,-0.21194 0.1503783,-0.31213 0.1209445,-0.21177 0.2747745,-0.40191 0.4258138,-0.59376 z m 2.3879678,0.97358 c 8.23e-5,1e-4 2.646e-4,4e-5 5.292e-4,0.002 0.036155,0.0324 0.074517,0.0626 0.1131713,0.0925 -0.024164,-0.0223 -0.048314,-0.0443 -0.073381,-0.0656 -0.00912,-0.008 -0.0336,-0.0249 -0.040308,-0.0284 z m 14.1366045,1.36839 v 5.3e-4 5.2e-4 10e-4 c 0.01171,-8e-5 0.02801,0 0.05064,0 h 0.485241 0.398943 1.351855 V 107.747 H 22.092183 21.69324 21.316003 c -0.08372,0.0183 -0.17069,0.0239 -0.2558,0.0351 -0.109868,0.0145 -0.219377,0.02 -0.329179,0.0196 -0.05022,0.006 -0.129998,0.0102 -0.167948,0.017 -0.16701,0.0313 -0.333566,0.071 -0.504362,0.076 -0.08108,0.003 -0.162325,-0.005 -0.243396,-0.007 -0.04822,-0.0113 -0.04153,-0.01 -0.07752,-0.0181 l -5.29e-4,0.005 c -0.259092,-0.067 -0.227143,-0.06 5.29e-4,-0.005 l 0.196889,-2.20865 c 0.0019,-2.6e-4 0.0038,-4e-5 0.0057,-5.3e-4 -0.0019,3e-5 -0.0038,-5e-5 -0.0057,0 -0.01872,0.003 -0.03753,0.006 -0.05633,0.008 l -5.3e-4,-5.3e-4 c 0.0022,-0.002 0.0114,-0.006 0.0155,-0.007 0.01368,-7.9e-4 0.02764,-10e-4 0.04134,-0.002 l 0.0016,-0.016 c 0.02832,0.005 0.0212,0.004 0.04599,0.009 0.220232,-0.0379 0.436508,-0.0963 0.663525,-0.092 0.05036,0.008 0.05469,-0.002 0.123507,5.3e-4 0.0058,0.001 0.0087,0.0109 0.01447,0.0104 0.422558,-0.0576 0.291625,-0.0641 0.373621,-0.0646 z m -15.0373247,0.0522 c -0.023821,0.0373 -0.046731,0.0752 -0.07183,0.11163 -0.025162,0.0365 0.068088,-0.0651 0.07183,-0.11163 z m 13.8963097,0.10129 c 0.288889,0.0558 0.330585,0.0647 0.02274,0 -0.0076,0 -0.01516,10e-6 -0.02274,0 z m -15.3329144,0.14728 c -0.2302878,0.005 -0.6357221,0.0928 -0.4718058,0.12092 0.2921738,0.0502 0.4988808,0.0757 0.646472,0.0847 0.1821879,-0.21731 -0.035047,0.0404 0.1219566,-0.15503 -0.074144,-0.0231 -0.1460403,-0.0392 -0.2108402,-0.0475 -0.023564,-0.003 -0.052884,-0.004 -0.085783,-0.003 z m 0.2914549,0.13228 c -0.024117,0.006 -0.068256,0.0418 -0.104903,0.0744 0.1741095,0.0102 0.2619808,-0.003 0.3012736,-0.0243 -0.030806,-0.0151 -0.061766,-0.0299 -0.092501,-0.045 -0.020328,-0.01 -0.054995,5.3e-4 -0.079582,0.002 -3.704e-4,1e-5 -6.615e-4,-1e-5 -0.00103,0 -0.017761,0.006 -0.035466,0.0117 -0.053227,0.0171 0.0088,-0.006 0.029563,-0.0137 0.037724,-0.0191 -0.00294,-10e-4 -0.00582,-0.002 -0.00775,-0.005 z m 0.7844483,0.007 c -3.175e-4,7.9e-4 -8.466e-4,0.003 -0.00103,0.007 -2.278e-4,0.005 -2.91e-4,0.009 -5.291e-4,0.014 0.00122,0.001 0.00241,0.002 0.00362,0.004 -6.085e-4,-0.0137 -0.00132,-0.0257 -0.00206,-0.0248 z m -0.00206,0.0398 c -0.00122,0.0282 -0.00268,0.0575 -0.00362,0.0858 6.879e-4,-8e-4 0.00138,-5.3e-4 0.00206,-0.002 5.291e-4,-0.002 0.00103,-0.004 0.00156,-0.006 0.00402,-0.0161 0.00498,-0.047 0.00465,-0.0734 -0.00143,-0.001 -0.00317,-0.002 -0.00465,-0.004 z m 1.639693,0.22634 c -0.039791,0.0873 -0.069693,0.16302 -0.097152,0.23358 0.032546,-0.078 0.064609,-0.15558 0.097152,-0.23358 z m -1.6526124,0.11885 c -5.291e-4,0.01 -0.0013,0.0205 -0.00259,0.032 0.028756,0.0399 0.058212,0.0793 0.090434,0.11628 0.040704,0.0467 -0.026657,-0.074 -0.08785,-0.14832 z m -0.020153,0.16899 c -0.00647,0.0658 -0.00668,0.13103 0.016021,0.16898 0.00327,-0.0589 -0.00281,-0.11543 -0.016021,-0.16898 z m 1.2784709,0.3697 c -0.030405,0.0444 -0.061064,0.0889 -0.091467,0.13333 0.041849,-0.0328 0.075203,-0.0748 0.091467,-0.13333 z m -0.094051,0.12403 c 2.59e-5,-5.3e-4 3.44e-4,-10e-4 -0.00103,5.3e-4 -0.00545,0.008 -0.011107,0.0162 -0.016536,0.0237 0.00351,-0.002 0.00693,-0.005 0.010335,-0.007 0.00328,-0.007 0.00605,-0.0133 0.00723,-0.0165 z m -2.7848428,0.85731 c 0.018381,0.0173 0.038969,0.0315 0.063045,0.0403 -0.020286,-0.0129 -0.041418,-0.0263 -0.063045,-0.0403 z" /></clipPath><clipPath
       clipPathUnits="userSpaceOnUse"
       id="clipPath6612"><path
         id="path6614"
         style="fill:#ff0000;fill-opacity:1;fill-rule:nonzero;stroke:none;stroke-width:0.264583"
         d="m 137.505,120.72033 -3.26099,-102.513979 -37.038956,1.178219 3.007996,94.56035 c 0.009,-0.0112 0.0189,-0.0225 0.0284,-0.0335 0.0365,-0.042 0.10897,0.0216 0.16295,0.0352 0.22795,0.0571 0.4508,0.13545 0.68059,0.18464 0.20132,0.0431 0.42536,0.0568 0.63006,0.0751 l -0.16783,1.1278 c -0.22568,-0.0182 -0.39246,-0.0268 -0.62591,-0.0747 -0.16642,-0.0341 -0.32975,-0.0832 -0.49415,-0.12595 -0.0276,-0.007 -0.0549,-0.0147 -0.0824,-0.0222 -0.0292,0.005 -0.0613,0.007 -0.0944,0.007 l 0.21568,6.78014 z m -29.91489,-5.86073 -5.3e-4,2e-5 c -0.008,7.8e-4 -0.0161,3.8e-4 -0.0243,7.7e-4 -0.0125,6e-4 -0.0252,0.001 -0.0377,0.001 -0.0276,-0.002 -0.0545,-0.006 -0.0816,-0.0124 -0.0127,-0.003 -0.0261,-0.004 -0.0381,-0.0102 -0.002,-9.2e-4 0.004,-0.003 0.006,-0.004 -0.003,-4.8e-4 -0.005,-7.6e-4 -0.008,-7.7e-4 -0.052,0.007 -0.0565,0.01 -0.11657,0.009 -0.0418,-2.4e-4 -0.17904,-0.0118 -0.20206,-0.0132 -0.0578,-0.004 -0.1157,-0.007 -0.17352,-0.01 -0.0452,-0.003 -0.0905,-0.005 -0.13572,-0.008 -0.008,-0.038 -0.0174,-0.0762 -0.0269,-0.11391 -0.0184,-0.004 -0.033,-0.005 -0.0312,0.0108 -0.0903,-0.002 -0.10724,1.4e-4 -0.20046,-0.0117 -0.0137,-0.002 -0.0271,-0.006 -0.0406,-0.009 -0.0506,-0.01 -0.10176,-0.0176 -0.15342,-0.0122 l -0.005,-0.14876 -0.0175,-0.0801 c -0.003,9.4e-4 -0.003,-8.4e-4 -6.6e-4,-0.004 l -0.0308,-0.13862 c 0.0884,-0.0126 0.17625,-0.0285 0.26376,-0.0461 0.0374,-0.0159 0.0765,-0.0277 0.1156,-0.0393 l -0.003,-0.14571 c 0.0173,-1e-4 0.0344,-0.002 0.0516,-0.003 0.0378,-0.002 0.0683,-0.001 0.10611,0.004 0.002,1.9e-4 -0.006,-1e-4 -0.005,1.7e-4 0.064,0.0111 0.0227,-6.5e-4 0.0776,0.0172 0.007,0.005 0.0141,0.009 0.0211,0.0138 l 5.3e-4,-1e-5 c 0.0103,5.2e-4 0.0206,0.002 0.0292,0.007 0.002,0.001 0.004,0.002 0.006,0.004 0.0144,-0.003 0.0251,-0.004 0.0612,-0.0107 0.0272,-0.006 0.0544,-0.0115 0.0816,-0.0176 0.0197,-0.004 0.0387,-0.0101 0.0585,-0.0143 0.0113,-0.002 0.023,-0.004 0.0345,-0.005 0.0383,-0.005 0.0759,-0.009 0.11454,-0.008 0.0612,-9.9e-4 0.12256,-0.0122 0.18389,-0.005 0.0148,0.002 0.0294,0.004 0.0442,0.007 0.0386,0.007 0.0743,0.0262 0.11484,0.0181 0.0632,-0.003 0.12724,-0.007 0.19023,-8.8e-4 0.0151,-0.002 0.0207,-0.003 0.0232,-0.003 0.001,-5.9e-4 0.009,-0.003 0.0426,-0.009 0.0217,-0.004 0.0595,-0.0136 0.0871,-0.0105 0.001,1.1e-4 -0.004,0.002 -0.003,0.002 0.002,2.2e-4 0.005,-7.6e-4 0.008,-7.7e-4 0.0252,-0.006 0.051,-0.0126 0.0771,-0.0149 0.006,-0.005 0.0112,-0.0103 0.0176,-0.0145 0.0281,-0.0183 0.0603,-0.0307 0.0929,-0.0386 0.13078,-0.0319 0.24991,-0.0132 0.36908,0.0462 0.0299,0.0149 0.0569,0.0347 0.0854,0.0521 -0.0154,0.0871 -0.0151,0.17831 -0.0465,0.26102 -0.007,0.0178 -0.0375,0.008 -0.0566,0.009 -0.0343,0.002 -0.10504,-0.003 -0.13672,-0.007 -0.0257,-0.003 -0.0278,7.5e-4 -0.0204,-0.006 1.7e-4,-0.001 0,-0.003 9.3e-4,-0.004 0.005,-0.005 0.0232,-0.0175 0.0166,-0.014 -0.0103,0.006 -0.0185,0.0136 -0.0283,0.02 -0.003,0.002 -0.007,0.003 -0.0102,0.005 -0.008,0.005 -0.0138,0.01 -0.0182,0.013 -0.005,0.005 -0.008,0.008 -0.0201,0.0172 -0.0121,0.009 -0.0261,0.0175 -0.0374,0.0281 -0.004,0.004 -0.009,0.009 -0.0125,0.0133 -0.002,0.0176 -0.006,0.035 -0.0118,0.0521 0.0577,0.008 0.13567,0.0243 0.13025,0.0636 -0.0117,0.0849 -0.0921,0.14289 -0.1458,0.21145 0.01,0.002 0.0187,0.006 0.0262,0.01 0.008,0.005 -0.0176,3e-5 -0.0264,-7.2e-4 -0.002,-1.5e-4 -0.004,-6.5e-4 -0.006,-8.5e-4 -0.002,0.003 -0.004,0.006 -0.006,0.008 -0.0849,-0.006 -0.16825,-0.0236 -0.25153,-0.0406 -0.0615,0.0441 -0.13103,0.072 -0.20392,0.0908 -0.0128,0.002 -0.026,0.003 -0.0386,0.007 -0.0711,0.0195 -0.0163,0.0126 -0.11783,0.0343 -0.003,5.4e-4 -0.005,7.2e-4 -0.008,7.5e-4 z m 8.43455,-0.28278 c -0.024,9.2e-4 -0.0394,0.001 -0.0858,0.001 -0.019,5.1e-4 -0.0378,0.002 -0.0568,0.003 -0.41199,0.0201 -0.45743,-0.61638 -0.0474,-0.66132 0.0206,-0.002 0.0406,-0.006 0.0613,-0.007 0.0237,-4.4e-4 0.0478,0.005 0.0715,0.004 0.0226,-0.001 0.0444,-0.008 0.0669,-0.0104 0.0234,-0.002 0.0473,7.3e-4 0.0708,-0.003 0.0433,-0.004 0.0856,-0.0118 0.1287,-0.0175 0.0214,-10e-4 0.0431,-0.003 0.0645,-0.004 0.021,8.1e-4 0.0422,0.004 0.0632,0.003 0.0202,-9.6e-4 0.0396,-0.006 0.0597,-0.008 0.0573,-0.006 0.11237,-0.006 0.16956,-7.4e-4 0.0176,-0.003 0.0351,-0.009 0.0529,-0.01 0.0173,-0.001 0.0349,0.003 0.0523,0.002 0.0166,-8.4e-4 0.0323,-0.006 0.0489,-0.007 0.0166,-8.2e-4 0.0336,0.002 0.0502,0.002 0.0765,-0.002 0.0634,-0.004 0.0505,-0.005 0.007,2.5e-4 0.0181,5.4e-4 0.0512,9.6e-4 0.0471,0.005 0.094,-0.005 0.14098,-0.005 0.0152,-1.1e-4 0.0304,0.003 0.0456,0.002 0.0495,-0.004 0.0512,-0.008 0.0472,-0.0103 0.006,5.5e-4 0.017,-3.2e-4 0.044,0.003 0.0159,0.002 0.0317,0.006 0.0477,0.005 0.0154,-6.7e-4 0.0305,-0.006 0.0457,-0.009 0.0148,-0.003 0.0293,-0.006 0.0442,-0.007 0.13944,-0.0144 -0.0499,0.006 0.0887,0.008 0.0146,1.7e-4 0.0287,-0.006 0.0431,-0.009 0.0271,0.002 0.0371,0.003 0.0425,0.003 -0.009,-0.002 -0.0179,-0.005 0.0385,-0.008 0.0129,-7.3e-4 0.0254,0.004 0.0384,0.004 0.0126,-2e-4 0.025,-0.004 0.0376,-0.005 0.033,-0.002 0.0363,-0.001 0.0679,0.006 0.0225,0.004 0.0284,0.005 0.0296,0.005 -4.6e-4,-9.9e-4 -7e-4,-0.007 0.0264,-0.0138 0.009,-0.002 0.0183,-1.3e-4 0.0274,-3.4e-4 0.4139,-0.0105 0.4339,0.62932 0.0211,0.66474 -0.009,7.9e-4 -0.0182,0.003 -0.0273,0.002 -0.0203,-2e-4 -0.0251,-10e-4 -0.0264,-0.002 l -5.2e-4,-5.1e-4 c -0.002,2.5e-4 -0.008,0.001 -0.0293,0.006 -0.0195,0.002 -0.0285,0.003 -0.0319,0.004 0.003,-9.9e-4 0.006,-0.005 -0.0359,-0.007 -0.0506,-0.003 -0.10579,0.0133 -0.15709,0.003 -0.0579,7.1e-4 -0.0292,-0.003 -0.0865,0.01 -0.18075,0.01 0.0908,-0.0196 -0.0896,-0.005 -0.0153,9.9e-4 -0.0299,0.007 -0.0452,0.008 -0.0159,8.8e-4 -0.0318,-0.002 -0.0477,-0.003 -0.0831,0.028 -0.008,0.0133 -0.0915,-7.1e-4 -0.0576,-0.01 -0.0341,0.008 -0.09,0.0142 -0.0152,0.002 -0.0304,-0.003 -0.0456,-0.004 -0.0164,-3.2e-4 -0.0328,-7.3e-4 -0.0491,0.002 -0.0392,0.006 -0.0604,0.0103 -0.1,0.0109 -0.0162,2.7e-4 -0.0319,-0.002 -0.0481,-0.002 -0.0161,3.6e-4 -0.0324,0.004 -0.0485,0.004 -0.0168,3.4e-4 -0.0335,-0.002 -0.0502,-0.002 -0.017,4.8e-4 -0.0336,0.004 -0.0505,0.005 -0.0696,0.005 -0.0347,0.005 -0.10548,-2.6e-4 -0.0184,0.001 -0.0357,0.008 -0.054,0.0105 -0.058,0.008 -0.11645,10e-4 -0.17449,0.008 -0.0208,-5e-4 -0.0413,-0.003 -0.0621,-0.002 -0.0342,0.002 -0.1078,0.0156 -0.14054,0.019 -0.029,0.003 -0.047,0.005 -0.0614,0.005 z m -9.22616,0.23248 c 10e-4,-2.6e-4 0.003,-6e-4 0.005,-6.9e-4 -0.003,5e-5 -0.007,1.9e-4 -0.0103,3.2e-4 -0.002,6e-5 0.003,6e-4 0.005,3.8e-4 z m 0.0514,-0.28549 c 0.002,-0.007 0.004,-0.0135 0.006,-0.0203 -0.003,-5.1e-4 -0.007,-0.001 -0.01,-0.002 -8.3e-4,0.007 -0.002,0.0148 -0.003,0.0223 0.002,9e-5 0.005,1.2e-4 0.007,2.7e-4 z m 1.34644,-0.24033 c 0.0131,-0.005 0.024,-0.0142 0.036,-0.0213 -0.007,0.002 -0.014,0.004 -0.021,0.007 -0.006,0.003 -0.0213,0.0162 -0.0151,0.0139 z m 0.32157,-0.21187 -1e-5,-5.3e-4 c -5.3e-4,2e-5 -10e-4,4e-5 -0.002,7e-5 8.1e-4,4.3e-4 0.002,1.8e-4 0.002,4.4e-4 z m -0.002,-4.4e-4 c -0.002,-10e-4 -0.005,-0.003 -0.006,-10e-4 -2.3e-4,7.2e-4 -7.7e-4,5.8e-4 -0.001,0.002 0.002,-3e-5 0.005,-1.3e-4 0.007,-2.1e-4 z m -1.63637,0.0329 -2e-5,-5e-4 c -0.001,-5.5e-4 -0.003,-8e-4 -0.004,-9e-4 -0.002,-6.8e-4 -0.008,-1.5e-4 -0.006,1.9e-4 0.003,5.9e-4 0.006,10e-4 0.01,10e-4 z m -6.27896,0.0751 c 0.003,-0.004 0.005,-0.007 0.008,-0.0111 -0.002,-0.003 -0.005,-0.006 -0.007,-0.008 -6e-5,0.006 -9.2e-4,0.0128 -9.8e-4,0.0192 z m 14.81857,-10.253 -5.3e-4,2e-5 -0.002,6e-5 c -0.006,3.1e-4 -0.0124,6e-4 -0.0186,5.9e-4 -0.1154,-1.5e-4 -0.23083,-0.0527 -0.29726,-0.17771 -0.15554,-0.29274 -0.06,-0.12335 -0.24139,-0.42093 -0.0265,-0.0435 -0.054,-0.10499 -0.0917,-0.15271 -0.0277,-0.0183 -0.0579,-0.0345 -0.0749,-0.0623 -0.0434,-0.0712 -0.0691,-0.15236 -0.0927,-0.23229 -0.008,-0.0285 -0.004,-0.0592 -0.002,-0.0889 4.9e-4,-0.0112 0.003,-0.0217 0.005,-0.0327 -7.1e-4,-6.4e-4 -0.002,-0.002 -0.002,-0.002 5.8e-4,-0.002 8.3e-4,-0.005 8.2e-4,-0.007 -0.002,-0.005 -0.004,-0.009 -0.006,-0.0138 0.002,-0.01 0.008,-0.0204 0.006,-0.0302 -0.002,-0.01 -0.0152,-0.0157 -0.0158,-0.0259 -9e-4,-0.0149 0.009,-0.0285 0.0115,-0.0433 0.007,-0.0483 0.0102,-0.0973 0.0155,-0.14578 0.0157,-0.0798 0.0252,-0.1453 0.0601,-0.2232 0.0511,-0.11405 0.12145,-0.19097 0.20874,-0.28066 0.03,-0.0308 0.0615,-0.0609 0.0965,-0.0858 0.0399,-0.0284 0.0851,-0.0489 0.12744,-0.0733 0.002,-0.002 0.11336,-0.0728 0.12967,-0.10081 0.004,-0.008 -0.0268,0.0205 -0.0239,0.0121 0.009,-0.0247 0.0297,-0.0434 0.0429,-0.066 0.023,-0.0392 0.0407,-0.0817 0.066,-0.11946 0.0455,-0.068 0.0975,-0.13174 0.14624,-0.19751 0.17363,-0.20121 0.1799,-0.20361 0.27041,-0.32502 0.18684,-0.48326 0.43123,-1.096116 0.54382,-1.286594 0.0121,-0.154402 0.16527,-0.326007 0.28668,-0.496157 0.0139,-0.01008 0.10864,-0.08333 0.20568,-0.149242 -0.0757,-0.01638 -0.11151,-0.05894 -0.0598,-0.155791 0.0659,-0.122892 0.0299,-0.08387 0.12396,-0.150263 0.008,-0.01266 0.017,-0.02501 0.0268,-0.03652 0.0252,-0.02938 0.0766,-0.04984 0.10397,-0.07983 -0.003,0.0032 -0.0111,0.01216 -0.008,0.0096 0.01,-0.0088 0.0204,-0.01739 0.0286,-0.02779 0.001,-0.0018 0.002,-0.0039 0.003,-0.0058 -0.0855,-0.03953 -0.12415,-0.0953 -0.0457,-0.185709 0.0307,-0.03544 0.0636,-0.08026 0.10466,-0.106734 0.0134,-0.0087 0.0302,-0.01164 0.0444,-0.01899 0.0161,-0.0083 0.006,-0.05029 0.0386,-0.03794 0.0328,-0.01854 0.0637,-0.04145 0.0985,-0.05587 0.056,-0.02316 0.11491,-0.03729 0.17245,-0.05615 0.004,0.0017 0.009,0.0053 0.0136,0.0047 0.006,-6.94e-4 0.0102,-0.0073 0.0163,-0.0083 0.025,-0.0038 0.051,0.01059 0.0754,-0.0045 0.0618,4.17e-4 0.0874,-0.0011 0.15533,0.007 0.019,0.0023 0.0371,0.01229 0.0562,0.01114 0.005,-2.92e-4 -0.006,-0.01454 -9.9e-4,-0.01445 0.0332,6.64e-4 0.0629,0.02204 0.0968,0.02019 0.028,0.0072 0.0563,0.01269 0.0839,0.02111 0.002,6.25e-4 0.002,0.0052 0.004,0.0055 0.0165,0.0041 0.0338,0.0045 0.0504,0.0082 0.01,0.0021 0.0185,0.0069 0.0282,0.0089 0.12611,0.027 0.1202,0.0211 0.26054,0.03101 0.31651,0.02233 0.31578,0.432828 0.11456,0.594555 0.022,0.03212 0.045,0.06367 0.0626,0.09831 0.0156,0.03073 0.0215,0.06554 0.028,0.09941 0.005,0.02825 0.0108,0.05765 0.007,0.08612 -0.0147,0.107446 0.012,0.240327 -0.0628,0.318933 -0.0833,0.0876 -0.22941,0.07578 -0.3449,0.112308 0.0235,0.0016 0.047,0.0031 0.0705,0.005 0.003,1.96e-4 0.0105,5.93e-4 0.008,0.0013 -0.0115,0.0029 -0.0232,0.0031 -0.035,0.0047 -0.12685,0.01824 -0.0558,0.0065 -0.21434,0.03991 -0.003,-1.59e-4 -0.008,-5.13e-4 -0.0119,-6.54e-4 -0.0533,0.08109 -0.0938,0.144087 -0.16646,0.195561 -0.0488,0.09115 -0.096,0.183257 -0.14273,0.275467 -0.20671,0.40772 -0.22737,0.44666 -0.30156,0.6295 0.0111,0.0252 0.0213,0.0508 0.0309,0.0766 0.0283,0.0133 0.0572,0.0255 0.0869,0.0345 0.0348,0.0106 0.0557,-0.047 0.0836,-0.0704 -0.0429,0.0566 -0.0856,0.11394 -0.12849,0.17057 5.9e-4,0.002 6.1e-4,0.005 0.002,0.007 0.0181,0.0739 -0.084,0.12575 -0.12896,0.18817 -0.0132,0.0591 -0.0424,0.12205 -0.0789,0.18398 0.005,0.0638 -0.0402,0.11731 -0.10324,0.1677 -0.0143,0.0192 -0.0298,0.0373 -0.0475,0.0522 -0.0204,0.0277 -0.0401,0.0544 -0.0559,0.0778 -0.12431,0.18021 -0.29825,0.43981 -0.42561,0.33823 -0.24324,0.25162 -0.48531,0.45886 -0.85284,0.28409 -0.0571,0.0442 -0.12114,0.0807 -0.17319,0.13063 0.0178,0.0226 0.0318,0.0399 0.035,0.0439 0.13935,0.17841 0.1858,0.23176 0.32439,0.3971 0.17453,0.20822 0.0138,0.46737 -0.19092,0.53189 0.0191,0.0369 0.0221,0.0341 0.0773,0.13972 l -5e-4,2e-5 c 0.12064,0.23096 -0.079,0.41628 -0.29088,0.42907 z m -0.66286,-0.76479 5.1e-4,-5.1e-4 c -0.004,-0.005 -0.009,-0.01 -0.0134,-0.0135 -7.9e-4,-7.7e-4 -9e-5,0.002 6e-4,0.003 0.004,0.004 0.008,0.007 0.0122,0.011 z m -0.14927,-0.40163 c -3.3e-4,-0.002 -9.2e-4,-0.003 -0.002,-0.005 -2.9e-4,9.8e-4 -6.1e-4,0.003 -9e-4,0.004 0.002,8.3e-4 0.002,0.002 0.003,9.3e-4 z m -0.002,-0.006 c 7e-4,-0.003 0.002,-0.006 0.002,-0.009 4.9e-4,-0.003 0.002,-0.0105 0.002,-0.0125 l -0.001,4e-5 c -0.002,0.006 -0.004,0.0112 -0.005,0.0172 l -5.3e-4,2e-5 c 4.3e-4,0.001 0.002,0.002 0.002,0.004 z m 3.25896,-3.70269 c 0.002,-0.0014 0.006,-0.0031 0.008,-0.0044 -0.0254,0.0045 -0.0207,0.0021 -0.008,0.0044 z m 0.37383,-0.08066 c 0.006,0.0014 4e-5,-0.0025 -0.0176,-0.01754 -0.007,0.0023 -0.0128,0.0036 -0.02,0.0058 0.0194,0.0057 0.0328,0.01064 0.0376,0.01173 z" /></clipPath></defs><sodipodi:namedview
     inkscape:document-rotation="0"
     showguides="true"
     inkscape:window-maximized="1"
     inkscape:window-y="-9"
     inkscape:window-x="2391"
     inkscape:window-height="1351"
     inkscape:window-width="2560"
     inkscape:measure-end="0,0"
     inkscape:measure-start="0,0"
     showgrid="false"
     inkscape:current-layer="layer3"
     inkscape:document-units="mm"
     inkscape:cy="464.65754"
     inkscape:cx="44.90128"
     inkscape:zoom="5.6568543"
     inkscape:pageshadow="2"
     inkscape:pageopacity="0.0"
     borderopacity="1.0"
     bordercolor="#666666"
     pagecolor="#ffffff"
     id="base"
     inkscape:showpageshadow="2"
     inkscape:pagecheckerboard="0"
     inkscape:deskcolor="#d1d1d1"
     inkscape:export-bgcolor="#00000000" /><metadata
     id="metadata5"><rdf:RDF><cc:Work
         rdf:about=""><dc:format>image/svg+xml</dc:format><dc:type
           rdf:resource="http://purl.org/dc/dcmitype/StillImage" /></cc:Work></rdf:RDF></metadata><g
     inkscape:groupmode="layer"
     id="layer3"
     inkscape:label="copper"
     style="display:inline"
     clip-path="url(#clipPath5530)"
     transform="translate(-0.27375633,-0.25889986)"><path
       id="path642-9-6"
       clip-path="url(#clipPath6612)"
       style="display:inline;fill:#9df7fb;fill-opacity:1;stroke:none;stroke-width:0.14491;stroke-dasharray:none;stroke-opacity:1"
       d="m 134.02748,21.694103 c -0.18756,0.837213 -0.12082,0.580504 -0.21719,1.226914 -0.23523,0.972842 0.004,-8.44e-4 -0.2319,0.974741 l -1.0772,3.762337 c -0.42539,0.659355 -0.15757,1.509985 -0.58523,2.189561 0.2234,0.889726 -0.52186,1.621365 -0.5254,2.50586 -0.99344,4.165371 0.83731,-0.15661 1.75761,-5.76697 0.25726,-0.400924 0.3683,-0.131494 0.35574,0.237146 -0.0948,2.782414 -0.20798,7.596624 -0.22078,8.236855 -0.25851,0.763074 -0.07,1.574935 -0.39258,2.335937 -0.0358,0.444968 -0.0344,1.073677 -0.0156,1.601563 0.30629,0.655415 -0.14963,1.380806 0.10156,2.076172 -0.12665,0.647267 -0.0418,1.3059 0.11914,1.923828 -0.0208,0.682053 0.2345,1.363856 0.0601,2.043677 0.0308,1.34438 0.12608,2.707265 -0.0665,4.039735 0.0697,0.9769 0.0357,1.98176 -0.0753,2.973977 -0.0436,0.858922 0.17014,1.69246 0.11101,2.54222 0.17523,1.044988 0.25173,2.11986 0.14037,3.174995 0.0556,0.893129 -0.0628,1.772213 0.012,2.664849 -0.22082,0.684134 0.42202,1.396315 -0.0664,2.039062 -0.12095,0.720657 0.10303,1.426679 -0.0738,2.176659 -0.0781,0.697963 0.0427,1.380751 0.32828,2.005292 0.0505,0.563045 0.36756,1.022238 0.36173,1.606153 0.0764,0.764484 0.47173,1.456393 0.31937,2.243146 -0.1108,0.908805 -0.088,1.833535 0.1114,2.715161 0.0564,0.687334 0.12282,1.375436 -7e-5,2.056324 0.15226,0.765738 -0.33388,1.448445 -0.18359,2.210937 -0.11529,0.681229 -0.64782,4.974012 -0.55072,5.209161 0.41425,-0.105543 0.55868,-4.082876 0.6347,-4.466973 0.31764,-0.721436 -0.0186,-1.52206 0.33008,-2.22461 0.0154,-0.608153 -0.0498,-1.196842 0.0781,-1.800781 -0.0538,-0.498391 -0.14452,-0.964653 -0.11133,-1.46289 -0.27633,-0.519063 -0.22593,-1.051341 -0.0965,-1.607282 0.13701,-0.571143 -0.18283,-1.110967 -0.007,-1.681781 -0.0196,-0.516365 -0.53213,-0.812685 -0.38867,-1.373047 0.14553,-0.548364 -0.33832,-0.953135 -0.36563,-1.402035 0.27804,-0.527351 -0.11436,-0.735733 -0.27821,-1.037814 0.0436,-1.033614 0.10514,-2.062328 0.0607,-3.089269 0.0655,-0.47334 0.55077,-1.079237 -0.0361,-1.423589 -0.17858,-0.458809 0.49152,-1.125347 0.0645,-1.623465 -0.25904,-0.510281 0.2918,-1.125955 0.11621,-1.700482 -0.22902,-0.687021 0.26839,-1.440762 -0.0928,-2.131549 0.10482,-0.708047 -0.32462,-1.413336 -0.0508,-2.117187 -0.27228,-0.521102 -0.28856,-1.08834 -0.15625,-1.648438 -0.11539,-0.69958 0.007,-1.397237 0.15234,-2.033203 -0.14698,-0.512541 -0.21942,-0.985177 -0.008,-1.494305 0.14725,-0.459504 -0.31125,-0.836569 0.0261,-1.27132 0.0537,-0.537717 -0.1392,-1.054598 -0.022,-1.590031 -0.10283,-0.569908 0.012,-1.143127 0.0284,-1.698717 -0.14203,-0.650463 -0.22468,-1.290149 -0.34769,-1.942053 0.0985,-0.579461 0.17161,-1.153087 0.065,-1.744398 0.10727,-0.537826 0.041,-1.053552 -0.0752,-1.585348 -0.0844,-0.788415 0.0428,-1.570038 0.29059,-2.326283 0.004,-0.529794 0.0404,-1.026986 0.21136,-1.540904 0.008,-0.651949 -0.0653,-1.288392 -0.13672,-1.94336 0.12931,-0.499284 0.16483,-1.000057 0.14063,-1.519531 0.0238,-0.768404 -0.053,0.794785 0.15363,-1.677452 0.0683,-0.577722 0.12233,-1.15718 0.12422,-1.530127 0.0396,-0.821685 -0.10221,-1.646863 0.0483,-2.448702 -0.0401,-0.391785 -0.12328,-0.800224 0.006,-1.183594 0.17305,0.625829 0.0204,-0.459713 0.0879,-0.77539 0.0659,-0.546924 0.10378,-1.063965 0.14326,-1.614287 0.1854,-0.667019 0.004,-0.0012 0.25162,-0.943848 z m -1.96493,14.854572 c 0.72472,-0.521004 0.16763,-2.949761 0.17324,-2.471062 8.2e-4,0.06997 -0.32332,1.465233 -0.41414,2.121054 0.021,0.08613 0.2198,0.263874 0.2409,0.350008 z m -0.83599,5.679841 c -0.57586,0.613039 -0.11069,1.502888 -0.32624,2.247143 -0.13342,0.733247 -0.20381,1.457299 -0.33587,2.19231 0.46409,0.0822 0.19057,-0.864462 0.38638,-1.180265 0.16706,-1.08891 0.40666,-2.182665 0.33433,-3.290438 z m -2.70962,0.828549 c -0.10275,0.603659 -0.72451,2.172678 -0.37744,2.676616 0.004,-0.659656 0.91373,-2.087682 1.02162,-2.725783 l -0.46763,-0.123851 z m -0.47238,2.519644 c -0.0734,0.324948 -0.45009,0.871191 -0.57292,1.2631 0.37997,-0.06389 0.67722,-0.91983 0.68501,-1.257874 0.0181,-0.258165 -0.0849,-0.190306 -0.0941,-0.0848 z m -1.52308,4.86665 c -0.20473,0.437746 -0.66109,0.965078 -0.43945,1.40625 0.0847,-0.560341 0.43644,-0.708697 0.58312,-1.202726 -0.0766,-0.206392 -0.0854,-0.24083 -0.14367,-0.203524 z m 3.40235,-0.04297 c -0.1034,1.040709 -0.48384,2.053567 -0.5293,3.089843 0.0986,0.35238 0.39728,1.327268 0.50802,0.460975 0.0944,-0.627021 -0.24416,-1.248861 -0.008,-1.882069 0.0563,-0.535765 0.29534,-1.262973 0.20291,-1.680468 -0.0529,0.01367 -0.17694,-0.105177 -0.17383,0.01172 z m -0.20313,6.427734 c 0.12245,-0.02587 0.008,-0.235291 0,0 z m -0.78515,1.271484 c -0.45209,0.882958 -0.11558,2.040075 -0.73453,2.88067 0.0517,0.528073 0.15973,1.14973 0.0386,1.727786 -0.11987,0.834434 -0.32078,1.649599 -0.51673,2.467779 -0.0671,0.245454 -0.10601,0.104067 -0.0744,0.453062 0.0213,0.785606 0.0926,1.78376 -0.67774,2.251953 0.38947,0.646073 0.17781,1.435576 0.082,2.126953 0.43945,-0.0085 0.14053,-0.837563 0.55062,-1.079596 0.20888,-0.314164 0.53717,-0.688414 0.19353,-1.01806 -0.26343,-0.961797 0.36525,-1.869042 0.48437,-2.802734 -0.17332,-1.00982 -0.15736,-2.219387 0.63223,-2.981238 0.19158,-0.302001 -0.50085,-0.727675 -0.19278,-1.163293 0.12588,-0.493952 0.0119,-1.145855 0.52149,-1.46875 0.54497,-0.510903 -0.44223,-0.507915 -0.30664,-1.087891 -0.0502,-0.06366 0.14799,-0.500412 0,-0.306641 z m -5.25802,0.87306 c -0.13447,1.175262 -0.56405,2.236615 -0.86112,3.369128 -0.32218,0.634926 -0.36824,1.381566 -0.67432,2.01972 -0.0213,0.71218 -0.77679,1.200923 -0.72154,1.93207 -0.10181,0.67535 -0.53821,1.226227 -0.53709,1.930071 -0.12132,0.611723 -0.57495,1.035789 -0.70473,1.649683 -0.42326,0.862072 -0.62582,1.830103 -1.07823,2.677622 -0.5304,0.452059 -0.53724,1.183186 -0.97157,1.710569 -0.4231,0.678548 -0.83731,1.34702 -1.20521,2.052712 -0.0669,0.652612 -0.31559,1.187821 -0.48534,1.818132 -0.29557,0.535327 -0.69854,1.048443 -0.93796,1.620697 -0.20943,0.506121 -0.20507,1.065269 -0.4848,1.535989 -0.0732,0.536868 -0.59062,0.914529 -0.71874,1.46875 -0.29707,0.554367 -0.37137,0.803253 -0.759,1.312373 0.47343,0.107706 0.62493,-0.238506 0.82152,-0.459195 0.24856,-0.872026 0.66443,-1.424725 1.09117,-2.199213 0.52662,-1.228928 0.82908,-2.539764 1.55529,-3.667636 0.17321,-0.778108 0.38168,-1.549302 0.80078,-2.228516 0.42478,-0.851707 0.95542,-1.607144 1.37108,-2.455084 0.51933,-0.584001 0.48334,-1.463833 0.94847,-2.060147 0.25714,-0.715924 0.52555,-1.426094 0.83084,-2.119535 0.31138,-0.601706 0.2473,-1.365981 0.647,-1.942791 0.30375,-1.388148 1.05071,-2.631422 1.24021,-4.046056 0.3923,-0.498221 0.24535,-1.253719 0.59521,-1.786543 0.18614,-0.844671 0.55295,-1.632298 0.64258,-2.498047 -0.25576,-0.311395 -0.32589,0.229201 -0.4045,0.365247 z M 125.25,78.703125 c -0.15149,0.610165 -0.29898,1.221491 -0.44922,1.832031 -0.4012,-0.657588 -0.37456,0.4114 0.14453,0.166016 0.42211,0.225406 0.66501,-0.05553 0.40039,-0.433594 -0.15862,-0.616658 0.13392,-1.24329 0.44922,-1.755859 -0.0219,-0.281372 -0.003,-0.916553 -0.36516,-0.628881 -0.0599,0.273429 -0.11984,0.546858 -0.17976,0.820287 z m 8.49919,2.984565 c -0.23779,0.480672 0.10148,0.357059 0,0 z m -0.0168,0.605279 c -0.003,0.08631 0.0307,-0.08142 0,0 z m -9.39453,0.3125 c 0.0851,0.806298 -0.39806,0.817793 -0.49082,1.035688 0.014,0.36614 0.62767,0.346245 0.73241,0.03774 0.32503,-0.381974 0.55503,-0.72317 0.21179,-1.066173 -0.12392,0.06596 -0.44861,-0.19833 -0.45338,-0.0073 z m 8.80859,2.080078 c -0.258,0.559228 0.13321,1.532087 -0.34338,1.998565 -0.0807,0.607294 0.64111,-0.606477 0.64417,-0.914581 -0.25478,-0.463297 0.0419,-2.992455 0.29246,-3.495895 -0.31333,-0.09153 -0.39157,0.688499 -0.47115,0.968649 z m -20.86328,1.697265 c -0.43646,0.515634 -0.5512,1.096977 -0.99156,1.598685 -0.23001,0.669173 -1.08279,1.10108 -1.1987,1.818415 -0.18411,0.529669 -0.10144,1.207583 -0.50891,1.63718 -0.30006,0.873281 -0.73868,1.588603 -1.07642,2.441433 -0.27894,0.683933 -0.70841,1.301117 -0.98041,1.97339 -0.79538,1.100278 -1.27413,2.353224 -1.56315,3.672159 -0.32217,0.908336 -0.40659,1.480766 -0.89569,2.105936 -0.50449,0.68246 -0.75032,1.51437 -1.02728,2.30756 -0.19319,0.6886 -0.49054,1.42092 -0.74767,2.07527 -0.3761,0.43396 -0.55071,0.89963 -0.64225,1.41643 -0.45154,1.11352 -0.71431,2.30529 -0.97269,3.47833 -0.29208,0.66755 -0.48304,1.39649 -0.63582,2.11483 -0.12485,0.24951 -0.001,1.45814 0.23592,0.78404 0.2393,-1.16645 0.72283,-2.25043 0.96718,-3.40929 0.1266,-1.20319 0.71538,-2.28418 0.99035,-3.45485 0.34103,-0.71791 0.71327,-1.39517 1.06982,-2.11314 0.33819,-0.8402 0.37482,-1.80148 0.83299,-2.56747 0.39475,-0.24003 0.33703,-0.99214 0.8086,-0.93945 -0.0272,-0.782 0.48086,-1.475562 0.62065,-2.223666 -0.0574,-0.567244 0.32835,-0.985985 0.48882,-1.524558 0.53519,-1.023177 1.22265,-1.983354 1.66909,-3.064491 0.51836,-1.109448 1.09275,-2.201595 1.58568,-3.31745 0.34072,-0.84724 0.35139,-1.865622 1.00294,-2.567105 0.31904,-0.78396 0.44574,-1.155535 0.95862,-1.837018 -0.0988,-0.156834 0.12092,-0.581706 0.0101,-0.40517 z m 10.35352,0.53711 c -0.45635,0.48967 -0.0214,1.156115 0.0234,1.714844 0.0239,-0.550816 0.38193,-1.000184 0.45703,-1.527344 -0.16046,-0.02688 -0.35289,-0.172337 -0.48047,-0.1875 z m 10.47206,-0.788089 c -0.33381,0.416566 -0.80966,2.553694 -1.08449,3.00304 0.11868,0.620904 -0.58732,2.639766 -0.43116,3.231036 0.19134,-0.471658 0.78978,-2.638603 0.94061,-3.165029 -0.0552,-0.482669 0.54087,-2.668573 0.57504,-3.069047 z m -11.38808,2.379886 c -0.16727,0.345164 -0.45804,2.273031 -0.58104,2.64017 0.5068,0.354152 1.00517,-1.958282 1.33495,-2.175327 -0.2448,-0.135138 -0.52499,-0.413548 -0.75391,-0.464843 z m 9.73047,3.119139 c -0.45468,0.358121 -0.41403,0.511978 0.0391,0.191407 0.30202,-0.131379 0.15601,-0.118757 -0.0391,-0.191407 z m -11.20898,0.304683 c 0.18508,0.390084 -1.16076,3.469036 -1.04331,3.712645 0.53954,0.422174 1.34766,-2.561956 1.53156,-2.831786 -0.50116,-8.45e-4 1.52385,-2.002861 0.88303,-2.574119 -0.39314,1.016406 -0.90636,1.512992 -1.37131,1.69326 z m 10.99414,0.923828 c -0.40231,0.662098 -0.4513,1.426811 -0.63086,2.152344 -0.30059,0.682724 -0.8994,1.112557 -0.85827,1.905089 -0.19335,0.612638 -0.48776,1.213201 -0.63113,1.824408 -0.72755,0.915938 -0.82037,2.14255 -1.52192,3.08277 -0.47524,0.9527 -0.88616,1.97839 -1.72696,2.68578 -0.57993,0.58732 -1.11671,1.0456 -1.48242,1.80078 -0.49883,0.66725 -1.38485,0.90239 -1.75782,1.68164 -1.02473,1.40593 -2.32152,2.5846 -3.41385,3.92232 -0.46547,0.44535 -1.71602,1.40089 -1.68825,1.64515 0.32523,0.16633 2.15577,-1.58166 2.82915,-2.52427 0.69231,-0.67646 1.19087,-1.54787 2.04053,-2.06469 0.53866,-0.46424 0.92944,-1.05792 1.49219,-1.48242 0.39151,-0.583 0.97549,-1.0177 1.11914,-1.74414 0.52936,-0.39458 1.16451,-0.83505 1.18359,-1.56641 0.48254,-0.27484 0.8794,-0.68227 1.01888,-1.21421 0.48032,-0.40935 0.53632,-1.05202 0.98894,-1.48305 0.27049,-0.45668 0.22499,-0.99573 0.55044,-1.42128 0.10063,-0.767988 0.69167,-1.309308 0.82609,-2.062518 0.18662,-0.539019 0.54314,-0.992548 0.49456,-1.592371 0.0901,-0.556716 0.70091,-0.796125 0.73754,-1.378435 0.13691,-0.444962 0.46208,-0.786911 0.34143,-1.280046 -0.0989,-0.645286 0.81231,-1.019205 0.43275,-1.652066 -0.11459,0.255208 -0.22917,0.510417 -0.34375,0.765625 z M 120.57422,92.46875 c -0.10938,-0.07051 0.135,-0.07836 0,0 z m -0.27539,0.324219 c -0.0226,0.01748 -2.5e-4,-0.08738 0,0 z m 0.0117,0.05664 c 0.002,0.02139 -0.0563,-0.05371 0,0 z m -1.77344,3.658203 c 0.30127,-0.451257 0.63446,0.397473 0.96567,0.07537 -0.60745,-0.383536 0.32923,-1.549175 -0.0551,-1.322901 -0.13217,0.40404 -1.15141,0.849717 -0.9106,1.247528 z m -3.92773,6.869138 c 0.66461,0.23462 0.2854,-1.12421 0.0445,-0.10103 l -0.0403,0.0915 z m -1.1221,1.02777 c -0.32598,0.64152 -0.36265,-0.10122 -0.48728,0.5777 -0.029,0.48113 -0.90482,2.85503 -1.34488,3.22471 -0.33153,0.59768 0.22001,0.3289 0.41211,-0.0723 0.28621,-0.24096 1.76718,-2.28078 1.5441,-2.72667 -0.17314,-0.47843 1.61321,-1.97473 1.1096,-2.15505 l -1.06103,1.06847 z m -2.4072,3.70856 c -0.14787,0.50103 -0.0642,1.12254 -0.54725,1.48387 -0.36198,0.46184 0.29349,0.60315 0.4957,0.079 0.12275,-0.41445 0.764,0.15641 0.7117,0.0152 -0.0184,0.0271 -0.0856,0.0383 -0.084,0.006 0.16546,0.40328 0.3935,-0.27894 0.0996,-0.63477 0.10019,0.0694 -1.26654,0.69445 -0.71619,0.0494 0.20026,-0.36314 0.37285,-0.66679 0.0404,-0.99859 z m 0.69726,1.52734 c 0.0138,-0.0306 0.11631,-0.12028 0,0 z m -1.2998,0.1929 c -0.14905,0.24323 -2.72312,3.66742 -2.50488,3.75828 0.56172,0.1849 2.51997,-3.31635 2.74597,-3.6272 z m -3.71777,5.10398 c -0.20765,0.4195 -0.65618,0.77755 -1.09766,0.63477 -0.335,0.68718 -0.84205,1.28579 -1.26367,1.83007 -0.11092,-0.2642 -0.2236,0.47409 0.0977,0.004 0.52111,-0.29645 0.89922,-0.80912 1.51563,-0.88086 0.19749,-0.58408 0.92908,-0.69827 1.29492,-1.0332 0.0155,-0.30379 -0.26044,-0.75341 -0.54687,-0.55469 z m -6.09961,0.37891 c -0.16429,0.60149 -0.25571,1.20084 -0.47878,1.79849 0.0233,0.79106 0.002,1.65845 0.36308,2.38607 0.0847,0.57583 0.75032,1.3436 0.26424,1.80818 0.36043,-0.11609 0.70894,-0.47202 0.8793,-0.22083 0.53392,-0.35895 -0.65782,-0.3773 -0.42554,-0.99441 -0.65593,-0.57042 -0.75574,-1.57007 -0.6916,-2.43563 -0.04,-0.69326 0.22101,-1.3779 0.21434,-2.07039 0.11308,-0.1829 0.16633,-0.65999 -0.125,-0.27148 z m 1.88086,3.16406 c 0.0326,0.35352 -0.0822,0.7686 -0.1543,1.14453 0.20263,0.12696 0.12867,1.16665 0.25195,0.36523 0.25033,-0.53279 0.46998,-0.69878 1.07027,-0.71763 0.31143,-0.39176 -0.18552,-0.68379 -0.50259,-0.42426 -0.28561,-0.0803 -0.55062,-0.0902 -0.66533,-0.36787 z m 4.64721,3.16035 c -0.64055,0.13383 4.10287,-2.77206 4.47861,-3.25185 l -1.9e-4,0.42652 -3.7948,2.66994 z m -3.7937,-0.30483 c -0.35873,0.3232 -0.31957,0.7561 0.0469,0.99609 0.79993,0.24434 0.33567,-0.87219 0.125,-1.02539 l -0.0986,0.0168 z m 0.14453,0.0703 c -0.0727,0.003 0.0598,-0.0202 0,0 z m -3.20898,0.24414 c 0.785,-0.049 -0.345302,-0.39122 0,0 z m 0.33984,-0.14453 c 0.0172,0.30028 0.82933,-0.2324 0,0 z m 2.625,0.0176 c -0.0436,0.0321 0.0325,-0.0383 0,0 z m 2.37943,0.082 c -0.75843,-0.0626 0.27856,0.57841 0.12891,0.0859 -0.0532,-0.006 -0.0346,-0.17138 -0.12891,-0.0859 z m -2.29544,0.54496 c 0.0948,0.0657 -0.12693,-0.0439 0,0 z m 0.22851,0.041 c -0.32051,0.0692 0.33219,-0.12966 0,0 z"
       transform="rotate(-178.17802,68.383361,61.573497)"
       sodipodi:nodetypes="cccccccscccccccccccccccccccccccccccccccccccccccccccccccccccccccccscccccccccccccscccscccccccccccccscccccccccccccsscccccccccccccccccccccccccccccccccccccscccssccccccccccccccccccccccccccccccccccccccccccccccccccccccccccccccccccccccccccccccccccccccccccccccccccccccccccccccccccccccccccccccccccccccccccccccccccccccccccccccccccccccc"
       inkscape:export-filename="Salix_soldermask.svg"
       inkscape:export-xdpi="1000"
       inkscape:export-ydpi="1000" /><path
       id="path642-9"
       clip-path="url(#clipPath9766)"
       style="display:inline;fill:#9df7fb;fill-opacity:1;stroke:none;stroke-width:0.14491;stroke-dasharray:none;stroke-opacity:1"
       d="m 37.535156,13.025391 c -0.308881,0.141659 0.02558,0.933297 -0.08008,1.4375 0.05211,0.546888 0.02744,0.710188 -0.169325,1.343233 -0.322403,1.380924 -0.47062,2.796249 -0.707628,4.203642 0.06296,0.62674 -0.468822,1.070957 -0.386221,1.714894 -0.04563,0.536137 -0.260072,1.018743 -0.245351,1.5592 -0.341677,1.014001 -0.647904,2.040257 -0.747334,3.114578 -0.244472,1.224425 -1.033432,2.298897 -1.112768,3.554854 -0.433958,1.131201 -0.531474,2.359645 -0.953317,3.497983 -0.354724,1.219942 -0.185899,2.964672 -0.953292,4.044112 -0.03173,0.250664 0.15685,1.196764 0.19513,0.521021 0.239396,-0.790649 0.900957,-2.051966 1.006849,-2.89589 0.249857,-1.468661 0.58323,-2.900402 0.889642,-4.354827 0.517388,-1.246148 0.47483,-2.621499 1.190816,-3.80128 0.234541,-0.465841 0.865603,-5.16111 1.33079,-5.380475 0.08762,0.04426 0.267195,-2.672927 0.427798,-3.100906 0.08417,-0.224289 0.186508,-1.680875 0.244286,-1.212487 0.05371,0.435384 0.06573,2.785209 0.07002,2.922594 0.03684,1.180007 -0.626676,5.385664 -0.52383,5.556397 0.18656,0.428922 0.217961,0.879255 0.08864,1.40669 0.04326,0.57705 0.115829,1.136084 -0.01795,1.689479 0.04875,0.619438 0.07952,0.0332 0.01758,0.357422 0.131226,0.492521 -0.517234,0.730559 -0.535452,1.108602 0.468065,0.656518 0.07442,1.472999 0.428031,2.158976 -0.247801,0.850251 -0.07827,1.70402 -0.206826,2.566432 0.0764,0.516901 0.308654,1.00553 0.297063,1.529164 0.211268,0.867686 -0.174523,1.661894 -0.0483,2.542019 0.0027,1.095266 0.135923,2.275515 0.01907,3.357364 0.20076,1.437454 -0.331481,2.890523 0.0718,4.313615 -0.163386,0.798971 -0.02279,1.544505 -0.06953,2.343691 0.108739,0.868021 0.110855,1.751377 0.196435,2.623106 -0.126698,0.763246 0.08188,1.546319 -0.07031,2.30664 0.257644,0.523096 0.02746,1.080411 -0.242902,1.583021 0.01079,0.732344 0.274372,1.491637 0.153062,2.221667 -0.08221,0.668476 0.120409,1.285469 0.351562,1.886719 0.0074,0.517383 0.173455,0.906666 0.142141,1.440973 0.05143,0.802516 0.566587,1.541527 0.406945,2.36171 -0.109048,0.912389 -0.08966,1.829733 0.109885,2.715116 0.07554,0.691943 0.06876,1.32806 -0.04922,2.013554 0.129596,0.77042 -0.263259,1.558584 -0.113436,2.327919 -0.118288,0.89265 -0.02274,1.749257 -0.132019,2.645996 -0.0041,0.183046 0.02012,1.307844 -0.120035,1.508633 -0.08849,0.12678 -0.03915,-0.03231 -0.107555,0.26443 -0.215423,0.934534 -0.295224,2.301857 -0.317298,2.555136 0.05324,-0.122451 0.08082,0.302873 0.139809,0.04133 0.291875,-1.294314 0.666275,-4.579709 0.895403,-5.194128 0.01375,-0.716396 -0.09511,-1.432634 -0.0094,-2.138453 -0.176514,-0.699982 0.366255,-1.323377 0.141214,-2.032778 0.03352,-0.615416 0.207613,-1.264361 -0.03529,-1.874674 0.233099,-0.664383 -0.428764,-1.284704 -0.113281,-1.912109 0.223823,-0.673062 -0.131848,-1.319966 0.03516,-1.990235 -0.01352,-0.518806 -0.536559,-0.806424 -0.386718,-1.36914 0.08582,-0.495869 0.04206,-0.916848 -0.133921,-1.297428 0.05008,-0.352281 -0.115992,-0.367397 -0.385919,-1.046155 0.05872,-1.090366 -0.01792,-2.103185 -0.06521,-3.187489 0.08051,-0.483062 0.755076,-1.140894 0.168965,-1.507845 -0.138854,-0.479075 0.502781,-1.131542 0.0046,-1.623549 -0.09549,-0.613195 0.220866,-1.326251 -0.125575,-1.9723 0.149711,-0.622021 0.177038,-1.274598 0.01953,-1.884765 0.04468,-0.66743 -0.171092,-1.310891 0.08756,-1.972708 -0.260017,-0.526405 -0.298103,-1.10109 -0.158203,-1.666002 -0.112807,-0.696185 -0.01749,-1.419219 0.13091,-2.037072 -0.17483,-0.55026 -0.142242,-0.96991 0.06338,-1.518422 0.005,-0.461074 -0.368152,-0.876916 -0.09686,-1.330479 -0.03714,-0.538697 -0.01534,-1.066945 0.04345,-1.60458 -0.159728,-0.677742 0.135632,-1.364843 -0.107109,-2.020796 -0.03291,-0.762003 -0.556996,-1.516921 -0.228747,-2.277676 -0.01992,-0.603168 -0.109949,-1.209998 0.0078,-1.804687 -0.268247,-1.024521 -0.204785,-2.096041 0.142582,-3.097673 0.01814,-0.506941 0.01614,-0.983954 0.196537,-1.474777 0.04576,-0.676498 0.02293,-1.342387 -0.04241,-2.023253 0.13393,-0.499774 0.16681,-0.997482 0.140612,-1.517591 -0.03288,-1.258848 -0.0992,-0.13561 -0.04207,-1.314338 0.396522,-0.853508 0.08769,0.02429 0.219779,-1.074411 0.168367,-1.046853 -0.03274,0.155798 0.154195,-0.825606 0.0643,-0.902591 -0.241231,-1.594837 -0.08563,-2.478992 -0.160353,-0.781108 0.146317,-1.526076 0.119825,-2.306259 0.127971,-0.576286 0.201223,-2.119577 -0.08211,-2.598166 z m -1.774992,15.327456 c -0.04485,0.246641 0.173542,0.610971 0.224212,0.492856 -0.08361,-0.444522 0.16623,-0.937843 0.06055,-1.335937 0.0697,-0.634324 -0.12845,-0.01661 -0.167828,0.199964 z m -0.02384,1.815122 c -0.419964,0.733432 -0.0363,1.627899 -0.276038,2.421461 -0.14204,1.067541 -0.169229,2.213018 -0.542321,3.209398 -0.113669,0.402054 0.232454,0.888307 0.04102,1.320313 -0.177175,1.321073 -0.281241,2.716796 -0.828125,3.933593 -0.237203,0.387016 0.07801,0.931261 -0.08459,1.375496 -0.05128,1.079319 -0.402516,2.158882 -0.393299,3.221279 0.216391,0.4241 0.181935,-0.840487 0.303875,-1.149781 0.136528,-0.999522 0.411664,-1.983095 0.713074,-2.927462 0.08384,-0.472155 -0.253893,-0.89895 -0.01296,-1.375831 0.361914,-1.730029 0.713055,-3.475207 0.758797,-5.243374 0.362241,-1.358375 0.09551,-2.855219 0.453031,-4.200226 0.248591,-0.420651 0.537165,-0.875227 -0.132461,-0.584866 z m -3.545217,7.33252 c -0.09254,0.55513 -0.357108,2.245996 -0.44697,2.776855 0.06632,-0.09435 0.03511,0.03066 0.168923,-0.04677 0.296589,-0.171624 0.517255,-1.721314 0.404794,-2.163126 z M 31.601562,41.0625 c -0.567115,0.234022 -1.143182,2.052562 -1.03125,2.271484 0.638578,-0.396301 0.886365,-1.446711 1.107975,-2.227718 -0.105522,-0.06684 0.0045,-0.0773 -0.07672,-0.04377 z m 1.6875,8.519531 c -0.660799,0.646889 -0.395121,1.67485 -0.626422,2.500095 -0.112517,0.569873 -0.09306,1.23737 -0.337328,1.738969 -0.453498,0.316724 0.100618,0.834116 -0.07922,1.268749 -0.03162,0.315073 1.063097,0.119426 0.625,-0.21875 -0.487233,-0.503431 -0.03327,-1.155161 -0.06836,-1.746094 -0.02314,-0.404796 0.938249,-0.884041 0.390906,-1.103904 -0.52516,-0.406046 -0.203546,-1.175766 -0.05106,-1.694924 0.114496,-0.340441 1.006276,-0.659662 0.246094,-0.783203 l -0.0625,-0.01758 z m -5.091796,1.320313 c -0.284876,0.516019 -0.60024,1.066622 -0.654775,1.640442 -0.272612,0.986756 -0.476855,1.915217 -0.771058,2.883047 -0.336232,0.584582 -0.481974,0.931773 -0.8228,1.514552 0.0038,0.714548 -0.632612,1.588172 -0.588744,2.307816 -0.0818,0.698385 -0.554272,1.197649 -0.557931,1.9178 -0.125339,0.609996 -0.396034,1.154359 -0.526567,1.767593 -0.425658,0.861091 -0.889928,1.654156 -1.348407,2.498536 -0.529817,0.45313 -0.419818,1.193319 -0.854314,1.721236 -0.42278,0.679304 -0.53061,1.581185 -0.896889,2.28804 -0.126875,1.319194 -1.50042,3.049734 -1.607158,3.301391 -0.211941,0.505841 -0.41241,0.999071 -0.691438,1.470312 -0.08478,0.555696 -0.590163,0.82344 -0.720768,1.398721 -0.226428,0.557683 -0.613152,1.03464 -0.849889,1.579243 -0.233457,0.542781 -0.767845,1.134791 -1.008729,1.70622 -0.500945,0.675105 -0.850416,1.381769 -1.25226,2.113924 -0.267238,0.575206 -0.650376,1.134292 -0.75541,1.78451 -0.222511,0.544543 -0.01565,1.228493 -0.444426,1.674976 -0.301091,0.874542 -0.886147,1.548888 -1.22798,2.4017 -0.300904,0.704479 -0.748901,1.272687 -1.058076,1.958976 -0.776507,1.080738 -1.320642,2.384014 -1.6061491,3.674673 -0.3033339,0.689056 -0.3859655,1.471524 -0.8804532,2.094774 -0.3089623,0.401963 -0.3651309,0.951329 -0.5203103,1.436283 0.3056546,0.205949 0.3435795,-0.530481 0.6373262,-0.697631 0.3438877,-0.250365 0.2764355,-1.020186 0.7220488,-0.991822 -0.04181,-0.817889 0.6369076,-1.472598 0.7052826,-2.264039 0.02303,-0.548157 0.403913,-1.004344 0.595203,-1.531011 0.496565,-0.929965 0.978432,-1.856281 1.394461,-2.838844 0.588672,-1.25334 1.334205,-2.475615 1.871023,-3.735388 0.185164,-0.542031 0.141743,-1.188432 0.34028,-1.70103 0.799116,-0.966076 1.029405,-2.300037 1.913321,-3.206766 0.615193,-1.072673 1.286487,-2.118035 1.70582,-3.291281 0.446745,-0.785871 0.983256,-1.513897 1.251877,-2.394294 0.331618,-0.99891 1.103427,-1.942551 1.460769,-2.77379 0.163102,-1.175406 0.72869,-2.223707 1.21823,-3.265857 0.336979,-0.65504 0.55979,-1.344377 1.008577,-1.937153 0.216079,-0.503471 0.4378,-0.998104 0.769274,-1.437551 0.331055,-1.049175 0.923684,-1.979201 1.065839,-3.08564 0.20354,-0.655999 0.497474,-1.264697 0.625616,-1.949347 0.367053,-1.036562 0.791092,-2.2741 1.060396,-3.322076 0.31463,-0.483912 0.350422,-0.92644 0.680023,-1.402677 0.24822,-0.89334 0.362949,-1.816462 0.5345,-2.721452 0.02564,-0.160178 0.355131,-0.530192 0.08466,-0.587116 z m 3.152343,6.798828 c -0.07406,0.120846 0.257821,0.8167 0.173829,0.46289 0.03454,-0.13154 0.04194,-0.824831 -0.173829,-0.46289 z m 0.283203,1.066406 c -0.133787,0.311497 -0.166951,1.790806 -0.01917,1.794455 0.08871,0.0022 0.348393,-1.296879 0.39417,-1.542502 -0.155014,0.06249 -0.229965,-0.589639 -0.375,-0.251953 z m -0.470703,1.953125 c -0.444335,0.226741 0.115359,0.784434 0.01953,1.1875 -0.09396,0.769244 0.377627,0.147494 0.550781,-0.207031 0.257523,-0.241878 0.320181,-0.787387 -0.175198,-0.668222 -0.160653,-0.05445 -0.307867,-0.226916 -0.395115,-0.312247 z m -2.740234,14.417969 c -0.124199,0.383475 -0.02892,1.044548 -0.583984,1.021484 -0.283537,0.534052 0.204174,0.494066 0.548828,0.664063 0.24717,-0.303107 0.886038,-0.746168 0.414062,-1.144531 -0.189893,-0.20762 0.04799,-0.944764 -0.378906,-0.541016 z m 8.677734,2.61914 c -0.20403,0.537657 0.0973,1.187787 -0.390367,1.6797 -0.138579,0.273409 -0.440223,1.08424 -0.183851,1.068347 0.221809,-0.646791 0.905227,-1.147367 0.956851,-1.835989 -0.539236,-0.326579 0.126711,-1.023845 -0.138491,-1.240182 -0.21747,-0.121192 -0.159624,0.223287 -0.244142,0.328124 z m -9.554687,0.181641 c -0.115215,0.405952 -0.465478,0.672543 -0.339823,1.129601 0.19616,0.657108 -0.564419,0.652631 -0.697927,1.06669 -0.346191,0.566266 0.239889,0.244975 0.551422,0.209959 0.291812,-0.761121 0.868161,-1.466172 0.892578,-2.287109 -0.131263,0.03464 -0.359156,-0.276332 -0.40625,-0.119141 z m -1.746544,3.962672 c 0.262409,0.352764 -0.361887,0.881018 0.168419,0.851781 0.485896,-0.42608 0.518387,-1.28778 0.359862,-1.644659 -0.0077,-0.0016 -0.346574,0.178819 -0.358736,0.219919 z m -1.160888,3.090371 c -0.144947,0.134613 -0.004,0.378896 0.253992,0.05798 0.511773,-0.63661 1.415435,-2.210332 0.980764,-2.266392 -0.655424,0.349959 -1.04719,1.514033 -1.234756,2.20841 z m -0.465613,0.796562 c -0.362027,0.464514 -0.221236,0.62887 0.03981,0.977334 -0.185067,-0.429851 0.331496,-1.302209 0.651599,-1.701943 -0.379172,-0.323289 -0.3256,0.326668 -0.474571,0.24256 z m 11.20898,-0.666015 c -0.07057,0.88953 -0.735807,1.623455 -0.697698,2.529209 -0.140748,0.850468 -1.018729,1.387579 -0.975156,2.289379 -0.06794,0.464959 -0.434688,0.931732 -0.456052,1.347427 0.349044,0.244707 0.334965,-0.673141 0.662719,-0.849843 0.308815,-0.449066 -0.04974,-1.020897 0.433745,-1.373776 0.371693,-0.362193 0.383058,-0.967115 0.569552,-1.397474 0.443002,-0.366579 0.08042,-0.842598 0.426239,-1.269809 0.102252,-0.353886 0.616231,-0.760774 0.280612,-1.144266 0.09246,-0.177004 -0.129821,-0.131168 -0.243961,-0.130847 z m -11.570263,1.744171 c -0.471034,0.482779 0.762872,-0.0017 0.242187,-0.148438 -0.08073,0.04948 -0.161458,0.09896 -0.242187,0.148438 z m -1.194043,2.16289 c -0.174685,0.311313 -0.498709,0.249487 -0.584766,0.567886 -0.50283,0.363799 -0.143736,0.489983 -0.262207,0.726255 -0.109761,0.295385 -1.677895,2.26154 -1.048011,2.6546 -0.290644,0.388441 1.245072,-1.752161 1.322292,-2.082996 l 0.90374,-1.829874 1.00005,-1.6813 c 0.221427,-0.211117 -0.117965,-0.432239 -0.278011,-0.158136 z m 10.014308,3.471849 c -0.152468,0.617567 -0.553552,1.120751 -0.697265,1.75 -0.434717,0.698159 -0.934662,1.352313 -1.317047,2.08172 -0.16462,0.312932 -0.807285,1.21533 -0.1516,0.740288 0.545607,-0.357879 0.82297,-1.025702 1.28468,-1.445376 0.162926,-0.618933 0.635795,-1.130513 0.625373,-1.796554 0.07632,-0.483523 0.595323,-1.00073 0.466797,-1.427734 -0.09198,0.01295 -0.240452,-0.08097 -0.210938,0.09766 z m -2.537109,4.755859 c -0.689142,0.713061 -1.502657,1.301524 -1.980289,2.179868 -0.501601,0.529099 -1.15524,0.8836 -1.529777,1.55134 -0.919893,1.44732 -2.426287,2.36396 -3.427459,3.743 -0.471165,0.49975 -0.85016,1.10367 -1.351537,1.57267 0.387687,0.4552 0.739308,-0.48216 1.108595,-0.64623 0.74071,-0.62794 1.491774,-1.20843 2.185735,-1.87193 0.646356,-1.05937 1.581798,-1.83553 2.254498,-2.87442 0.600865,-0.34479 0.914259,-1.017094 1.36914,-1.507813 0.133718,-0.624276 0.740961,-0.950512 1.206244,-1.311663 0.169297,-0.117475 0.318312,-0.949663 0.16485,-0.834822 z m -15.248047,4.884768 c -0.342467,0.16988 -1.23864,1.35163 -0.655598,1.61757 0.08862,-0.23976 1.094658,-1.52595 0.655598,-1.61757 z m 0.04154,-0.006 c 0.0913,0.0503 0.331211,0.1375 0.700109,-0.481 0.654022,-1.09655 1.139401,-1.79346 0.880035,-1.980583 l -0.621746,0.09203 -0.755811,1.465863 z m -10.3482016,6.82717 c -0.4077988,0.33549 0.00873,-0.70692 0.1187109,-0.88203 0.068687,-0.10936 0.1826092,0.18003 0.1971143,0.13864 -0.086811,0.23988 -0.034684,0.42022 -0.3158252,0.74339 z m 8.5469006,-5.23687 c 0.168813,0.49195 -0.324319,0.89875 -0.339844,1.32813 0.469421,0.54687 -0.45384,0.60749 -0.580086,1.08762 -0.245349,0.45601 -0.699443,0.73029 -1.068352,1.07449 -0.201367,-0.8177 -0.350398,-0.3542 -0.234375,0.20117 0.06495,0.45294 -0.353272,0.74376 -0.5625,1.11328 -0.3211629,0.35158 -0.9692175,-0.14145 -0.883832,0.57218 -0.1841422,0.66236 0.013914,0.6471 0.5439885,0.45712 0.2140215,-0.56954 0.8680585,-0.71187 1.3046875,-1.01367 -0.253611,-0.68436 0.427533,-1.22377 1.055361,-1.253 0.443924,-0.0562 -0.274611,-0.65001 0.0052,-1.00482 0.0075,-0.62435 0.607529,-0.56471 0.943359,-0.94336 0.33129,-0.16874 0.865154,-0.41763 0.481318,-0.59764 0.534243,-0.51453 -0.215303,-0.51657 -0.481318,-0.88673 -0.03443,0.006 -0.229193,-0.31498 -0.183593,-0.13477 z m 7.019531,4.23633 c -0.639125,0.74514 -1.342912,1.44436 -2.146485,2.00977 0.158523,0.53369 0.558049,-0.11852 0.930176,-0.11056 0.540271,-0.0731 0.506216,-0.71437 0.901597,-0.89487 0.460332,-0.28528 0.690146,-0.83621 0.942336,-1.2832 0.06226,-0.39848 -0.490228,-0.0219 -0.627624,0.27886 z m -11.464844,1.70313 c -0.323645,0.35394 0.027447,0.86873 0.1953125,1.21484 0.1114473,-0.37592 0.3614996,-0.81016 -0.026837,-1.27479 -0.040352,-0.14629 -0.1124704,0.0416 -0.1684755,0.06 z m 3.414063,4.27929 c -0.666465,0.44098 -1.435858,0.5876 -2.2172197,0.61455 -0.8281365,0.19512 -1.7773008,0.17747 -2.4917652,0.67061 -0.2981112,0.34533 1.1210982,0.23983 1.5391011,-0.16664 0.520953,0.0943 0.9769111,-0.0408 1.4415218,-0.16209 0.615685,0.0231 1.340075,-0.49709 1.837736,-0.84705 0.09847,-0.0281 -0.03768,-0.2534 -0.109374,-0.10938 z m -7.8242192,1.74414 c -0.1185886,0.30912 -0.5368332,0.78369 -0.5195313,0.99414 0.4372174,0.0109 0.8502944,0.16948 1.0359802,-0.3436 0.2875235,-0.37492 0.798501,-0.75601 -0.024261,-0.72476 -0.2055097,-0.0208 -0.4412215,-0.26532 -0.4921874,0.0742 z m -1.7832032,3.73047 c -0.6387402,1.24122 -0.9268953,2.62559 -1.54687498,3.86914 0.0266189,0.52302 -0.68294573,0.69816 -0.62304687,1.26953 0.66416169,-0.0103 0.92223265,0.82217 0.42773437,1.23633 -0.29620981,0.61282 0.37009988,0.19674 0.38085938,-0.17187 0.2995298,-0.48409 0.1556343,-1.07574 0.5447214,-1.51523 0.6436543,-1.10886 0.6327277,-2.424 1.1271536,-3.58243 -0.2259943,-0.37868 -0.3116689,-0.85555 -0.2109375,-1.29883 -0.033203,0.0645 -0.066406,0.12891 -0.099609,0.19336 z"
       sodipodi:nodetypes="cccccccccccccccssscccccccccccccccccccccccsscsccccccccccccccccccccccccccccccccccsccssscccccccccccssccscccccscscccccccccscccccccccccccccccccccccccccccccccccccccccssccccsscscccssccccccccccccsccccsccssccsccccccccsccccccccscscccccccscccccccsscccccccccccccccccscccccscccccccccccccsscccsccccscccscccccscccsscccccccccccc" /></g></svg>
