<?xml version="1.0" encoding="UTF-8" standalone="no"?>
<svg
   xmlns:dc="http://purl.org/dc/elements/1.1/"
   xmlns:cc="http://creativecommons.org/ns#"
   xmlns:rdf="http://www.w3.org/1999/02/22-rdf-syntax-ns#"
   xmlns:svg="http://www.w3.org/2000/svg"
   xmlns="http://www.w3.org/2000/svg"
   xmlns:sodipodi="http://sodipodi.sourceforge.net/DTD/sodipodi-0.dtd"
   xmlns:inkscape="http://www.inkscape.org/namespaces/inkscape"
   inkscape:export-ydpi="1000"
   inkscape:export-xdpi="1000"
   inkscape:export-filename="C:\Users\Lorenz Neumann\Documents\Projekte\Modular\Dual Ears\panel\bitmap.png"
   sodipodi:docname="PANEL4HP.svg"
   inkscape:version="1.0 (4035a4fb49, 2020-05-01)"
   id="svg8"
   version="1.1"
   viewBox="0 0 210 297"
   height="297mm"
   width="210mm">
  <defs
     id="defs2">
    <marker
       inkscape:stockid="Arrow1Lstart"
       orient="auto"
       refY="0.0"
       refX="0.0"
       id="Arrow1Lstart"
       style="overflow:visible"
       inkscape:isstock="true">
      <path
         id="path1191"
         d="M 0.0,0.0 L 5.0,-5.0 L -12.5,0.0 L 5.0,5.0 L 0.0,0.0 z "
         style="fill-rule:evenodd;stroke:#000000;stroke-width:1.0pt"
         transform="scale(0.8) translate(12.5,0)" />
    </marker>
  </defs>
  <sodipodi:namedview
     inkscape:document-rotation="0"
     showguides="true"
     inkscape:window-maximized="1"
     inkscape:window-y="-9"
     inkscape:window-x="-9"
     inkscape:window-height="1001"
     inkscape:window-width="1920"
     inkscape:measure-end="0,0"
     inkscape:measure-start="0,0"
     showgrid="false"
     inkscape:current-layer="layer1"
     inkscape:document-units="mm"
     inkscape:cy="323.18793"
     inkscape:cx="-27.637086"
     inkscape:zoom="4"
     inkscape:pageshadow="2"
     inkscape:pageopacity="0.0"
     borderopacity="1.0"
     bordercolor="#666666"
     pagecolor="#ffffff"
     id="base"
     inkscape:lockguides="false" />
  <metadata
     id="metadata5">
    <rdf:RDF>
      <cc:Work
         rdf:about="">
        <dc:format>image/svg+xml</dc:format>
        <dc:type
           rdf:resource="http://purl.org/dc/dcmitype/StillImage" />
        <dc:title />
      </cc:Work>
    </rdf:RDF>
  </metadata>
  <g
     style="display:inline"
     id="layer1"
     inkscape:groupmode="layer"
     inkscape:label="Dwgs.User">
    <path
       d="M -0.03952755,0.03547352 H 20.039526 V 128.46452 H -0.03952755 Z"
       style="opacity:1;fill:none;fill-opacity:1;stroke:#000000;stroke-width:0.070947;stroke-linecap:square;stroke-linejoin:round;stroke-miterlimit:4;stroke-dasharray:none;stroke-opacity:1"
       id="rect815" />
    <path
       d="m 9.050001,2.9999969 a 1.5500001,1.5500001 0 0 1 -1.55,1.5500001 1.5500001,1.5500001 0 0 1 -1.5500001,-1.5500001 1.5500001,1.5500001 0 0 1 1.5500001,-1.5500001 1.5500001,1.5500001 0 0 1 1.55,1.5500001"
       style="opacity:1;fill:none;fill-opacity:1;stroke:#000000;stroke-width:0.1;stroke-linecap:square;stroke-linejoin:round;stroke-miterlimit:4;stroke-dasharray:none;stroke-opacity:1"
       id="path832-39-0-6" />
    <path
       d="m 14.13,125.50002 a 1.5500002,1.5500002 0 0 1 -1.55,1.55 1.5500002,1.5500002 0 0 1 -1.55,-1.55 1.5500002,1.5500002 0 0 1 1.55,-1.55 1.5500002,1.5500002 0 0 1 1.55,1.55"
       style="opacity:1;fill:none;fill-opacity:1;stroke:#000000;stroke-width:0.1;stroke-linecap:square;stroke-linejoin:round;stroke-miterlimit:4;stroke-dasharray:none;stroke-opacity:1"
       id="path832-39-0-6-6" />
    <path
       d="m 17.75,108.664 a 3,3 0 0 1 -3,3 3,3 0 0 1 -3,-3 3,3 0 0 1 3,-3 3,3 0 0 1 3,3"
       style="display:inline;fill:none;fill-opacity:1;stroke:#000000;stroke-width:0.1;stroke-linecap:square;stroke-linejoin:round;stroke-miterlimit:4;stroke-dasharray:none;stroke-opacity:1"
       id="path832-39-0-6-6-2-0-72" />
    <path
       d="m 8.25,95.695835 a 3,3 0 0 1 -3,3 3,3 0 0 1 -3,-3 3,3 0 0 1 3,-3 3,3 0 0 1 3,3"
       style="display:inline;fill:none;fill-opacity:1;stroke:#000000;stroke-width:0.1;stroke-linecap:square;stroke-linejoin:round;stroke-miterlimit:4;stroke-dasharray:none;stroke-opacity:1"
       id="path832-39-0-6-6-2-0-5-1" />
    <path
       d="m 17.75,95.695835 a 3,3 0 0 1 -3,3 3,3 0 0 1 -3,-3 3,3 0 0 1 3,-3 3,3 0 0 1 3,3"
       style="display:inline;fill:none;fill-opacity:1;stroke:#000000;stroke-width:0.1;stroke-linecap:square;stroke-linejoin:round;stroke-miterlimit:4;stroke-dasharray:none;stroke-opacity:1"
       id="path832-39-0-6-6-2-0-72-8" />
    <path
       d="m 17.75,75.664 a 3,3 0 0 1 -3,3 3,3 0 0 1 -3,-3 3,3 0 0 1 3,-3 3,3 0 0 1 3,3"
       style="display:inline;fill:none;fill-opacity:1;stroke:#000000;stroke-width:0.1;stroke-linecap:square;stroke-linejoin:round;stroke-miterlimit:4;stroke-dasharray:none;stroke-opacity:1"
       id="path832-39-0-6-6-2-0-72-6" />
    <path
       d="m 8.25,62.695834 a 3,3 0 0 1 -3,3 3,3 0 0 1 -3,-3 3,3 0 0 1 3,-3 3,3 0 0 1 3,3"
       style="display:inline;fill:none;fill-opacity:1;stroke:#000000;stroke-width:0.1;stroke-linecap:square;stroke-linejoin:round;stroke-miterlimit:4;stroke-dasharray:none;stroke-opacity:1"
       id="path832-39-0-6-6-2-0-5-1-0" />
    <path
       d="m 17.75,62.695834 a 3,3 0 0 1 -3,3 3,3 0 0 1 -3,-3 3,3 0 0 1 3,-3 3,3 0 0 1 3,3"
       style="display:inline;fill:none;fill-opacity:1;stroke:#000000;stroke-width:0.1;stroke-linecap:square;stroke-linejoin:round;stroke-miterlimit:4;stroke-dasharray:none;stroke-opacity:1"
       id="path832-39-0-6-6-2-0-72-8-1" />
    <g
       id="g1150"
       transform="translate(0.23780392,-26.148914)">
      <path
         d="m 17.199217,113.84492 a 1.5261539,1.5261538 0 0 1 -1.526154,1.52615 1.5261539,1.5261538 0 0 1 -1.526154,-1.52615 1.5261539,1.5261538 0 0 1 1.526154,-1.52616 1.5261539,1.5261538 0 0 1 1.526154,1.52616"
         style="display:inline;opacity:1;fill:none;fill-opacity:1;stroke:#000000;stroke-width:0.0476922;stroke-linecap:square;stroke-linejoin:round;stroke-miterlimit:4;stroke-dasharray:none;stroke-opacity:1"
         id="path832-39-0-6-6-2-1-0-6-6-2-0-3-1-9" />
      <path
         d="m 11.28835,113.84492 a 1.5261539,1.5261538 0 0 1 -1.5261535,1.52615 1.5261539,1.5261538 0 0 1 -1.5261539,-1.52615 1.5261539,1.5261538 0 0 1 1.5261539,-1.52616 1.5261539,1.5261538 0 0 1 1.5261535,1.52616"
         style="display:inline;opacity:1;fill:none;fill-opacity:1;stroke:#000000;stroke-width:0.0476922;stroke-linecap:square;stroke-linejoin:round;stroke-miterlimit:4;stroke-dasharray:none;stroke-opacity:1"
         id="path832-39-0-6-6-2-1-0-6-6-2-0-3-1-9-5" />
      <path
         d="m 5.3774816,113.84492 a 1.5261539,1.5261538 0 0 1 -1.5261539,1.52615 1.5261539,1.5261538 0 0 1 -1.526154,-1.52615 1.5261539,1.5261538 0 0 1 1.526154,-1.52616 1.5261539,1.5261538 0 0 1 1.5261539,1.52616"
         style="display:inline;opacity:1;fill:none;fill-opacity:1;stroke:#000000;stroke-width:0.0476922;stroke-linecap:square;stroke-linejoin:round;stroke-miterlimit:4;stroke-dasharray:none;stroke-opacity:1"
         id="path832-39-0-6-6-2-1-0-6-6-2-0-3-1-9-0" />
    </g>
    <path
       id="path832-39-0-6-6-2-1-0-6-6-2-0-3-1-9-1"
       style="display:inline;fill:none;fill-opacity:1;stroke:#000000;stroke-width:0.0476922;stroke-linecap:square;stroke-linejoin:round;stroke-miterlimit:4;stroke-dasharray:none;stroke-opacity:1"
       d="m 17.437021,54.696006 a 1.5261539,1.5261538 0 0 1 -1.526154,1.52615 1.5261539,1.5261538 0 0 1 -1.526154,-1.52615 1.5261539,1.5261538 0 0 1 1.526154,-1.52616 1.5261539,1.5261538 0 0 1 1.526154,1.52616" />
    <path
       id="path832-39-0-6-6-2-1-0-6-6-2-0-3-1-9-5-6"
       style="display:inline;fill:none;fill-opacity:1;stroke:#000000;stroke-width:0.0476922;stroke-linecap:square;stroke-linejoin:round;stroke-miterlimit:4;stroke-dasharray:none;stroke-opacity:1"
       d="M 11.526154,54.696006 A 1.5261539,1.5261538 0 0 1 10,56.222156 1.5261539,1.5261538 0 0 1 8.4738465,54.696006 1.5261539,1.5261538 0 0 1 10,53.169846 a 1.5261539,1.5261538 0 0 1 1.526154,1.52616" />
    <path
       id="path832-39-0-6-6-2-1-0-6-6-2-0-3-1-9-0-4"
       style="display:inline;fill:none;fill-opacity:1;stroke:#000000;stroke-width:0.0476922;stroke-linecap:square;stroke-linejoin:round;stroke-miterlimit:4;stroke-dasharray:none;stroke-opacity:1"
       d="m 5.6152855,54.696006 a 1.5261539,1.5261538 0 0 1 -1.5261539,1.52615 1.5261539,1.5261538 0 0 1 -1.526154,-1.52615 1.5261539,1.5261538 0 0 1 1.526154,-1.52616 1.5261539,1.5261538 0 0 1 1.5261539,1.52616" />
    <g
       id="g670"
       style="fill:#008484;fill-opacity:0;stroke:#008484;stroke-width:47.2441;stroke-linecap:round;stroke-linejoin:round;stroke-opacity:1"
       transform="matrix(0.00254,0,0,0.00254,-29.964749,-30.03688)" />
    <g
       id="g684"
       style="fill:#008484;fill-opacity:0;stroke:#008484;stroke-width:59.0551;stroke-linecap:round;stroke-linejoin:round;stroke-opacity:1"
       transform="matrix(0.00254,0,0,0.00254,-29.964749,-30.03688)" />
    <g
       id="g708"
       style="fill:#008484;fill-opacity:0;stroke:#008484;stroke-width:47.2441;stroke-linecap:round;stroke-linejoin:round;stroke-opacity:1"
       transform="matrix(0.00254,0,0,0.00254,-29.964749,-30.03688)" />
    <g
       id="g778"
       style="fill:#008484;fill-opacity:0;stroke:#008484;stroke-width:59.0551;stroke-linecap:round;stroke-linejoin:round;stroke-opacity:1"
       transform="matrix(0.00254,0,0,0.00254,-29.964749,-30.03688)" />
    <g
       id="g842"
       style="fill:#008484;fill-opacity:0;stroke:#008484;stroke-width:47.2441;stroke-linecap:round;stroke-linejoin:round;stroke-opacity:1"
       transform="matrix(0.00254,0,0,0.00254,-29.964749,-30.03688)" />
    <g
       id="g874"
       style="fill:#008484;fill-opacity:0;stroke:#008484;stroke-width:59.0551;stroke-linecap:round;stroke-linejoin:round;stroke-opacity:1"
       transform="matrix(0.00254,0,0,0.00254,-29.964749,-30.03688)" />
    <g
       id="g1022"
       style="fill:#008484;fill-opacity:0;stroke:#008484;stroke-width:47.2441;stroke-linecap:round;stroke-linejoin:round;stroke-opacity:1"
       transform="matrix(0.00254,0,0,0.00254,-30.167949,-30.13086)" />
    <g
       id="g1026"
       style="fill:#008484;fill-opacity:0;stroke:#008484;stroke-width:59.0551;stroke-linecap:round;stroke-linejoin:round;stroke-opacity:1"
       transform="matrix(0.00254,0,0,0.00254,-29.964749,-30.03688)" />
    <g
       id="g1032"
       style="fill:#008484;fill-opacity:0;stroke:#008484;stroke-width:47.2441;stroke-linecap:round;stroke-linejoin:round;stroke-opacity:1"
       transform="matrix(0.00254,0,0,0.00254,-29.964749,-30.03688)" />
    <g
       id="g1036"
       style="fill:#008484;fill-opacity:0;stroke:#008484;stroke-width:59.0551;stroke-linecap:round;stroke-linejoin:round;stroke-opacity:1"
       transform="matrix(0.00254,0,0,0.00254,-29.964749,-30.03688)" />
    <g
       id="g1428"
       style="fill:#008484;fill-opacity:0;stroke:#008484;stroke-width:59.0551;stroke-linecap:round;stroke-linejoin:round;stroke-opacity:1"
       transform="matrix(0.00254,0,0,0.00254,-29.964749,-30.03688)">
      <g
         id="g1064"
         transform="rotate(-90,11499.4,22578.7)" />
      <g
         id="g1076"
         transform="rotate(-90,11450.8,18958.7)" />
      <g
         id="g1114"
         transform="rotate(-90,13126.8,33079.1)" />
      <g
         id="g1124"
         transform="rotate(-90,18273.2,33166.3)" />
      <g
         id="g1132"
         transform="rotate(-90,13777.6,29555.1)" />
      <g
         id="g1190"
         transform="rotate(-90,12185,45019.7)" />
      <g
         id="g1258"
         transform="rotate(-90,13000,31800)" />
      <g
         id="g1274"
         transform="rotate(-90,12734.3,29551.2)" />
      <g
         id="g1402"
         transform="rotate(-90,15485.7,25866.1)" />
      <g
         id="g1414"
         transform="rotate(-90,15485.7,19192.9)" />
      <g
         id="g1426" />
    </g>
    <g
       aria-label="IN "
       id="text6195-2-7-0"
       style="font-style:normal;font-variant:normal;font-weight:normal;font-stretch:normal;font-size:3.52777px;line-height:1.25;font-family:'Agency FB';-inkscape-font-specification:'Agency FB, Normal';font-variant-ligatures:normal;font-variant-caps:normal;font-variant-numeric:normal;font-variant-east-asian:normal;display:inline;fill:#000000;fill-opacity:1;stroke:none;stroke-width:0.264583">
      <path
         d="M 4.5894045,70.527809 H 4.3499708 v -2.695781 h 0.2394337 z"
         style="font-style:normal;font-variant:normal;font-weight:normal;font-stretch:normal;font-size:3.52777px;font-family:'Agency FB';-inkscape-font-specification:'Agency FB, Normal';font-variant-ligatures:normal;font-variant-caps:normal;font-variant-numeric:normal;font-variant-east-asian:normal;stroke-width:0.264583"
         id="path7381" />
      <path
         d="M 6.1500293,70.527809 H 5.9846651 L 5.2646417,68.545161 v 1.982648 H 5.0389884 V 67.832028 H 5.218133 l 0.706243,1.948197 v -1.948197 h 0.2256533 z"
         style="font-style:normal;font-variant:normal;font-weight:normal;font-stretch:normal;font-size:3.52777px;font-family:'Agency FB';-inkscape-font-specification:'Agency FB, Normal';font-variant-ligatures:normal;font-variant-caps:normal;font-variant-numeric:normal;font-variant-east-asian:normal;stroke-width:0.264583"
         id="path7383" />
    </g>
    <g
       aria-label="IN "
       id="text6195-2-7-0-0"
       style="font-style:normal;font-variant:normal;font-weight:normal;font-stretch:normal;font-size:3.52777px;line-height:1.25;font-family:'Agency FB';-inkscape-font-specification:'Agency FB, Normal';font-variant-ligatures:normal;font-variant-caps:normal;font-variant-numeric:normal;font-variant-east-asian:normal;display:inline;fill:#000000;fill-opacity:1;stroke:none;stroke-width:0.264583"
       transform="translate(-5e-8,0.52280401)">
      <path
         d="M 4.5894045,103.00501 H 4.3499708 v -2.69578 h 0.2394337 z"
         style="font-style:normal;font-variant:normal;font-weight:normal;font-stretch:normal;font-size:3.52777px;font-family:'Agency FB';-inkscape-font-specification:'Agency FB, Normal';font-variant-ligatures:normal;font-variant-caps:normal;font-variant-numeric:normal;font-variant-east-asian:normal;stroke-width:0.264583"
         id="path7376" />
      <path
         d="M 6.1500293,103.00501 H 5.9846651 l -0.7200234,-1.98265 v 1.98265 H 5.0389884 v -2.69578 H 5.218133 l 0.706243,1.9482 v -1.9482 h 0.2256533 z"
         style="font-style:normal;font-variant:normal;font-weight:normal;font-stretch:normal;font-size:3.52777px;font-family:'Agency FB';-inkscape-font-specification:'Agency FB, Normal';font-variant-ligatures:normal;font-variant-caps:normal;font-variant-numeric:normal;font-variant-east-asian:normal;stroke-width:0.264583"
         id="path7378" />
    </g>
    <g
       aria-label="OUT   "
       id="text6195-2-7-0-7"
       style="font-style:normal;font-variant:normal;font-weight:normal;font-stretch:normal;font-size:3.52777px;line-height:1.25;font-family:'Agency FB';-inkscape-font-specification:'Agency FB, Normal';font-variant-ligatures:normal;font-variant-caps:normal;font-variant-numeric:normal;font-variant-east-asian:normal;display:inline;fill:#000000;fill-opacity:1;stroke:none;stroke-width:0.264583">
      <path
         d="m 13.863751,70.336607 q 0,0.0844 -0.05512,0.137803 -0.0534,0.0534 -0.137804,0.0534 h -0.754474 q -0.08441,0 -0.137804,-0.0534 -0.0534,-0.0534 -0.0534,-0.137803 V 68.02323 q 0,-0.0844 0.0534,-0.137803 0.0534,-0.0534 0.137804,-0.0534 h 0.754474 q 0.08441,0 0.137804,0.0534 0.05512,0.0534 0.05512,0.137803 z m -0.239434,-0.02067 v -2.272035 h -0.659734 v 2.272035 z"
         style="font-style:normal;font-variant:normal;font-weight:normal;font-stretch:normal;font-size:3.52777px;font-family:'Agency FB';-inkscape-font-specification:'Agency FB, Normal';font-variant-ligatures:normal;font-variant-caps:normal;font-variant-numeric:normal;font-variant-east-asian:normal;stroke-width:0.264583"
         id="path7369" />
      <path
         d="m 15.414041,70.336607 q 0,0.0844 -0.05512,0.137803 -0.0534,0.0534 -0.137803,0.0534 h -0.733804 q -0.0844,0 -0.137804,-0.0534 -0.0534,-0.0534 -0.0534,-0.137803 v -2.504579 h 0.239434 v 2.483908 h 0.639064 v -2.483908 h 0.239434 z"
         style="font-style:normal;font-variant:normal;font-weight:normal;font-stretch:normal;font-size:3.52777px;font-family:'Agency FB';-inkscape-font-specification:'Agency FB, Normal';font-variant-ligatures:normal;font-variant-caps:normal;font-variant-numeric:normal;font-variant-east-asian:normal;stroke-width:0.264583"
         id="path7371" />
      <path
         d="m 16.77485,68.043901 h -0.416855 v 2.483908 H 16.118561 V 68.043901 H 15.69826 v -0.211873 h 1.07659 z"
         style="font-style:normal;font-variant:normal;font-weight:normal;font-stretch:normal;font-size:3.52777px;font-family:'Agency FB';-inkscape-font-specification:'Agency FB, Normal';font-variant-ligatures:normal;font-variant-caps:normal;font-variant-numeric:normal;font-variant-east-asian:normal;stroke-width:0.264583"
         id="path7373" />
    </g>
    <g
       aria-label="OUT   "
       id="text6195-2-7-0-7-4"
       style="font-style:normal;font-variant:normal;font-weight:normal;font-stretch:normal;font-size:3.52777px;line-height:1.25;font-family:'Agency FB';-inkscape-font-specification:'Agency FB, Normal';font-variant-ligatures:normal;font-variant-caps:normal;font-variant-numeric:normal;font-variant-east-asian:normal;display:inline;fill:#000000;fill-opacity:1;stroke:none;stroke-width:0.264583"
       transform="translate(5e-7,0.07497927)">
      <path
         d="m 13.863751,103.26163 q 0,0.0844 -0.05512,0.1378 -0.0534,0.0534 -0.137804,0.0534 h -0.754474 q -0.08441,0 -0.137804,-0.0534 -0.0534,-0.0534 -0.0534,-0.1378 v -2.31338 q 0,-0.0844 0.0534,-0.1378 0.0534,-0.0534 0.137804,-0.0534 h 0.754474 q 0.08441,0 0.137804,0.0534 0.05512,0.0534 0.05512,0.1378 z m -0.239434,-0.0207 v -2.27203 h -0.659734 v 2.27203 z"
         style="font-style:normal;font-variant:normal;font-weight:normal;font-stretch:normal;font-size:3.52777px;font-family:'Agency FB';-inkscape-font-specification:'Agency FB, Normal';font-variant-ligatures:normal;font-variant-caps:normal;font-variant-numeric:normal;font-variant-east-asian:normal;stroke-width:0.264583"
         id="path7362" />
      <path
         d="m 15.414041,103.26163 q 0,0.0844 -0.05512,0.1378 -0.0534,0.0534 -0.137803,0.0534 h -0.733804 q -0.0844,0 -0.137804,-0.0534 -0.0534,-0.0534 -0.0534,-0.1378 v -2.50458 h 0.239434 v 2.4839 h 0.639064 v -2.4839 h 0.239434 z"
         style="font-style:normal;font-variant:normal;font-weight:normal;font-stretch:normal;font-size:3.52777px;font-family:'Agency FB';-inkscape-font-specification:'Agency FB, Normal';font-variant-ligatures:normal;font-variant-caps:normal;font-variant-numeric:normal;font-variant-east-asian:normal;stroke-width:0.264583"
         id="path7364" />
      <path
         d="m 16.77485,100.96892 h -0.416855 v 2.48391 h -0.239434 v -2.48391 H 15.69826 v -0.21187 h 1.07659 z"
         style="font-style:normal;font-variant:normal;font-weight:normal;font-stretch:normal;font-size:3.52777px;font-family:'Agency FB';-inkscape-font-specification:'Agency FB, Normal';font-variant-ligatures:normal;font-variant-caps:normal;font-variant-numeric:normal;font-variant-east-asian:normal;stroke-width:0.264583"
         id="path7366" />
    </g>
    <g
       aria-label="ENV   "
       id="text6195-2-7-0-7-8"
       style="font-style:normal;font-variant:normal;font-weight:normal;font-stretch:normal;font-size:3.52777px;line-height:1.25;font-family:'Agency FB';-inkscape-font-specification:'Agency FB, Normal';font-variant-ligatures:normal;font-variant-caps:normal;font-variant-numeric:normal;font-variant-east-asian:normal;display:inline;fill:#000000;fill-opacity:1;stroke:none;stroke-width:0.264583">
      <path
         d="M 4.117434,83.495782 H 3.2320464 V 80.8 h 0.8750523 v 0.211873 H 3.47148 v 1.005966 h 0.5787748 v 0.215318 H 3.47148 v 1.050752 h 0.645954 z"
         style="font-style:normal;font-variant:normal;font-weight:normal;font-stretch:normal;font-size:3.52777px;font-family:'Agency FB';-inkscape-font-specification:'Agency FB, Normal';font-variant-ligatures:normal;font-variant-caps:normal;font-variant-numeric:normal;font-variant-east-asian:normal;stroke-width:0.264583"
         id="path7355" />
      <path
         d="M 5.6039894,83.495782 H 5.4386252 L 4.7186018,81.513134 v 1.982648 H 4.4929486 V 80.8 h 0.1791445 l 0.7062431,1.948198 V 80.8 h 0.2256532 z"
         style="font-style:normal;font-variant:normal;font-weight:normal;font-stretch:normal;font-size:3.52777px;font-family:'Agency FB';-inkscape-font-specification:'Agency FB, Normal';font-variant-ligatures:normal;font-variant-caps:normal;font-variant-numeric:normal;font-variant-east-asian:normal;stroke-width:0.264583"
         id="path7357" />
      <path
         d="M 7.0888223,80.8 6.6220128,83.502672 H 6.3963596 L 5.9295502,80.8 h 0.237711 l 0.3341736,2.14629 q 0,0 0.010335,0.1757 0.00172,-0.06029 0.012058,-0.1757 L 6.8580014,80.8 Z"
         style="font-style:normal;font-variant:normal;font-weight:normal;font-stretch:normal;font-size:3.52777px;font-family:'Agency FB';-inkscape-font-specification:'Agency FB, Normal';font-variant-ligatures:normal;font-variant-caps:normal;font-variant-numeric:normal;font-variant-east-asian:normal;stroke-width:0.264583"
         id="path7359" />
    </g>
    <g
       aria-label="ENV   "
       id="text6195-2-7-0-7-8-6"
       style="font-style:normal;font-variant:normal;font-weight:normal;font-stretch:normal;font-size:3.52777px;line-height:1.25;font-family:'Agency FB';-inkscape-font-specification:'Agency FB, Normal';font-variant-ligatures:normal;font-variant-caps:normal;font-variant-numeric:normal;font-variant-east-asian:normal;display:inline;fill:#000000;fill-opacity:1;stroke:none;stroke-width:0.264583"
       transform="translate(0,0.358215)">
      <path
         d="M 3.9383025,116.07816 H 3.0529149 v -2.69578 h 0.8750523 v 0.21187 H 3.2923485 v 1.00597 h 0.5787748 v 0.21532 H 3.2923485 v 1.05075 h 0.645954 z"
         style="font-style:normal;font-variant:normal;font-weight:normal;font-stretch:normal;font-size:3.52777px;font-family:'Agency FB';-inkscape-font-specification:'Agency FB, Normal';font-variant-ligatures:normal;font-variant-caps:normal;font-variant-numeric:normal;font-variant-east-asian:normal;stroke-width:0.264583"
         id="path7348" />
      <path
         d="M 5.4248579,116.07816 H 5.2594937 l -0.7200234,-1.98264 v 1.98264 H 4.3138171 v -2.69578 h 0.1791445 l 0.7062431,1.9482 v -1.9482 h 0.2256532 z"
         style="font-style:normal;font-variant:normal;font-weight:normal;font-stretch:normal;font-size:3.52777px;font-family:'Agency FB';-inkscape-font-specification:'Agency FB, Normal';font-variant-ligatures:normal;font-variant-caps:normal;font-variant-numeric:normal;font-variant-east-asian:normal;stroke-width:0.264583"
         id="path7350" />
      <path
         d="m 6.9096908,113.38238 -0.4668095,2.70267 H 6.2172281 l -0.4668094,-2.70267 h 0.237711 l 0.3341736,2.14629 q 0,0 0.010335,0.1757 0.00172,-0.0603 0.012058,-0.1757 l 0.3341736,-2.14629 z"
         style="font-style:normal;font-variant:normal;font-weight:normal;font-stretch:normal;font-size:3.52777px;font-family:'Agency FB';-inkscape-font-specification:'Agency FB, Normal';font-variant-ligatures:normal;font-variant-caps:normal;font-variant-numeric:normal;font-variant-east-asian:normal;stroke-width:0.264583"
         id="path7352" />
    </g>
    <g
       aria-label="GATE    "
       id="text6195-2-7-0-7-8-5"
       style="font-style:normal;font-variant:normal;font-weight:normal;font-stretch:normal;font-size:3.52777px;line-height:1.25;font-family:'Agency FB';-inkscape-font-specification:'Agency FB, Normal';font-variant-ligatures:normal;font-variant-caps:normal;font-variant-numeric:normal;font-variant-east-asian:normal;display:inline;fill:#000000;fill-opacity:1;stroke:none;stroke-width:0.264583"
       transform="translate(0,0.116011)">
      <path
         d="m 13.50631,83.195463 q 0,0.0844 -0.0534,0.137803 -0.0534,0.0534 -0.137803,0.0534 h -0.707966 q -0.08441,0 -0.137804,-0.0534 -0.0534,-0.0534 -0.0534,-0.137803 v -2.313377 q 0,-0.0844 0.0534,-0.137803 0.0534,-0.0534 0.137804,-0.0534 h 0.707966 q 0.0844,0 0.137803,0.0534 0.0534,0.0534 0.0534,0.137803 v 0.627006 h -0.241156 v -0.606335 h -0.609781 v 2.272035 h 0.609781 v -0.931896 h -0.287665 v -0.206705 h 0.528821 z"
         style="font-style:normal;font-variant:normal;font-weight:normal;font-stretch:normal;font-size:3.52777px;font-family:'Agency FB';-inkscape-font-specification:'Agency FB, Normal';font-variant-ligatures:normal;font-variant-caps:normal;font-variant-numeric:normal;font-variant-east-asian:normal;stroke-width:0.264583"
         id="path7339" />
      <path
         d="m 15.018704,83.386665 h -0.237711 l -0.09474,-0.599445 h -0.535712 l -0.09474,0.599445 H 13.82498 v -0.0069 l 0.480589,-2.695781 h 0.235989 z m -0.363457,-0.811318 -0.235989,-1.460717 -0.237711,1.460717 z"
         style="font-style:normal;font-variant:normal;font-weight:normal;font-stretch:normal;font-size:3.52777px;font-family:'Agency FB';-inkscape-font-specification:'Agency FB, Normal';font-variant-ligatures:normal;font-variant-caps:normal;font-variant-numeric:normal;font-variant-east-asian:normal;stroke-width:0.264583"
         id="path7341" />
      <path
         d="M 16.272715,80.902757 H 15.85586 v 2.483908 h -0.239434 v -2.483908 h -0.4203 v -0.211873 h 1.076589 z"
         style="font-style:normal;font-variant:normal;font-weight:normal;font-stretch:normal;font-size:3.52777px;font-family:'Agency FB';-inkscape-font-specification:'Agency FB, Normal';font-variant-ligatures:normal;font-variant-caps:normal;font-variant-numeric:normal;font-variant-east-asian:normal;stroke-width:0.264583"
         id="path7343" />
      <path
         d="m 17.442323,83.386665 h -0.885387 v -2.695781 h 0.875052 v 0.211873 h -0.635619 v 1.005966 h 0.578775 v 0.215318 h -0.578775 v 1.050751 h 0.645954 z"
         style="font-style:normal;font-variant:normal;font-weight:normal;font-stretch:normal;font-size:3.52777px;font-family:'Agency FB';-inkscape-font-specification:'Agency FB, Normal';font-variant-ligatures:normal;font-variant-caps:normal;font-variant-numeric:normal;font-variant-east-asian:normal;stroke-width:0.264583"
         id="path7345" />
    </g>
    <g
       aria-label="GATE    "
       id="text6195-2-7-0-7-8-5-6"
       style="font-style:normal;font-variant:normal;font-weight:normal;font-stretch:normal;font-size:3.52777px;line-height:1.25;font-family:'Agency FB';-inkscape-font-specification:'Agency FB, Normal';font-variant-ligatures:normal;font-variant-caps:normal;font-variant-numeric:normal;font-variant-east-asian:normal;display:inline;fill:#000000;fill-opacity:1;stroke:none;stroke-width:0.264583">
      <path
         d="m 13.327178,116.25212 q 0,0.0844 -0.0534,0.1378 -0.0534,0.0534 -0.137804,0.0534 H 12.42801 q -0.0844,0 -0.137803,-0.0534 -0.0534,-0.0534 -0.0534,-0.1378 v -2.31338 q 0,-0.0844 0.0534,-0.1378 0.0534,-0.0534 0.137803,-0.0534 h 0.707966 q 0.08441,0 0.137804,0.0534 0.0534,0.0534 0.0534,0.1378 v 0.62701 h -0.241156 v -0.60634 h -0.60978 v 2.27204 h 0.60978 v -0.9319 h -0.287665 v -0.2067 h 0.528821 z"
         style="font-style:normal;font-variant:normal;font-weight:normal;font-stretch:normal;font-size:3.52777px;font-family:'Agency FB';-inkscape-font-specification:'Agency FB, Normal';font-variant-ligatures:normal;font-variant-caps:normal;font-variant-numeric:normal;font-variant-east-asian:normal;stroke-width:0.264583"
         id="path7330" />
      <path
         d="m 14.839572,116.44332 h -0.237711 l -0.09474,-0.59944 H 13.97141 l -0.09474,0.59944 h -0.230821 v -0.007 l 0.48059,-2.69578 h 0.235988 z m -0.363457,-0.81132 -0.235988,-1.46071 -0.237711,1.46071 z"
         style="font-style:normal;font-variant:normal;font-weight:normal;font-stretch:normal;font-size:3.52777px;font-family:'Agency FB';-inkscape-font-specification:'Agency FB, Normal';font-variant-ligatures:normal;font-variant-caps:normal;font-variant-numeric:normal;font-variant-east-asian:normal;stroke-width:0.264583"
         id="path7332" />
      <path
         d="m 16.093584,113.95941 h -0.416856 v 2.48391 h -0.239433 v -2.48391 h -0.420301 v -0.21187 h 1.07659 z"
         style="font-style:normal;font-variant:normal;font-weight:normal;font-stretch:normal;font-size:3.52777px;font-family:'Agency FB';-inkscape-font-specification:'Agency FB, Normal';font-variant-ligatures:normal;font-variant-caps:normal;font-variant-numeric:normal;font-variant-east-asian:normal;stroke-width:0.264583"
         id="path7334" />
      <path
         d="m 17.263192,116.44332 h -0.885388 v -2.69578 h 0.875052 v 0.21187 h -0.635618 v 1.00597 h 0.578774 v 0.21532 h -0.578774 v 1.05075 h 0.645954 z"
         style="font-style:normal;font-variant:normal;font-weight:normal;font-stretch:normal;font-size:3.52777px;font-family:'Agency FB';-inkscape-font-specification:'Agency FB, Normal';font-variant-ligatures:normal;font-variant-caps:normal;font-variant-numeric:normal;font-variant-east-asian:normal;stroke-width:0.264583"
         id="path7336" />
    </g>
    <path
       id="path6517"
       style="fill:none;fill-opacity:1;stroke:#000000;stroke-width:0.136;stroke-linejoin:round;stroke-miterlimit:4;stroke-dasharray:none;paint-order:markers fill stroke"
       d="M 4.6713384,54.696 A 0.5822069,0.58220731 0 0 1 4.0891317,55.278208 0.5822069,0.58220731 0 0 1 3.5069248,54.696 0.5822069,0.58220731 0 0 1 4.0891317,54.113794 0.5822069,0.58220731 0 0 1 4.6713384,54.696 Z" />
    <path
       style="fill:none;stroke:#000000;stroke-width:0.179342;stroke-linecap:round;stroke-linejoin:round;stroke-miterlimit:4;stroke-dasharray:none;stroke-opacity:1"
       d="m 9.4258706,55.348289 -0.0023,-0.480395 -0.0039,-0.8393 c 0.07873,0.364937 0.2420957,0.668243 0.4783187,0.897861 0.06529,0.06346 0.1361427,0.121298 0.2123157,0.173249 0.1763,0.120242 0.381081,0.208965 0.611257,0.263013 v 0"
       id="path6522"
       sodipodi:nodetypes="cccsscc" />
    <path
       style="fill:none;stroke:#000000;stroke-width:0.2;stroke-linecap:butt;stroke-linejoin:miter;stroke-opacity:1;stroke-miterlimit:4;stroke-dasharray:none"
       d="m 14.791667,55.149851 h 0.633523 v -0.9077 h 0.944073 v 0.895757 h 0.583835 0.07697"
       id="path6524"
       sodipodi:nodetypes="ccccccc" />
    <path
       d="m 17.446889,87.683006 a 1.5261539,1.5261538 0 0 1 -1.526154,1.526151 1.5261539,1.5261538 0 0 1 -1.526154,-1.526151 1.5261539,1.5261538 0 0 1 1.526154,-1.52616 1.5261539,1.5261538 0 0 1 1.526154,1.52616"
       style="display:inline;fill:none;fill-opacity:1;stroke:#000000;stroke-width:0.0476922;stroke-linecap:square;stroke-linejoin:round;stroke-miterlimit:4;stroke-dasharray:none;stroke-opacity:1"
       id="path832-39-0-6-6-2-1-0-6-6-2-0-3-1-9-1-7" />
    <path
       d="m 11.536022,87.683006 a 1.5261539,1.5261538 0 0 1 -1.526154,1.526151 1.5261539,1.5261538 0 0 1 -1.526153,-1.526151 1.5261539,1.5261538 0 0 1 1.526153,-1.52616 1.5261539,1.5261538 0 0 1 1.526154,1.52616"
       style="display:inline;fill:none;fill-opacity:1;stroke:#000000;stroke-width:0.0476922;stroke-linecap:square;stroke-linejoin:round;stroke-miterlimit:4;stroke-dasharray:none;stroke-opacity:1"
       id="path832-39-0-6-6-2-1-0-6-6-2-0-3-1-9-5-6-7" />
    <path
       sodipodi:nodetypes="cccsscc"
       id="path6522-2"
       d="m 9.435739,88.335289 -0.0023,-0.480395 -0.0039,-0.8393 c 0.07873,0.364937 0.2420957,0.668243 0.478319,0.897861 0.06529,0.06346 0.136142,0.121298 0.212315,0.173249 0.1763,0.120242 0.38108,0.208965 0.611257,0.263013 v 0"
       style="display:inline;fill:none;stroke:#000000;stroke-width:0.179342;stroke-linecap:round;stroke-linejoin:round;stroke-miterlimit:4;stroke-dasharray:none;stroke-opacity:1" />
    <path
       sodipodi:nodetypes="ccccccc"
       id="path6524-7"
       d="m 14.801535,88.136851 h 0.633523 v -0.9077 h 0.944073 v 0.895757 h 0.583835 0.07697"
       style="display:inline;fill:none;stroke:#000000;stroke-width:0.2;stroke-linecap:butt;stroke-linejoin:miter;stroke-miterlimit:4;stroke-dasharray:none;stroke-opacity:1" />
    <path
       id="rect815-5"
       style="display:inline;fill:none;fill-opacity:1;stroke:#000000;stroke-width:0.0654037;stroke-linecap:square;stroke-linejoin:round;stroke-miterlimit:4;stroke-dasharray:none;stroke-opacity:1"
       d="M 0.03270122,9.2827019 H 19.967297 V 119.21729 H 0.03270122 Z" />
    <path
       d="m 13.575,22 a 3.4999999,3.4999999 0 0 1 -3.5,3.5 3.4999999,3.4999999 0 0 1 -3.5,-3.5 3.4999999,3.4999999 0 0 1 3.5,-3.5 3.4999999,3.4999999 0 0 1 3.5,3.5"
       style="display:inline;fill:none;fill-opacity:1;stroke:#000000;stroke-width:0.1;stroke-linecap:square;stroke-linejoin:round;stroke-miterlimit:4;stroke-dasharray:none;stroke-opacity:1"
       id="path832-39-0-6-6-2-5-6-2-1-71" />
    <path
       d="M 13.575,43.000001 A 3.4999999,3.4999999 0 0 1 10.075001,46.5 3.4999999,3.4999999 0 0 1 6.575,43.000001 3.4999999,3.4999999 0 0 1 10.075001,39.5 3.4999999,3.4999999 0 0 1 13.575,43.000001"
       style="display:inline;fill:none;fill-opacity:1;stroke:#000000;stroke-width:0.1;stroke-linecap:square;stroke-linejoin:round;stroke-miterlimit:4;stroke-dasharray:none;stroke-opacity:1"
       id="path832-39-0-6-6-2-5-6-2-1-3" />
    <path
       id="path832-39-0-6-6-2-0-72-7"
       style="display:inline;fill:none;fill-opacity:1;stroke:#000000;stroke-width:0.1;stroke-linecap:square;stroke-linejoin:round;stroke-miterlimit:4;stroke-dasharray:none;stroke-opacity:1"
       d="m 8.2500001,108.664 a 3.0000001,3.0000001 0 0 1 -3.0000001,3 3.0000001,3.0000001 0 0 1 -3,-3 3.0000001,3.0000001 0 0 1 3,-3 3.0000001,3.0000001 0 0 1 3.0000001,3" />
    <path
       id="path832-39-0-6-6-2-0-72-2"
       style="display:inline;fill:none;fill-opacity:1;stroke:#000000;stroke-width:0.1;stroke-linecap:square;stroke-linejoin:round;stroke-miterlimit:4;stroke-dasharray:none;stroke-opacity:1"
       d="m 8.2499998,75.664 a 3.0000001,3.0000001 0 0 1 -2.9999997,3 3.0000001,3.0000001 0 0 1 -3,-3 3.0000001,3.0000001 0 0 1 3,-3 3.0000001,3.0000001 0 0 1 2.9999997,3" />
    <path
       sodipodi:type="star"
       style="fill:none;fill-opacity:1;stroke:#000000;stroke-width:0.16273839;stroke-linecap:round;stroke-linejoin:miter;stroke-miterlimit:4;stroke-dasharray:none;paint-order:markers fill stroke"
       id="path7407"
       sodipodi:sides="8"
       sodipodi:cx="4.0638347"
       sodipodi:cy="54.686066"
       sodipodi:r1="0.99436414"
       sodipodi:r2="0.49718207"
       sodipodi:arg1="0.61106656"
       sodipodi:arg2="1.0037656"
       inkscape:flatsided="false"
       inkscape:rounded="0"
       inkscape:randomized="0"
       d="M 4.8782552,55.256573 4.330886,55.105439 4.236307,55.665358 3.9561271,55.171441 l -0.4628002,0.329045 0.1511349,-0.547369 -0.5599194,-0.09458 0.4939171,-0.28018 -0.3290454,-0.4628 0.5473692,0.151135 0.094579,-0.55992 0.28018,0.493917 0.4628002,-0.329045 -0.151135,0.547369 0.5599194,0.09458 -0.493917,0.28018 z"
       transform="matrix(0.83771747,0,0,0.83368157,0.68478628,9.1052359)" />
    <path
       id="path832-39-0-6-6-2-5-6-2-1-3-7"
       style="display:inline;fill:none;fill-opacity:1;stroke:#000000;stroke-width:0.225352;stroke-linecap:square;stroke-linejoin:round;stroke-miterlimit:4;stroke-dasharray:none;stroke-opacity:1"
       d="m 17.962324,43.000002 a 7.8873226,7.8873237 0 0 1 -7.887323,7.887322 7.8873226,7.8873237 0 0 1 -7.887325,-7.887322 7.8873226,7.8873237 0 0 1 7.887325,-7.887326 7.8873226,7.8873237 0 0 1 7.887323,7.887326" />
    <path
       d="m 17.962324,22.000002 a 7.8873226,7.8873239 0 0 1 -7.887323,7.887322 7.8873226,7.8873239 0 0 1 -7.8873251,-7.887322 7.8873226,7.8873239 0 0 1 7.8873251,-7.887326 7.8873226,7.8873239 0 0 1 7.887323,7.887326"
       style="display:inline;fill:none;fill-opacity:1;stroke:#000000;stroke-width:0.225352;stroke-linecap:square;stroke-linejoin:round;stroke-miterlimit:4;stroke-dasharray:none;stroke-opacity:1"
       id="path832-39-0-6-6-2-5-6-2-1-3-7-9" />
    <path
       id="path832-39-0-6-6-2-1-0-6-6-2-0-3-1-9-0-4-4"
       style="display:inline;fill:none;fill-opacity:1;stroke:#000000;stroke-width:0.0476922;stroke-linecap:square;stroke-linejoin:round;stroke-miterlimit:4;stroke-dasharray:none;stroke-opacity:1"
       d="m 5.6152855,87.696006 a 1.5261539,1.5261538 0 0 1 -1.5261539,1.52615 1.5261539,1.5261538 0 0 1 -1.526154,-1.52615 1.5261539,1.5261538 0 0 1 1.526154,-1.52616 1.5261539,1.5261538 0 0 1 1.5261539,1.52616" />
    <path
       id="path6517-4"
       style="display:inline;fill:none;fill-opacity:1;stroke:#000000;stroke-width:0.136;stroke-linejoin:round;stroke-miterlimit:4;stroke-dasharray:none;paint-order:markers fill stroke"
       d="M 4.6713384,87.696 A 0.58220689,0.58220732 0 0 1 4.0891317,88.278208 0.58220689,0.58220732 0 0 1 3.5069248,87.696 0.58220689,0.58220732 0 0 1 4.0891317,87.113794 0.58220689,0.58220732 0 0 1 4.6713384,87.696 Z" />
    <path
       sodipodi:type="star"
       style="display:inline;fill:none;fill-opacity:1;stroke:#000000;stroke-width:0.162738;stroke-linecap:round;stroke-linejoin:miter;stroke-miterlimit:4;stroke-dasharray:none;paint-order:markers fill stroke"
       id="path7407-5"
       sodipodi:sides="8"
       sodipodi:cx="4.0638347"
       sodipodi:cy="54.686066"
       sodipodi:r1="0.99436414"
       sodipodi:r2="0.49718207"
       sodipodi:arg1="0.61106656"
       sodipodi:arg2="1.0037656"
       inkscape:flatsided="false"
       inkscape:rounded="0"
       inkscape:randomized="0"
       d="M 4.8782552,55.256573 4.330886,55.105439 4.236307,55.665358 3.9561271,55.171441 l -0.4628002,0.329045 0.1511349,-0.547369 -0.5599194,-0.09458 0.4939171,-0.28018 -0.3290454,-0.4628 0.5473692,0.151135 0.094579,-0.55992 0.28018,0.493917 0.4628002,-0.329045 -0.151135,0.547369 0.5599194,0.09458 -0.493917,0.28018 z"
       transform="matrix(0.83771748,0,0,0.83368158,0.68478622,42.105236)" />
  </g>
  <g
     style="display:inline"
     inkscape:label="F.SilkS"
     id="layer2"
     inkscape:groupmode="layer" />
</svg>
