999
"DXF R12 Output" (www.mydxf.blogspot.com)
 0 
SECTION
 2 
HEADER
 9 
$ACADVER
 1 
AC1009
 9 
$EXTMIN
 10 
 0 
 20 
 0 
 9 
$EXTMAX
 10 
 8.5 
 20 
 11 
 0 
ENDSEC
 0 
SECTION
 2 
ENTITIES
0
LINE
8
Layer 1
10
0.000000
20
0.000000
11
5.000000
21
-5.000000
0
LINE
8
Layer 1
10
5.000000
20
-5.000000
11
-12.500000
21
0.000000
0
LINE
8
Layer 1
10
-12.500000
20
0.000000
11
5.000000
21
5.000000
0
LINE
8
Layer 1
10
5.000000
20
5.000000
11
0.000000
21
0.000000
0
LINE
8
Layer 1
10
0.000000
20
0.000000
11
0.000000
21
0.000000
0
LINE
8
Dwgs.User
10
-0.039528
20
0.035473
11
20.039500
21
0.035473
0
LINE
8
Dwgs.User
10
20.039500
20
0.035473
11
20.039500
21
128.465000
0
LINE
8
Dwgs.User
10
20.039500
20
128.465000
11
-0.039528
21
128.465000
0
LINE
8
Dwgs.User
10
-0.039528
20
128.465000
11
-0.039528
21
0.035473
0
LINE
8
Dwgs.User
10
9.050000
20
3.000000
11
8.932013
21
3.593159
0
LINE
8
Dwgs.User
10
8.932013
20
3.593159
11
8.596016
21
4.096016
0
LINE
8
Dwgs.User
10
8.596016
20
4.096016
11
8.093159
21
4.432013
0
LINE
8
Dwgs.User
10
8.093159
20
4.432013
11
7.500000
21
4.550000
0
LINE
8
Dwgs.User
10
7.500000
20
4.550000
11
6.906841
21
4.432013
0
LINE
8
Dwgs.User
10
6.906841
20
4.432013
11
6.403984
21
4.096016
0
LINE
8
Dwgs.User
10
6.403984
20
4.096016
11
6.067987
21
3.593159
0
LINE
8
Dwgs.User
10
6.067987
20
3.593159
11
5.950000
21
3.000000
0
LINE
8
Dwgs.User
10
5.950000
20
3.000000
11
6.067987
21
2.406841
0
LINE
8
Dwgs.User
10
6.067987
20
2.406841
11
6.403984
21
1.903984
0
LINE
8
Dwgs.User
10
6.403984
20
1.903984
11
6.906841
21
1.567987
0
LINE
8
Dwgs.User
10
6.906841
20
1.567987
11
7.500000
21
1.450000
0
LINE
8
Dwgs.User
10
7.500000
20
1.450000
11
8.093159
21
1.567987
0
LINE
8
Dwgs.User
10
8.093159
20
1.567987
11
8.596016
21
1.903984
0
LINE
8
Dwgs.User
10
8.596016
20
1.903984
11
8.932013
21
2.406841
0
LINE
8
Dwgs.User
10
8.932013
20
2.406841
11
9.050000
21
3.000000
0
LINE
8
Dwgs.User
10
14.130000
20
125.500000
11
14.012013
21
126.093159
0
LINE
8
Dwgs.User
10
14.012013
20
126.093159
11
13.676016
21
126.596016
0
LINE
8
Dwgs.User
10
13.676016
20
126.596016
11
13.173159
21
126.932013
0
LINE
8
Dwgs.User
10
13.173159
20
126.932013
11
12.580000
21
127.050000
0
LINE
8
Dwgs.User
10
12.580000
20
127.050000
11
11.986841
21
126.932013
0
LINE
8
Dwgs.User
10
11.986841
20
126.932013
11
11.483984
21
126.596016
0
LINE
8
Dwgs.User
10
11.483984
20
126.596016
11
11.147987
21
126.093159
0
LINE
8
Dwgs.User
10
11.147987
20
126.093159
11
11.030000
21
125.500000
0
LINE
8
Dwgs.User
10
11.030000
20
125.500000
11
11.147987
21
124.906841
0
LINE
8
Dwgs.User
10
11.147987
20
124.906841
11
11.483984
21
124.403984
0
LINE
8
Dwgs.User
10
11.483984
20
124.403984
11
11.986841
21
124.067987
0
LINE
8
Dwgs.User
10
11.986841
20
124.067987
11
12.580000
21
123.950000
0
LINE
8
Dwgs.User
10
12.580000
20
123.950000
11
13.173159
21
124.067987
0
LINE
8
Dwgs.User
10
13.173159
20
124.067987
11
13.676016
21
124.403984
0
LINE
8
Dwgs.User
10
13.676016
20
124.403984
11
14.012013
21
124.906841
0
LINE
8
Dwgs.User
10
14.012013
20
124.906841
11
14.130000
21
125.500000
0
LINE
8
Dwgs.User
10
17.750000
20
108.664000
11
17.521639
21
109.812050
0
LINE
8
Dwgs.User
10
17.521639
20
109.812050
11
16.871320
21
110.785320
0
LINE
8
Dwgs.User
10
16.871320
20
110.785320
11
15.898050
21
111.435639
0
LINE
8
Dwgs.User
10
15.898050
20
111.435639
11
14.750000
21
111.664000
0
LINE
8
Dwgs.User
10
14.750000
20
111.664000
11
13.601950
21
111.435639
0
LINE
8
Dwgs.User
10
13.601950
20
111.435639
11
12.628680
21
110.785320
0
LINE
8
Dwgs.User
10
12.628680
20
110.785320
11
11.978361
21
109.812050
0
LINE
8
Dwgs.User
10
11.978361
20
109.812050
11
11.750000
21
108.664000
0
LINE
8
Dwgs.User
10
11.750000
20
108.664000
11
11.978361
21
107.515950
0
LINE
8
Dwgs.User
10
11.978361
20
107.515950
11
12.628680
21
106.542680
0
LINE
8
Dwgs.User
10
12.628680
20
106.542680
11
13.601950
21
105.892361
0
LINE
8
Dwgs.User
10
13.601950
20
105.892361
11
14.750000
21
105.664000
0
LINE
8
Dwgs.User
10
14.750000
20
105.664000
11
15.898050
21
105.892361
0
LINE
8
Dwgs.User
10
15.898050
20
105.892361
11
16.871320
21
106.542680
0
LINE
8
Dwgs.User
10
16.871320
20
106.542680
11
17.521639
21
107.515950
0
LINE
8
Dwgs.User
10
17.521639
20
107.515950
11
17.750000
21
108.664000
0
LINE
8
Dwgs.User
10
8.250000
20
95.695800
11
8.021639
21
96.843850
0
LINE
8
Dwgs.User
10
8.021639
20
96.843850
11
7.371320
21
97.817120
0
LINE
8
Dwgs.User
10
7.371320
20
97.817120
11
6.398050
21
98.467439
0
LINE
8
Dwgs.User
10
6.398050
20
98.467439
11
5.250000
21
98.695800
0
LINE
8
Dwgs.User
10
5.250000
20
98.695800
11
4.101950
21
98.467439
0
LINE
8
Dwgs.User
10
4.101950
20
98.467439
11
3.128680
21
97.817120
0
LINE
8
Dwgs.User
10
3.128680
20
97.817120
11
2.478361
21
96.843850
0
LINE
8
Dwgs.User
10
2.478361
20
96.843850
11
2.250000
21
95.695800
0
LINE
8
Dwgs.User
10
2.250000
20
95.695800
11
2.478361
21
94.547750
0
LINE
8
Dwgs.User
10
2.478361
20
94.547750
11
3.128680
21
93.574480
0
LINE
8
Dwgs.User
10
3.128680
20
93.574480
11
4.101950
21
92.924161
0
LINE
8
Dwgs.User
10
4.101950
20
92.924161
11
5.250000
21
92.695800
0
LINE
8
Dwgs.User
10
5.250000
20
92.695800
11
6.398050
21
92.924161
0
LINE
8
Dwgs.User
10
6.398050
20
92.924161
11
7.371320
21
93.574480
0
LINE
8
Dwgs.User
10
7.371320
20
93.574480
11
8.021639
21
94.547750
0
LINE
8
Dwgs.User
10
8.021639
20
94.547750
11
8.250000
21
95.695800
0
LINE
8
Dwgs.User
10
17.750000
20
95.695800
11
17.521639
21
96.843850
0
LINE
8
Dwgs.User
10
17.521639
20
96.843850
11
16.871320
21
97.817120
0
LINE
8
Dwgs.User
10
16.871320
20
97.817120
11
15.898050
21
98.467439
0
LINE
8
Dwgs.User
10
15.898050
20
98.467439
11
14.750000
21
98.695800
0
LINE
8
Dwgs.User
10
14.750000
20
98.695800
11
13.601950
21
98.467439
0
LINE
8
Dwgs.User
10
13.601950
20
98.467439
11
12.628680
21
97.817120
0
LINE
8
Dwgs.User
10
12.628680
20
97.817120
11
11.978361
21
96.843850
0
LINE
8
Dwgs.User
10
11.978361
20
96.843850
11
11.750000
21
95.695800
0
LINE
8
Dwgs.User
10
11.750000
20
95.695800
11
11.978361
21
94.547750
0
LINE
8
Dwgs.User
10
11.978361
20
94.547750
11
12.628680
21
93.574480
0
LINE
8
Dwgs.User
10
12.628680
20
93.574480
11
13.601950
21
92.924161
0
LINE
8
Dwgs.User
10
13.601950
20
92.924161
11
14.750000
21
92.695800
0
LINE
8
Dwgs.User
10
14.750000
20
92.695800
11
15.898050
21
92.924161
0
LINE
8
Dwgs.User
10
15.898050
20
92.924161
11
16.871320
21
93.574480
0
LINE
8
Dwgs.User
10
16.871320
20
93.574480
11
17.521639
21
94.547750
0
LINE
8
Dwgs.User
10
17.521639
20
94.547750
11
17.750000
21
95.695800
0
LINE
8
Dwgs.User
10
17.750000
20
75.664000
11
17.521639
21
76.812050
0
LINE
8
Dwgs.User
10
17.521639
20
76.812050
11
16.871320
21
77.785320
0
LINE
8
Dwgs.User
10
16.871320
20
77.785320
11
15.898050
21
78.435639
0
LINE
8
Dwgs.User
10
15.898050
20
78.435639
11
14.750000
21
78.664000
0
LINE
8
Dwgs.User
10
14.750000
20
78.664000
11
13.601950
21
78.435639
0
LINE
8
Dwgs.User
10
13.601950
20
78.435639
11
12.628680
21
77.785320
0
LINE
8
Dwgs.User
10
12.628680
20
77.785320
11
11.978361
21
76.812050
0
LINE
8
Dwgs.User
10
11.978361
20
76.812050
11
11.750000
21
75.664000
0
LINE
8
Dwgs.User
10
11.750000
20
75.664000
11
11.978361
21
74.515950
0
LINE
8
Dwgs.User
10
11.978361
20
74.515950
11
12.628680
21
73.542680
0
LINE
8
Dwgs.User
10
12.628680
20
73.542680
11
13.601950
21
72.892361
0
LINE
8
Dwgs.User
10
13.601950
20
72.892361
11
14.750000
21
72.664000
0
LINE
8
Dwgs.User
10
14.750000
20
72.664000
11
15.898050
21
72.892361
0
LINE
8
Dwgs.User
10
15.898050
20
72.892361
11
16.871320
21
73.542680
0
LINE
8
Dwgs.User
10
16.871320
20
73.542680
11
17.521639
21
74.515950
0
LINE
8
Dwgs.User
10
17.521639
20
74.515950
11
17.750000
21
75.664000
0
LINE
8
Dwgs.User
10
8.250000
20
62.695800
11
8.021639
21
63.843850
0
LINE
8
Dwgs.User
10
8.021639
20
63.843850
11
7.371320
21
64.817120
0
LINE
8
Dwgs.User
10
7.371320
20
64.817120
11
6.398050
21
65.467439
0
LINE
8
Dwgs.User
10
6.398050
20
65.467439
11
5.250000
21
65.695800
0
LINE
8
Dwgs.User
10
5.250000
20
65.695800
11
4.101950
21
65.467439
0
LINE
8
Dwgs.User
10
4.101950
20
65.467439
11
3.128680
21
64.817120
0
LINE
8
Dwgs.User
10
3.128680
20
64.817120
11
2.478361
21
63.843850
0
LINE
8
Dwgs.User
10
2.478361
20
63.843850
11
2.250000
21
62.695800
0
LINE
8
Dwgs.User
10
2.250000
20
62.695800
11
2.478361
21
61.547750
0
LINE
8
Dwgs.User
10
2.478361
20
61.547750
11
3.128680
21
60.574480
0
LINE
8
Dwgs.User
10
3.128680
20
60.574480
11
4.101950
21
59.924161
0
LINE
8
Dwgs.User
10
4.101950
20
59.924161
11
5.250000
21
59.695800
0
LINE
8
Dwgs.User
10
5.250000
20
59.695800
11
6.398050
21
59.924161
0
LINE
8
Dwgs.User
10
6.398050
20
59.924161
11
7.371320
21
60.574480
0
LINE
8
Dwgs.User
10
7.371320
20
60.574480
11
8.021639
21
61.547750
0
LINE
8
Dwgs.User
10
8.021639
20
61.547750
11
8.250000
21
62.695800
0
LINE
8
Dwgs.User
10
17.750000
20
62.695800
11
17.521639
21
63.843850
0
LINE
8
Dwgs.User
10
17.521639
20
63.843850
11
16.871320
21
64.817120
0
LINE
8
Dwgs.User
10
16.871320
20
64.817120
11
15.898050
21
65.467439
0
LINE
8
Dwgs.User
10
15.898050
20
65.467439
11
14.750000
21
65.695800
0
LINE
8
Dwgs.User
10
14.750000
20
65.695800
11
13.601950
21
65.467439
0
LINE
8
Dwgs.User
10
13.601950
20
65.467439
11
12.628680
21
64.817120
0
LINE
8
Dwgs.User
10
12.628680
20
64.817120
11
11.978361
21
63.843850
0
LINE
8
Dwgs.User
10
11.978361
20
63.843850
11
11.750000
21
62.695800
0
LINE
8
Dwgs.User
10
11.750000
20
62.695800
11
11.978361
21
61.547750
0
LINE
8
Dwgs.User
10
11.978361
20
61.547750
11
12.628680
21
60.574480
0
LINE
8
Dwgs.User
10
12.628680
20
60.574480
11
13.601950
21
59.924161
0
LINE
8
Dwgs.User
10
13.601950
20
59.924161
11
14.750000
21
59.695800
0
LINE
8
Dwgs.User
10
14.750000
20
59.695800
11
15.898050
21
59.924161
0
LINE
8
Dwgs.User
10
15.898050
20
59.924161
11
16.871320
21
60.574480
0
LINE
8
Dwgs.User
10
16.871320
20
60.574480
11
17.521639
21
61.547750
0
LINE
8
Dwgs.User
10
17.521639
20
61.547750
11
17.750000
21
62.695800
0
LINE
8
Layer 1
10
17.199200
20
113.845000
11
17.083029
21
114.429032
0
LINE
8
Layer 1
10
17.083029
20
114.429032
11
16.752201
21
114.924151
0
LINE
8
Layer 1
10
16.752201
20
114.924151
11
16.257082
21
115.254979
0
LINE
8
Layer 1
10
16.257082
20
115.254979
11
15.673050
21
115.371150
0
LINE
8
Layer 1
10
15.673050
20
115.371150
11
15.089018
21
115.254979
0
LINE
8
Layer 1
10
15.089018
20
115.254979
11
14.593899
21
114.924151
0
LINE
8
Layer 1
10
14.593899
20
114.924151
11
14.263071
21
114.429032
0
LINE
8
Layer 1
10
14.263071
20
114.429032
11
14.146900
21
113.845000
0
LINE
8
Layer 1
10
14.146900
20
113.845000
11
14.263068
21
113.260965
0
LINE
8
Layer 1
10
14.263068
20
113.260965
11
14.593895
21
112.765843
0
LINE
8
Layer 1
10
14.593895
20
112.765843
11
15.089015
21
112.435012
0
LINE
8
Layer 1
10
15.089015
20
112.435012
11
15.673050
21
112.318840
0
LINE
8
Layer 1
10
15.673050
20
112.318840
11
16.257085
21
112.435012
0
LINE
8
Layer 1
10
16.257085
20
112.435012
11
16.752205
21
112.765843
0
LINE
8
Layer 1
10
16.752205
20
112.765843
11
17.083032
21
113.260965
0
LINE
8
Layer 1
10
17.083032
20
113.260965
11
17.199200
21
113.845000
0
LINE
8
Layer 1
10
11.288300
20
113.845000
11
11.172129
21
114.429032
0
LINE
8
Layer 1
10
11.172129
20
114.429032
11
10.841301
21
114.924151
0
LINE
8
Layer 1
10
10.841301
20
114.924151
11
10.346182
21
115.254979
0
LINE
8
Layer 1
10
10.346182
20
115.254979
11
9.762150
21
115.371150
0
LINE
8
Layer 1
10
9.762150
20
115.371150
11
9.178118
21
115.254979
0
LINE
8
Layer 1
10
9.178118
20
115.254979
11
8.682999
21
114.924151
0
LINE
8
Layer 1
10
8.682999
20
114.924151
11
8.352171
21
114.429032
0
LINE
8
Layer 1
10
8.352171
20
114.429032
11
8.236000
21
113.845000
0
LINE
8
Layer 1
10
8.236000
20
113.845000
11
8.352168
21
113.260965
0
LINE
8
Layer 1
10
8.352168
20
113.260965
11
8.682995
21
112.765843
0
LINE
8
Layer 1
10
8.682995
20
112.765843
11
9.178115
21
112.435012
0
LINE
8
Layer 1
10
9.178115
20
112.435012
11
9.762150
21
112.318840
0
LINE
8
Layer 1
10
9.762150
20
112.318840
11
10.346185
21
112.435012
0
LINE
8
Layer 1
10
10.346185
20
112.435012
11
10.841305
21
112.765843
0
LINE
8
Layer 1
10
10.841305
20
112.765843
11
11.172132
21
113.260965
0
LINE
8
Layer 1
10
11.172132
20
113.260965
11
11.288300
21
113.845000
0
LINE
8
Layer 1
10
5.377480
20
113.845000
11
5.261309
21
114.429032
0
LINE
8
Layer 1
10
5.261309
20
114.429032
11
4.930481
21
114.924151
0
LINE
8
Layer 1
10
4.930481
20
114.924151
11
4.435362
21
115.254979
0
LINE
8
Layer 1
10
4.435362
20
115.254979
11
3.851330
21
115.371150
0
LINE
8
Layer 1
10
3.851330
20
115.371150
11
3.267298
21
115.254979
0
LINE
8
Layer 1
10
3.267298
20
115.254979
11
2.772179
21
114.924151
0
LINE
8
Layer 1
10
2.772179
20
114.924151
11
2.441351
21
114.429032
0
LINE
8
Layer 1
10
2.441351
20
114.429032
11
2.325180
21
113.845000
0
LINE
8
Layer 1
10
2.325180
20
113.845000
11
2.441348
21
113.260965
0
LINE
8
Layer 1
10
2.441348
20
113.260965
11
2.772175
21
112.765843
0
LINE
8
Layer 1
10
2.772175
20
112.765843
11
3.267295
21
112.435012
0
LINE
8
Layer 1
10
3.267295
20
112.435012
11
3.851330
21
112.318840
0
LINE
8
Layer 1
10
3.851330
20
112.318840
11
4.435365
21
112.435012
0
LINE
8
Layer 1
10
4.435365
20
112.435012
11
4.930485
21
112.765843
0
LINE
8
Layer 1
10
4.930485
20
112.765843
11
5.261312
21
113.260965
0
LINE
8
Layer 1
10
5.261312
20
113.260965
11
5.377480
21
113.845000
0
LINE
8
Dwgs.User
10
17.437000
20
54.696000
11
17.320829
21
55.280032
0
LINE
8
Dwgs.User
10
17.320829
20
55.280032
11
16.990001
21
55.775151
0
LINE
8
Dwgs.User
10
16.990001
20
55.775151
11
16.494882
21
56.105979
0
LINE
8
Dwgs.User
10
16.494882
20
56.105979
11
15.910850
21
56.222150
0
LINE
8
Dwgs.User
10
15.910850
20
56.222150
11
15.326818
21
56.105979
0
LINE
8
Dwgs.User
10
15.326818
20
56.105979
11
14.831699
21
55.775151
0
LINE
8
Dwgs.User
10
14.831699
20
55.775151
11
14.500871
21
55.280032
0
LINE
8
Dwgs.User
10
14.500871
20
55.280032
11
14.384700
21
54.696000
0
LINE
8
Dwgs.User
10
14.384700
20
54.696000
11
14.500868
21
54.111965
0
LINE
8
Dwgs.User
10
14.500868
20
54.111965
11
14.831695
21
53.616843
0
LINE
8
Dwgs.User
10
14.831695
20
53.616843
11
15.326815
21
53.286012
0
LINE
8
Dwgs.User
10
15.326815
20
53.286012
11
15.910850
21
53.169840
0
LINE
8
Dwgs.User
10
15.910850
20
53.169840
11
16.494885
21
53.286012
0
LINE
8
Dwgs.User
10
16.494885
20
53.286012
11
16.990005
21
53.616843
0
LINE
8
Dwgs.User
10
16.990005
20
53.616843
11
17.320832
21
54.111965
0
LINE
8
Dwgs.User
10
17.320832
20
54.111965
11
17.437000
21
54.696000
0
LINE
8
Dwgs.User
10
11.526200
20
54.696000
11
11.410038
21
55.280059
0
LINE
8
Dwgs.User
10
11.410038
20
55.280059
11
11.079201
21
55.775201
0
LINE
8
Dwgs.User
10
11.079201
20
55.775201
11
10.584059
21
56.106038
0
LINE
8
Dwgs.User
10
10.584059
20
56.106038
11
10.000000
21
56.222200
0
LINE
8
Dwgs.User
10
10.000000
20
56.222200
11
9.415956
21
56.106024
0
LINE
8
Dwgs.User
10
9.415956
20
56.106024
11
8.920831
21
55.775183
0
LINE
8
Dwgs.User
10
8.920831
20
55.775183
11
8.590007
21
55.280048
0
LINE
8
Dwgs.User
10
8.590007
20
55.280048
11
8.473850
21
54.696000
0
LINE
8
Dwgs.User
10
8.473850
20
54.696000
11
8.590007
21
54.111952
0
LINE
8
Dwgs.User
10
8.590007
20
54.111952
11
8.920831
21
53.616817
0
LINE
8
Dwgs.User
10
8.920831
20
53.616817
11
9.415956
21
53.285976
0
LINE
8
Dwgs.User
10
9.415956
20
53.285976
11
10.000000
21
53.169800
0
LINE
8
Dwgs.User
10
10.000000
20
53.169800
11
10.584035
21
53.285972
0
LINE
8
Dwgs.User
10
10.584035
20
53.285972
11
11.079155
21
53.616803
0
LINE
8
Dwgs.User
10
11.079155
20
53.616803
11
11.409982
21
54.111925
0
LINE
8
Dwgs.User
10
11.409982
20
54.111925
11
11.526150
21
54.695960
0
LINE
8
Dwgs.User
10
5.615290
20
54.696000
11
5.499119
21
55.280032
0
LINE
8
Dwgs.User
10
5.499119
20
55.280032
11
5.168291
21
55.775151
0
LINE
8
Dwgs.User
10
5.168291
20
55.775151
11
4.673172
21
56.105979
0
LINE
8
Dwgs.User
10
4.673172
20
56.105979
11
4.089140
21
56.222150
0
LINE
8
Dwgs.User
10
4.089140
20
56.222150
11
3.505108
21
56.105979
0
LINE
8
Dwgs.User
10
3.505108
20
56.105979
11
3.009989
21
55.775151
0
LINE
8
Dwgs.User
10
3.009989
20
55.775151
11
2.679161
21
55.280032
0
LINE
8
Dwgs.User
10
2.679161
20
55.280032
11
2.562990
21
54.696000
0
LINE
8
Dwgs.User
10
2.562990
20
54.696000
11
2.679158
21
54.111965
0
LINE
8
Dwgs.User
10
2.679158
20
54.111965
11
3.009985
21
53.616843
0
LINE
8
Dwgs.User
10
3.009985
20
53.616843
11
3.505105
21
53.286012
0
LINE
8
Dwgs.User
10
3.505105
20
53.286012
11
4.089140
21
53.169840
0
LINE
8
Dwgs.User
10
4.089140
20
53.169840
11
4.673175
21
53.286012
0
LINE
8
Dwgs.User
10
4.673175
20
53.286012
11
5.168295
21
53.616843
0
LINE
8
Dwgs.User
10
5.168295
20
53.616843
11
5.499122
21
54.111965
0
LINE
8
Dwgs.User
10
5.499122
20
54.111965
11
5.615290
21
54.696000
0
LINE
8
Layer 1
10
4.589400
20
70.527800
11
4.349970
21
70.527800
0
LINE
8
Layer 1
10
4.349970
20
70.527800
11
4.349970
21
67.832020
0
LINE
8
Layer 1
10
4.349970
20
67.832020
11
4.589404
21
67.832020
0
LINE
8
Layer 1
10
4.589404
20
67.832020
11
4.589400
21
70.527800
0
LINE
8
Layer 1
10
6.150030
20
70.527800
11
5.984670
21
70.527800
0
LINE
8
Layer 1
10
5.984670
20
70.527800
11
5.264640
21
68.545200
0
LINE
8
Layer 1
10
5.264640
20
68.545200
11
5.264640
21
70.527850
0
LINE
8
Layer 1
10
5.264640
20
70.527850
11
5.038990
21
70.527850
0
LINE
8
Layer 1
10
5.038990
20
70.527850
11
5.038990
21
67.832000
0
LINE
8
Layer 1
10
5.038990
20
67.832000
11
5.218130
21
67.832000
0
LINE
8
Layer 1
10
5.218130
20
67.832000
11
5.924373
21
69.780200
0
LINE
8
Layer 1
10
5.924373
20
69.780200
11
5.924373
21
67.832000
0
LINE
8
Layer 1
10
5.924373
20
67.832000
11
6.150026
21
67.832000
0
LINE
8
Layer 1
10
6.150026
20
67.832000
11
6.150030
21
70.527800
0
LINE
8
Layer 1
10
4.589400
20
103.005000
11
4.349970
21
103.005000
0
LINE
8
Layer 1
10
4.349970
20
103.005000
11
4.349970
21
100.309220
0
LINE
8
Layer 1
10
4.349970
20
100.309220
11
4.589404
21
100.309220
0
LINE
8
Layer 1
10
4.589404
20
100.309220
11
4.589400
21
103.005000
0
LINE
8
Layer 1
10
6.150030
20
103.005000
11
5.984670
21
103.005000
0
LINE
8
Layer 1
10
5.984670
20
103.005000
11
5.264647
21
101.022350
0
LINE
8
Layer 1
10
5.264647
20
101.022350
11
5.264647
21
103.005000
0
LINE
8
Layer 1
10
5.264647
20
103.005000
11
5.038990
21
103.005000
0
LINE
8
Layer 1
10
5.038990
20
103.005000
11
5.038990
21
100.309220
0
LINE
8
Layer 1
10
5.038990
20
100.309220
11
5.218130
21
100.309220
0
LINE
8
Layer 1
10
5.218130
20
100.309220
11
5.924373
21
102.257420
0
LINE
8
Layer 1
10
5.924373
20
102.257420
11
5.924373
21
100.309220
0
LINE
8
Layer 1
10
5.924373
20
100.309220
11
6.150026
21
100.309220
0
LINE
8
Layer 1
10
6.150026
20
100.309220
11
6.150030
21
103.005000
0
LINE
8
Layer 1
10
13.863800
20
70.336600
11
13.808680
21
70.474403
0
LINE
8
Layer 1
10
13.808680
20
70.474403
11
13.670876
21
70.527803
0
LINE
8
Layer 1
10
13.670876
20
70.527803
11
12.916402
21
70.527803
0
LINE
8
Layer 1
10
12.916402
20
70.527803
11
12.778598
21
70.474403
0
LINE
8
Layer 1
10
12.778598
20
70.474403
11
12.725198
21
70.336600
0
LINE
8
Layer 1
10
12.725198
20
70.336600
11
12.725198
21
68.023200
0
LINE
8
Layer 1
10
12.725198
20
68.023200
11
12.778598
21
67.885397
0
LINE
8
Layer 1
10
12.778598
20
67.885397
11
12.916402
21
67.831997
0
LINE
8
Layer 1
10
12.916402
20
67.831997
11
13.670876
21
67.831997
0
LINE
8
Layer 1
10
13.670876
20
67.831997
11
13.808680
21
67.885397
0
LINE
8
Layer 1
10
13.808680
20
67.885397
11
13.863800
21
68.023200
0
LINE
8
Layer 1
10
13.863800
20
68.023200
11
13.863800
21
70.336600
0
LINE
8
Layer 1
10
13.624366
20
70.315930
11
13.624366
21
68.043900
0
LINE
8
Layer 1
10
13.624366
20
68.043900
11
12.964632
21
68.043900
0
LINE
8
Layer 1
10
12.964632
20
68.043900
11
12.964632
21
70.315930
0
LINE
8
Layer 1
10
12.964632
20
70.315930
11
13.624366
21
70.315930
0
LINE
8
Layer 1
10
15.414000
20
70.336600
11
15.358880
21
70.474403
0
LINE
8
Layer 1
10
15.358880
20
70.474403
11
15.221077
21
70.527803
0
LINE
8
Layer 1
10
15.221077
20
70.527803
11
14.487273
21
70.527803
0
LINE
8
Layer 1
10
14.487273
20
70.527803
11
14.349469
21
70.474403
0
LINE
8
Layer 1
10
14.349469
20
70.474403
11
14.296069
21
70.336600
0
LINE
8
Layer 1
10
14.296069
20
70.336600
11
14.296069
21
67.832020
0
LINE
8
Layer 1
10
14.296069
20
67.832020
11
14.535503
21
67.832020
0
LINE
8
Layer 1
10
14.535503
20
67.832020
11
14.535503
21
70.315930
0
LINE
8
Layer 1
10
14.535503
20
70.315930
11
15.174567
21
70.315930
0
LINE
8
Layer 1
10
15.174567
20
70.315930
11
15.174567
21
67.832020
0
LINE
8
Layer 1
10
15.174567
20
67.832020
11
15.414001
21
67.832020
0
LINE
8
Layer 1
10
15.414001
20
67.832020
11
15.414000
21
70.336600
0
LINE
8
Layer 1
10
16.774900
20
68.043900
11
16.358045
21
68.043900
0
LINE
8
Layer 1
10
16.358045
20
68.043900
11
16.358045
21
70.527810
0
LINE
8
Layer 1
10
16.358045
20
70.527810
11
16.118600
21
70.527810
0
LINE
8
Layer 1
10
16.118600
20
70.527810
11
16.118600
21
68.043900
0
LINE
8
Layer 1
10
16.118600
20
68.043900
11
15.698300
21
68.043900
0
LINE
8
Layer 1
10
15.698300
20
68.043900
11
15.698300
21
67.832027
0
LINE
8
Layer 1
10
15.698300
20
67.832027
11
16.774890
21
67.832027
0
LINE
8
Layer 1
10
16.774890
20
67.832027
11
16.774900
21
68.043900
0
LINE
8
Layer 1
10
13.863800
20
103.262000
11
13.808680
21
103.399800
0
LINE
8
Layer 1
10
13.808680
20
103.399800
11
13.670876
21
103.453200
0
LINE
8
Layer 1
10
13.670876
20
103.453200
11
12.916402
21
103.453200
0
LINE
8
Layer 1
10
12.916402
20
103.453200
11
12.778598
21
103.399800
0
LINE
8
Layer 1
10
12.778598
20
103.399800
11
12.725198
21
103.262000
0
LINE
8
Layer 1
10
12.725198
20
103.262000
11
12.725198
21
100.948620
0
LINE
8
Layer 1
10
12.725198
20
100.948620
11
12.778598
21
100.810820
0
LINE
8
Layer 1
10
12.778598
20
100.810820
11
12.916402
21
100.757420
0
LINE
8
Layer 1
10
12.916402
20
100.757420
11
13.670876
21
100.757420
0
LINE
8
Layer 1
10
13.670876
20
100.757420
11
13.808680
21
100.810820
0
LINE
8
Layer 1
10
13.808680
20
100.810820
11
13.863800
21
100.948620
0
LINE
8
Layer 1
10
13.863800
20
100.948620
11
13.863800
21
103.262000
0
LINE
8
Layer 1
10
13.624366
20
103.241300
11
13.624366
21
100.969270
0
LINE
8
Layer 1
10
13.624366
20
100.969270
11
12.964632
21
100.969270
0
LINE
8
Layer 1
10
12.964632
20
100.969270
11
12.964632
21
103.241300
0
LINE
8
Layer 1
10
12.964632
20
103.241300
11
13.624366
21
103.241300
0
LINE
8
Layer 1
10
15.414000
20
103.262000
11
15.358880
21
103.399800
0
LINE
8
Layer 1
10
15.358880
20
103.399800
11
15.221077
21
103.453200
0
LINE
8
Layer 1
10
15.221077
20
103.453200
11
14.487273
21
103.453200
0
LINE
8
Layer 1
10
14.487273
20
103.453200
11
14.349469
21
103.399800
0
LINE
8
Layer 1
10
14.349469
20
103.399800
11
14.296069
21
103.262000
0
LINE
8
Layer 1
10
14.296069
20
103.262000
11
14.296069
21
100.757420
0
LINE
8
Layer 1
10
14.296069
20
100.757420
11
14.535503
21
100.757420
0
LINE
8
Layer 1
10
14.535503
20
100.757420
11
14.535503
21
103.241320
0
LINE
8
Layer 1
10
14.535503
20
103.241320
11
15.174567
21
103.241320
0
LINE
8
Layer 1
10
15.174567
20
103.241320
11
15.174567
21
100.757420
0
LINE
8
Layer 1
10
15.174567
20
100.757420
11
15.414001
21
100.757420
0
LINE
8
Layer 1
10
15.414001
20
100.757420
11
15.414000
21
103.262000
0
LINE
8
Layer 1
10
16.774900
20
100.969000
11
16.358045
21
100.969000
0
LINE
8
Layer 1
10
16.358045
20
100.969000
11
16.358045
21
103.452910
0
LINE
8
Layer 1
10
16.358045
20
103.452910
11
16.118611
21
103.452910
0
LINE
8
Layer 1
10
16.118611
20
103.452910
11
16.118611
21
100.969000
0
LINE
8
Layer 1
10
16.118611
20
100.969000
11
15.698300
21
100.969000
0
LINE
8
Layer 1
10
15.698300
20
100.969000
11
15.698300
21
100.757130
0
LINE
8
Layer 1
10
15.698300
20
100.757130
11
16.774890
21
100.757130
0
LINE
8
Layer 1
10
16.774890
20
100.757130
11
16.774900
21
100.969000
0
LINE
8
Layer 1
10
4.117430
20
83.495800
11
3.232050
21
83.495800
0
LINE
8
Layer 1
10
3.232050
20
83.495800
11
3.232050
21
80.800000
0
LINE
8
Layer 1
10
3.232050
20
80.800000
11
4.107102
21
80.800000
0
LINE
8
Layer 1
10
4.107102
20
80.800000
11
4.107102
21
81.011873
0
LINE
8
Layer 1
10
4.107102
20
81.011873
11
3.471480
21
81.011873
0
LINE
8
Layer 1
10
3.471480
20
81.011873
11
3.471480
21
82.017843
0
LINE
8
Layer 1
10
3.471480
20
82.017843
11
4.050255
21
82.017843
0
LINE
8
Layer 1
10
4.050255
20
82.017843
11
4.050255
21
82.233161
0
LINE
8
Layer 1
10
4.050255
20
82.233161
11
3.471480
21
82.233161
0
LINE
8
Layer 1
10
3.471480
20
82.233161
11
3.471480
21
83.283911
0
LINE
8
Layer 1
10
3.471480
20
83.283911
11
4.117434
21
83.283911
0
LINE
8
Layer 1
10
4.117434
20
83.283911
11
4.117430
21
83.495800
0
LINE
8
Layer 1
10
5.603990
20
83.495800
11
5.438630
21
83.495800
0
LINE
8
Layer 1
10
5.438630
20
83.495800
11
4.718600
21
81.513100
0
LINE
8
Layer 1
10
4.718600
20
81.513100
11
4.718600
21
83.495750
0
LINE
8
Layer 1
10
4.718600
20
83.495750
11
4.492950
21
83.495750
0
LINE
8
Layer 1
10
4.492950
20
83.495750
11
4.492950
21
80.800000
0
LINE
8
Layer 1
10
4.492950
20
80.800000
11
4.672095
21
80.800000
0
LINE
8
Layer 1
10
4.672095
20
80.800000
11
5.378338
21
82.748200
0
LINE
8
Layer 1
10
5.378338
20
82.748200
11
5.378338
21
80.800000
0
LINE
8
Layer 1
10
5.378338
20
80.800000
11
5.603991
21
80.800000
0
LINE
8
Layer 1
10
5.603991
20
80.800000
11
5.603990
21
83.495800
0
LINE
8
Layer 1
10
7.088820
20
80.800000
11
6.622010
21
83.502700
0
LINE
8
Layer 1
10
6.622010
20
83.502700
11
6.396360
21
83.502700
0
LINE
8
Layer 1
10
6.396360
20
83.502700
11
5.929550
21
80.800000
0
LINE
8
Layer 1
10
5.929550
20
80.800000
11
6.167261
21
80.800000
0
LINE
8
Layer 1
10
6.167261
20
80.800000
11
6.501435
21
82.946290
0
LINE
8
Layer 1
10
6.501435
20
82.946290
11
6.511770
21
83.121990
0
LINE
8
Layer 1
10
6.511770
20
83.121990
11
6.523828
21
82.946290
0
LINE
8
Layer 1
10
6.523828
20
82.946290
11
6.858000
21
80.800000
0
LINE
8
Layer 1
10
6.858000
20
80.800000
11
7.088820
21
80.800000
0
LINE
8
Layer 1
10
3.938300
20
116.078000
11
3.052910
21
116.078000
0
LINE
8
Layer 1
10
3.052910
20
116.078000
11
3.052910
21
113.382220
0
LINE
8
Layer 1
10
3.052910
20
113.382220
11
3.927962
21
113.382220
0
LINE
8
Layer 1
10
3.927962
20
113.382220
11
3.927962
21
113.594090
0
LINE
8
Layer 1
10
3.927962
20
113.594090
11
3.292350
21
113.594090
0
LINE
8
Layer 1
10
3.292350
20
113.594090
11
3.292350
21
114.600060
0
LINE
8
Layer 1
10
3.292350
20
114.600060
11
3.871125
21
114.600060
0
LINE
8
Layer 1
10
3.871125
20
114.600060
11
3.871125
21
114.815380
0
LINE
8
Layer 1
10
3.871125
20
114.815380
11
3.292350
21
114.815380
0
LINE
8
Layer 1
10
3.292350
20
114.815380
11
3.292350
21
115.866130
0
LINE
8
Layer 1
10
3.292350
20
115.866130
11
3.938304
21
115.866130
0
LINE
8
Layer 1
10
3.938304
20
115.866130
11
3.938300
21
116.078000
0
LINE
8
Layer 1
10
5.424860
20
116.078000
11
5.259490
21
116.078000
0
LINE
8
Layer 1
10
5.259490
20
116.078000
11
4.539467
21
114.095360
0
LINE
8
Layer 1
10
4.539467
20
114.095360
11
4.539467
21
116.078000
0
LINE
8
Layer 1
10
4.539467
20
116.078000
11
4.313820
21
116.078000
0
LINE
8
Layer 1
10
4.313820
20
116.078000
11
4.313820
21
113.382220
0
LINE
8
Layer 1
10
4.313820
20
113.382220
11
4.492965
21
113.382220
0
LINE
8
Layer 1
10
4.492965
20
113.382220
11
5.199208
21
115.330420
0
LINE
8
Layer 1
10
5.199208
20
115.330420
11
5.199208
21
113.382220
0
LINE
8
Layer 1
10
5.199208
20
113.382220
11
5.424861
21
113.382220
0
LINE
8
Layer 1
10
5.424861
20
113.382220
11
5.424860
21
116.078000
0
LINE
8
Layer 1
10
6.909690
20
113.382000
11
6.442881
21
116.084670
0
LINE
8
Layer 1
10
6.442881
20
116.084670
11
6.217230
21
116.084670
0
LINE
8
Layer 1
10
6.217230
20
116.084670
11
5.750421
21
113.382000
0
LINE
8
Layer 1
10
5.750421
20
113.382000
11
5.988132
21
113.382000
0
LINE
8
Layer 1
10
5.988132
20
113.382000
11
6.322306
21
115.528290
0
LINE
8
Layer 1
10
6.322306
20
115.528290
11
6.332641
21
115.703990
0
LINE
8
Layer 1
10
6.332641
20
115.703990
11
6.344699
21
115.528290
0
LINE
8
Layer 1
10
6.344699
20
115.528290
11
6.678873
21
113.382000
0
LINE
8
Layer 1
10
6.678873
20
113.382000
11
6.909690
21
113.382000
0
LINE
8
Layer 1
10
13.506300
20
83.195500
11
13.452900
21
83.333303
0
LINE
8
Layer 1
10
13.452900
20
83.333303
11
13.315097
21
83.386703
0
LINE
8
Layer 1
10
13.315097
20
83.386703
11
12.607131
21
83.386703
0
LINE
8
Layer 1
10
12.607131
20
83.386703
11
12.469327
21
83.333303
0
LINE
8
Layer 1
10
12.469327
20
83.333303
11
12.415927
21
83.195500
0
LINE
8
Layer 1
10
12.415927
20
83.195500
11
12.415927
21
80.882120
0
LINE
8
Layer 1
10
12.415927
20
80.882120
11
12.469327
21
80.744317
0
LINE
8
Layer 1
10
12.469327
20
80.744317
11
12.607131
21
80.690917
0
LINE
8
Layer 1
10
12.607131
20
80.690917
11
13.315097
21
80.690917
0
LINE
8
Layer 1
10
13.315097
20
80.690917
11
13.452900
21
80.744317
0
LINE
8
Layer 1
10
13.452900
20
80.744317
11
13.506300
21
80.882120
0
LINE
8
Layer 1
10
13.506300
20
80.882120
11
13.506300
21
81.509126
0
LINE
8
Layer 1
10
13.506300
20
81.509126
11
13.265144
21
81.509126
0
LINE
8
Layer 1
10
13.265144
20
81.509126
11
13.265144
21
80.902791
0
LINE
8
Layer 1
10
13.265144
20
80.902791
11
12.655363
21
80.902791
0
LINE
8
Layer 1
10
12.655363
20
80.902791
11
12.655363
21
83.174821
0
LINE
8
Layer 1
10
12.655363
20
83.174821
11
13.265144
21
83.174821
0
LINE
8
Layer 1
10
13.265144
20
83.174821
11
13.265144
21
82.242925
0
LINE
8
Layer 1
10
13.265144
20
82.242925
11
12.977479
21
82.242925
0
LINE
8
Layer 1
10
12.977479
20
82.242925
11
12.977479
21
82.036220
0
LINE
8
Layer 1
10
12.977479
20
82.036220
11
13.506300
21
82.036220
0
LINE
8
Layer 1
10
13.506300
20
82.036220
11
13.506300
21
83.195500
0
LINE
8
Layer 1
10
15.018700
20
83.386700
11
14.780989
21
83.386700
0
LINE
8
Layer 1
10
14.780989
20
83.386700
11
14.686249
21
82.787255
0
LINE
8
Layer 1
10
14.686249
20
82.787255
11
14.150537
21
82.787255
0
LINE
8
Layer 1
10
14.150537
20
82.787255
11
14.055797
21
83.386700
0
LINE
8
Layer 1
10
14.055797
20
83.386700
11
13.825000
21
83.386700
0
LINE
8
Layer 1
10
13.825000
20
83.386700
11
13.825000
21
83.379800
0
LINE
8
Layer 1
10
13.825000
20
83.379800
11
14.305589
21
80.684020
0
LINE
8
Layer 1
10
14.305589
20
80.684020
11
14.541578
21
80.684020
0
LINE
8
Layer 1
10
14.541578
20
80.684020
11
15.018700
21
83.386700
0
LINE
8
Layer 1
10
14.655243
20
82.575382
11
14.419254
21
81.114662
0
LINE
8
Layer 1
10
14.419254
20
81.114662
11
14.181543
21
82.575382
0
LINE
8
Layer 1
10
14.181543
20
82.575382
11
14.655243
21
82.575382
0
LINE
8
Layer 1
10
16.272700
20
80.902800
11
15.855900
21
80.902800
0
LINE
8
Layer 1
10
15.855900
20
80.902800
11
15.855900
21
83.386710
0
LINE
8
Layer 1
10
15.855900
20
83.386710
11
15.616466
21
83.386710
0
LINE
8
Layer 1
10
15.616466
20
83.386710
11
15.616466
21
80.902800
0
LINE
8
Layer 1
10
15.616466
20
80.902800
11
15.196166
21
80.902800
0
LINE
8
Layer 1
10
15.196166
20
80.902800
11
15.196166
21
80.690927
0
LINE
8
Layer 1
10
15.196166
20
80.690927
11
16.272756
21
80.690927
0
LINE
8
Layer 1
10
16.272756
20
80.690927
11
16.272700
21
80.902800
0
LINE
8
Layer 1
10
17.442300
20
83.386700
11
16.556913
21
83.386700
0
LINE
8
Layer 1
10
16.556913
20
83.386700
11
16.556913
21
80.690920
0
LINE
8
Layer 1
10
16.556913
20
80.690920
11
17.431965
21
80.690920
0
LINE
8
Layer 1
10
17.431965
20
80.690920
11
17.431965
21
80.902793
0
LINE
8
Layer 1
10
17.431965
20
80.902793
11
16.796346
21
80.902793
0
LINE
8
Layer 1
10
16.796346
20
80.902793
11
16.796346
21
81.908763
0
LINE
8
Layer 1
10
16.796346
20
81.908763
11
17.375121
21
81.908763
0
LINE
8
Layer 1
10
17.375121
20
81.908763
11
17.375121
21
82.124081
0
LINE
8
Layer 1
10
17.375121
20
82.124081
11
16.796346
21
82.124081
0
LINE
8
Layer 1
10
16.796346
20
82.124081
11
16.796346
21
83.174831
0
LINE
8
Layer 1
10
16.796346
20
83.174831
11
17.442300
21
83.174831
0
LINE
8
Layer 1
10
17.442300
20
83.174831
11
17.442300
21
83.386700
0
LINE
8
Layer 1
10
13.327200
20
116.252000
11
13.273800
21
116.389800
0
LINE
8
Layer 1
10
13.273800
20
116.389800
11
13.135996
21
116.443200
0
LINE
8
Layer 1
10
13.135996
20
116.443200
11
12.428000
21
116.443200
0
LINE
8
Layer 1
10
12.428000
20
116.443200
11
12.290197
21
116.389800
0
LINE
8
Layer 1
10
12.290197
20
116.389800
11
12.236797
21
116.252000
0
LINE
8
Layer 1
10
12.236797
20
116.252000
11
12.236797
21
113.938620
0
LINE
8
Layer 1
10
12.236797
20
113.938620
11
12.290197
21
113.800820
0
LINE
8
Layer 1
10
12.290197
20
113.800820
11
12.428000
21
113.747420
0
LINE
8
Layer 1
10
12.428000
20
113.747420
11
13.135966
21
113.747420
0
LINE
8
Layer 1
10
13.135966
20
113.747420
11
13.273770
21
113.800820
0
LINE
8
Layer 1
10
13.273770
20
113.800820
11
13.327170
21
113.938620
0
LINE
8
Layer 1
10
13.327170
20
113.938620
11
13.327170
21
114.565630
0
LINE
8
Layer 1
10
13.327170
20
114.565630
11
13.086014
21
114.565630
0
LINE
8
Layer 1
10
13.086014
20
114.565630
11
13.086014
21
113.959290
0
LINE
8
Layer 1
10
13.086014
20
113.959290
11
12.476234
21
113.959290
0
LINE
8
Layer 1
10
12.476234
20
113.959290
11
12.476234
21
116.231330
0
LINE
8
Layer 1
10
12.476234
20
116.231330
11
13.086014
21
116.231330
0
LINE
8
Layer 1
10
13.086014
20
116.231330
11
13.086014
21
115.299430
0
LINE
8
Layer 1
10
13.086014
20
115.299430
11
12.798349
21
115.299430
0
LINE
8
Layer 1
10
12.798349
20
115.299430
11
12.798349
21
115.092730
0
LINE
8
Layer 1
10
12.798349
20
115.092730
11
13.327170
21
115.092730
0
LINE
8
Layer 1
10
13.327170
20
115.092730
11
13.327200
21
116.252000
0
LINE
8
Layer 1
10
14.839600
20
116.443000
11
14.601889
21
116.443000
0
LINE
8
Layer 1
10
14.601889
20
116.443000
11
14.507149
21
115.843560
0
LINE
8
Layer 1
10
14.507149
20
115.843560
11
13.971400
21
115.843560
0
LINE
8
Layer 1
10
13.971400
20
115.843560
11
13.876660
21
116.443000
0
LINE
8
Layer 1
10
13.876660
20
116.443000
11
13.645839
21
116.443000
0
LINE
8
Layer 1
10
13.645839
20
116.443000
11
13.645839
21
116.436000
0
LINE
8
Layer 1
10
13.645839
20
116.436000
11
14.126429
21
113.740220
0
LINE
8
Layer 1
10
14.126429
20
113.740220
11
14.362417
21
113.740220
0
LINE
8
Layer 1
10
14.362417
20
113.740220
11
14.839600
21
116.443000
0
LINE
8
Layer 1
10
14.476143
20
115.631680
11
14.240155
21
114.170970
0
LINE
8
Layer 1
10
14.240155
20
114.170970
11
14.002444
21
115.631680
0
LINE
8
Layer 1
10
14.002444
20
115.631680
11
14.476143
21
115.631680
0
LINE
8
Layer 1
10
16.093600
20
113.959000
11
15.676744
21
113.959000
0
LINE
8
Layer 1
10
15.676744
20
113.959000
11
15.676744
21
116.442910
0
LINE
8
Layer 1
10
15.676744
20
116.442910
11
15.437311
21
116.442910
0
LINE
8
Layer 1
10
15.437311
20
116.442910
11
15.437311
21
113.959000
0
LINE
8
Layer 1
10
15.437311
20
113.959000
11
15.017010
21
113.959000
0
LINE
8
Layer 1
10
15.017010
20
113.959000
11
15.017010
21
113.747130
0
LINE
8
Layer 1
10
15.017010
20
113.747130
11
16.093600
21
113.747130
0
LINE
8
Layer 1
10
16.093600
20
113.747130
11
16.093600
21
113.959000
0
LINE
8
Layer 1
10
17.263200
20
116.443000
11
16.377812
21
116.443000
0
LINE
8
Layer 1
10
16.377812
20
116.443000
11
16.377812
21
113.747220
0
LINE
8
Layer 1
10
16.377812
20
113.747220
11
17.252864
21
113.747220
0
LINE
8
Layer 1
10
17.252864
20
113.747220
11
17.252864
21
113.959090
0
LINE
8
Layer 1
10
17.252864
20
113.959090
11
16.617246
21
113.959090
0
LINE
8
Layer 1
10
16.617246
20
113.959090
11
16.617246
21
114.965060
0
LINE
8
Layer 1
10
16.617246
20
114.965060
11
17.196020
21
114.965060
0
LINE
8
Layer 1
10
17.196020
20
114.965060
11
17.196020
21
115.180380
0
LINE
8
Layer 1
10
17.196020
20
115.180380
11
16.617246
21
115.180380
0
LINE
8
Layer 1
10
16.617246
20
115.180380
11
16.617246
21
116.231130
0
LINE
8
Layer 1
10
16.617246
20
116.231130
11
17.263200
21
116.231130
0
LINE
8
Layer 1
10
17.263200
20
116.231130
11
17.263200
21
116.443000
0
LINE
8
Dwgs.User
10
4.716050
20
54.696000
11
4.532429
21
55.139302
0
LINE
8
Dwgs.User
10
4.532429
20
55.139302
11
4.089127
21
55.322923
0
LINE
8
Dwgs.User
10
4.089127
20
55.322923
11
3.645825
21
55.139302
0
LINE
8
Dwgs.User
10
3.645825
20
55.139302
11
3.462204
21
54.696000
0
LINE
8
Dwgs.User
10
3.462204
20
54.696000
11
3.645825
21
54.252698
0
LINE
8
Dwgs.User
10
3.645825
20
54.252698
11
4.089127
21
54.069077
0
LINE
8
Dwgs.User
10
4.089127
20
54.069077
11
4.532429
21
54.252698
0
LINE
8
Dwgs.User
10
4.532429
20
54.252698
11
4.716050
21
54.696000
0
LINE
8
Dwgs.User
10
4.716050
20
54.696000
11
4.716050
21
54.696000
0
LINE
8
Dwgs.User
10
9.425870
20
55.348300
11
9.423570
21
54.867905
0
LINE
8
Dwgs.User
10
9.423570
20
54.867905
11
9.419670
21
54.028605
0
LINE
8
Dwgs.User
10
9.419670
20
54.028605
11
9.599770
21
54.528280
0
LINE
8
Dwgs.User
10
9.599770
20
54.528280
11
9.897989
21
54.926466
0
LINE
8
Dwgs.User
10
9.897989
20
54.926466
11
10.110305
21
55.099715
0
LINE
8
Dwgs.User
10
10.110305
20
55.099715
11
10.721562
21
55.362728
0
LINE
8
Dwgs.User
10
10.721562
20
55.362728
11
10.721562
21
55.362728
0
LINE
8
Dwgs.User
10
14.791700
20
55.149900
11
15.425223
21
55.149900
0
LINE
8
Dwgs.User
10
15.425223
20
55.149900
11
15.425223
21
54.242200
0
LINE
8
Dwgs.User
10
15.425223
20
54.242200
11
16.369296
21
54.242200
0
LINE
8
Dwgs.User
10
16.369296
20
54.242200
11
16.369296
21
55.137957
0
LINE
8
Dwgs.User
10
16.369296
20
55.137957
11
16.953131
21
55.137957
0
LINE
8
Dwgs.User
10
16.953131
20
55.137957
11
17.030101
21
55.137957
0
LINE
8
Dwgs.User
10
17.446900
20
87.683000
11
17.330729
21
88.267032
0
LINE
8
Dwgs.User
10
17.330729
20
88.267032
11
16.999901
21
88.762151
0
LINE
8
Dwgs.User
10
16.999901
20
88.762151
11
16.504782
21
89.092979
0
LINE
8
Dwgs.User
10
16.504782
20
89.092979
11
15.920750
21
89.209150
0
LINE
8
Dwgs.User
10
15.920750
20
89.209150
11
15.336718
21
89.092979
0
LINE
8
Dwgs.User
10
15.336718
20
89.092979
11
14.841599
21
88.762151
0
LINE
8
Dwgs.User
10
14.841599
20
88.762151
11
14.510771
21
88.267032
0
LINE
8
Dwgs.User
10
14.510771
20
88.267032
11
14.394600
21
87.683000
0
LINE
8
Dwgs.User
10
14.394600
20
87.683000
11
14.510768
21
87.098965
0
LINE
8
Dwgs.User
10
14.510768
20
87.098965
11
14.841595
21
86.603843
0
LINE
8
Dwgs.User
10
14.841595
20
86.603843
11
15.336715
21
86.273012
0
LINE
8
Dwgs.User
10
15.336715
20
86.273012
11
15.920750
21
86.156840
0
LINE
8
Dwgs.User
10
15.920750
20
86.156840
11
16.504785
21
86.273012
0
LINE
8
Dwgs.User
10
16.504785
20
86.273012
11
16.999905
21
86.603843
0
LINE
8
Dwgs.User
10
16.999905
20
86.603843
11
17.330732
21
87.098965
0
LINE
8
Dwgs.User
10
17.330732
20
87.098965
11
17.446900
21
87.683000
0
LINE
8
Dwgs.User
10
11.536000
20
87.683000
11
11.419829
21
88.267032
0
LINE
8
Dwgs.User
10
11.419829
20
88.267032
11
11.089001
21
88.762151
0
LINE
8
Dwgs.User
10
11.089001
20
88.762151
11
10.593882
21
89.092979
0
LINE
8
Dwgs.User
10
10.593882
20
89.092979
11
10.009850
21
89.209150
0
LINE
8
Dwgs.User
10
10.009850
20
89.209150
11
9.425818
21
89.092979
0
LINE
8
Dwgs.User
10
9.425818
20
89.092979
11
8.930699
21
88.762151
0
LINE
8
Dwgs.User
10
8.930699
20
88.762151
11
8.599871
21
88.267032
0
LINE
8
Dwgs.User
10
8.599871
20
88.267032
11
8.483700
21
87.683000
0
LINE
8
Dwgs.User
10
8.483700
20
87.683000
11
8.599868
21
87.098965
0
LINE
8
Dwgs.User
10
8.599868
20
87.098965
11
8.930695
21
86.603843
0
LINE
8
Dwgs.User
10
8.930695
20
86.603843
11
9.425815
21
86.273012
0
LINE
8
Dwgs.User
10
9.425815
20
86.273012
11
10.009850
21
86.156840
0
LINE
8
Dwgs.User
10
10.009850
20
86.156840
11
10.593885
21
86.273012
0
LINE
8
Dwgs.User
10
10.593885
20
86.273012
11
11.089005
21
86.603843
0
LINE
8
Dwgs.User
10
11.089005
20
86.603843
11
11.419832
21
87.098965
0
LINE
8
Dwgs.User
10
11.419832
20
87.098965
11
11.536000
21
87.683000
0
LINE
8
Dwgs.User
10
5.625150
20
87.683000
11
5.505218
21
88.277046
0
LINE
8
Dwgs.User
10
5.505218
20
88.277046
11
5.178151
21
88.762151
0
LINE
8
Dwgs.User
10
5.178151
20
88.762151
11
4.693046
21
89.089218
0
LINE
8
Dwgs.User
10
4.693046
20
89.089218
11
4.099000
21
89.209150
0
LINE
8
Dwgs.User
10
4.099000
20
89.209150
11
3.514968
21
89.092979
0
LINE
8
Dwgs.User
10
3.514968
20
89.092979
11
3.019849
21
88.762151
0
LINE
8
Dwgs.User
10
3.019849
20
88.762151
11
2.689021
21
88.267032
0
LINE
8
Dwgs.User
10
2.689021
20
88.267032
11
2.572850
21
87.683000
0
LINE
8
Dwgs.User
10
2.572850
20
87.683000
11
2.689018
21
87.098965
0
LINE
8
Dwgs.User
10
2.689018
20
87.098965
11
3.019845
21
86.603843
0
LINE
8
Dwgs.User
10
3.019845
20
86.603843
11
3.514965
21
86.273012
0
LINE
8
Dwgs.User
10
3.514965
20
86.273012
11
4.099000
21
86.156840
0
LINE
8
Dwgs.User
10
4.099000
20
86.156840
11
4.683035
21
86.273012
0
LINE
8
Dwgs.User
10
4.683035
20
86.273012
11
5.178155
21
86.603843
0
LINE
8
Dwgs.User
10
5.178155
20
86.603843
11
5.508982
21
87.098965
0
LINE
8
Dwgs.User
10
5.508982
20
87.098965
11
5.625150
21
87.683000
0
LINE
8
Dwgs.User
10
4.725920
20
87.683000
11
4.542291
21
88.126286
0
LINE
8
Dwgs.User
10
4.542291
20
88.126286
11
4.099000
21
88.309900
0
LINE
8
Dwgs.User
10
4.099000
20
88.309900
11
3.655709
21
88.126286
0
LINE
8
Dwgs.User
10
3.655709
20
88.126286
11
3.472080
21
87.683000
0
LINE
8
Dwgs.User
10
3.472080
20
87.683000
11
3.655709
21
87.239714
0
LINE
8
Dwgs.User
10
3.655709
20
87.239714
11
4.099000
21
87.056100
0
LINE
8
Dwgs.User
10
4.099000
20
87.056100
11
4.542291
21
87.239714
0
LINE
8
Dwgs.User
10
4.542291
20
87.239714
11
4.725920
21
87.683000
0
LINE
8
Dwgs.User
10
9.435740
20
88.335300
11
9.433440
21
87.854905
0
LINE
8
Dwgs.User
10
9.433440
20
87.854905
11
9.429540
21
87.015605
0
LINE
8
Dwgs.User
10
9.429540
20
87.015605
11
9.609640
21
87.515280
0
LINE
8
Dwgs.User
10
9.609640
20
87.515280
11
9.907859
21
87.913466
0
LINE
8
Dwgs.User
10
9.907859
20
87.913466
11
10.120174
21
88.086715
0
LINE
8
Dwgs.User
10
10.120174
20
88.086715
11
10.731431
21
88.349728
0
LINE
8
Dwgs.User
10
10.731431
20
88.349728
11
10.731431
21
88.349728
0
LINE
8
Dwgs.User
10
14.801500
20
88.136900
11
15.435023
21
88.136900
0
LINE
8
Dwgs.User
10
15.435023
20
88.136900
11
15.435023
21
87.229200
0
LINE
8
Dwgs.User
10
15.435023
20
87.229200
11
16.379096
21
87.229200
0
LINE
8
Dwgs.User
10
16.379096
20
87.229200
11
16.379096
21
88.124957
0
LINE
8
Dwgs.User
10
16.379096
20
88.124957
11
16.962931
21
88.124957
0
LINE
8
Dwgs.User
10
16.962931
20
88.124957
11
17.039901
21
88.124957
0
LINE
8
Dwgs.User
10
0.032701
20
9.282700
11
19.967300
21
9.282700
0
LINE
8
Dwgs.User
10
19.967300
20
9.282700
11
19.967300
21
119.217000
0
LINE
8
Dwgs.User
10
19.967300
20
119.217000
11
0.032701
21
119.217000
0
LINE
8
Dwgs.User
10
0.032701
20
119.217000
11
0.032701
21
9.282700
0
LINE
8
Dwgs.User
10
13.575000
20
22.000000
11
13.308578
21
23.339392
0
LINE
8
Dwgs.User
10
13.308578
20
23.339392
11
12.549874
21
24.474874
0
LINE
8
Dwgs.User
10
12.549874
20
24.474874
11
11.414392
21
25.233578
0
LINE
8
Dwgs.User
10
11.414392
20
25.233578
11
10.075000
21
25.500000
0
LINE
8
Dwgs.User
10
10.075000
20
25.500000
11
8.735608
21
25.233578
0
LINE
8
Dwgs.User
10
8.735608
20
25.233578
11
7.600126
21
24.474874
0
LINE
8
Dwgs.User
10
7.600126
20
24.474874
11
6.841422
21
23.339392
0
LINE
8
Dwgs.User
10
6.841422
20
23.339392
11
6.575000
21
22.000000
0
LINE
8
Dwgs.User
10
6.575000
20
22.000000
11
6.841422
21
20.660608
0
LINE
8
Dwgs.User
10
6.841422
20
20.660608
11
7.600126
21
19.525126
0
LINE
8
Dwgs.User
10
7.600126
20
19.525126
11
8.735608
21
18.766422
0
LINE
8
Dwgs.User
10
8.735608
20
18.766422
11
10.075000
21
18.500000
0
LINE
8
Dwgs.User
10
10.075000
20
18.500000
11
11.414392
21
18.766422
0
LINE
8
Dwgs.User
10
11.414392
20
18.766422
11
12.549874
21
19.525126
0
LINE
8
Dwgs.User
10
12.549874
20
19.525126
11
13.308578
21
20.660608
0
LINE
8
Dwgs.User
10
13.308578
20
20.660608
11
13.575000
21
22.000000
0
LINE
8
Dwgs.User
10
13.575000
20
43.000000
11
13.308578
21
44.339392
0
LINE
8
Dwgs.User
10
13.308578
20
44.339392
11
12.549874
21
45.474874
0
LINE
8
Dwgs.User
10
12.549874
20
45.474874
11
11.414392
21
46.233578
0
LINE
8
Dwgs.User
10
11.414392
20
46.233578
11
10.075000
21
46.500000
0
LINE
8
Dwgs.User
10
10.075000
20
46.500000
11
8.735608
21
46.233578
0
LINE
8
Dwgs.User
10
8.735608
20
46.233578
11
7.600126
21
45.474874
0
LINE
8
Dwgs.User
10
7.600126
20
45.474874
11
6.841422
21
44.339392
0
LINE
8
Dwgs.User
10
6.841422
20
44.339392
11
6.575000
21
43.000000
0
LINE
8
Dwgs.User
10
6.575000
20
43.000000
11
6.841422
21
41.660608
0
LINE
8
Dwgs.User
10
6.841422
20
41.660608
11
7.600126
21
40.525126
0
LINE
8
Dwgs.User
10
7.600126
20
40.525126
11
8.735608
21
39.766422
0
LINE
8
Dwgs.User
10
8.735608
20
39.766422
11
10.075000
21
39.500000
0
LINE
8
Dwgs.User
10
10.075000
20
39.500000
11
11.414392
21
39.766422
0
LINE
8
Dwgs.User
10
11.414392
20
39.766422
11
12.549874
21
40.525126
0
LINE
8
Dwgs.User
10
12.549874
20
40.525126
11
13.308578
21
41.660608
0
LINE
8
Dwgs.User
10
13.308578
20
41.660608
11
13.575000
21
43.000000
0
LINE
8
Dwgs.User
10
8.250000
20
108.664000
11
8.021639
21
109.812050
0
LINE
8
Dwgs.User
10
8.021639
20
109.812050
11
7.371320
21
110.785320
0
LINE
8
Dwgs.User
10
7.371320
20
110.785320
11
6.398050
21
111.435639
0
LINE
8
Dwgs.User
10
6.398050
20
111.435639
11
5.250000
21
111.664000
0
LINE
8
Dwgs.User
10
5.250000
20
111.664000
11
4.101950
21
111.435639
0
LINE
8
Dwgs.User
10
4.101950
20
111.435639
11
3.128680
21
110.785320
0
LINE
8
Dwgs.User
10
3.128680
20
110.785320
11
2.478361
21
109.812050
0
LINE
8
Dwgs.User
10
2.478361
20
109.812050
11
2.250000
21
108.664000
0
LINE
8
Dwgs.User
10
2.250000
20
108.664000
11
2.478361
21
107.515950
0
LINE
8
Dwgs.User
10
2.478361
20
107.515950
11
3.128680
21
106.542680
0
LINE
8
Dwgs.User
10
3.128680
20
106.542680
11
4.101950
21
105.892361
0
LINE
8
Dwgs.User
10
4.101950
20
105.892361
11
5.250000
21
105.664000
0
LINE
8
Dwgs.User
10
5.250000
20
105.664000
11
6.398050
21
105.892361
0
LINE
8
Dwgs.User
10
6.398050
20
105.892361
11
7.371320
21
106.542680
0
LINE
8
Dwgs.User
10
7.371320
20
106.542680
11
8.021639
21
107.515950
0
LINE
8
Dwgs.User
10
8.021639
20
107.515950
11
8.250000
21
108.664000
0
LINE
8
Dwgs.User
10
8.250000
20
75.664000
11
8.021639
21
76.812050
0
LINE
8
Dwgs.User
10
8.021639
20
76.812050
11
7.371320
21
77.785320
0
LINE
8
Dwgs.User
10
7.371320
20
77.785320
11
6.398050
21
78.435639
0
LINE
8
Dwgs.User
10
6.398050
20
78.435639
11
5.250000
21
78.664000
0
LINE
8
Dwgs.User
10
5.250000
20
78.664000
11
4.101950
21
78.435639
0
LINE
8
Dwgs.User
10
4.101950
20
78.435639
11
3.128680
21
77.785320
0
LINE
8
Dwgs.User
10
3.128680
20
77.785320
11
2.478361
21
76.812050
0
LINE
8
Dwgs.User
10
2.478361
20
76.812050
11
2.250000
21
75.664000
0
LINE
8
Dwgs.User
10
2.250000
20
75.664000
11
2.478361
21
74.515950
0
LINE
8
Dwgs.User
10
2.478361
20
74.515950
11
3.128680
21
73.542680
0
LINE
8
Dwgs.User
10
3.128680
20
73.542680
11
4.101950
21
72.892361
0
LINE
8
Dwgs.User
10
4.101950
20
72.892361
11
5.250000
21
72.664000
0
LINE
8
Dwgs.User
10
5.250000
20
72.664000
11
6.398050
21
72.892361
0
LINE
8
Dwgs.User
10
6.398050
20
72.892361
11
7.371320
21
73.542680
0
LINE
8
Dwgs.User
10
7.371320
20
73.542680
11
8.021639
21
74.515950
0
LINE
8
Dwgs.User
10
8.021639
20
74.515950
11
8.250000
21
75.664000
0
LINE
8
Dwgs.User
10
4.878260
20
55.256600
11
4.330890
21
55.105400
0
LINE
8
Dwgs.User
10
4.330890
20
55.105400
11
4.236310
21
55.665400
0
LINE
8
Dwgs.User
10
4.236310
20
55.665400
11
3.956130
21
55.171400
0
LINE
8
Dwgs.User
10
3.956130
20
55.171400
11
3.493330
21
55.500445
0
LINE
8
Dwgs.User
10
3.493330
20
55.500445
11
3.644465
21
54.953076
0
LINE
8
Dwgs.User
10
3.644465
20
54.953076
11
3.084546
21
54.858496
0
LINE
8
Dwgs.User
10
3.084546
20
54.858496
11
3.578463
21
54.578316
0
LINE
8
Dwgs.User
10
3.578463
20
54.578316
11
3.249418
21
54.115516
0
LINE
8
Dwgs.User
10
3.249418
20
54.115516
11
3.796787
21
54.266651
0
LINE
8
Dwgs.User
10
3.796787
20
54.266651
11
3.891366
21
53.706731
0
LINE
8
Dwgs.User
10
3.891366
20
53.706731
11
4.171546
21
54.200648
0
LINE
8
Dwgs.User
10
4.171546
20
54.200648
11
4.634346
21
53.871603
0
LINE
8
Dwgs.User
10
4.634346
20
53.871603
11
4.483211
21
54.418972
0
LINE
8
Dwgs.User
10
4.483211
20
54.418972
11
5.043130
21
54.513552
0
LINE
8
Dwgs.User
10
5.043130
20
54.513552
11
4.549213
21
54.793732
0
LINE
8
Dwgs.User
10
4.549213
20
54.793732
11
4.878260
21
55.256600
0
LINE
8
Dwgs.User
10
4.878260
20
55.256600
11
4.330890
21
55.105400
0
LINE
8
Dwgs.User
10
4.330890
20
55.105400
11
4.236310
21
55.665400
0
LINE
8
Dwgs.User
10
4.236310
20
55.665400
11
3.956130
21
55.171400
0
LINE
8
Dwgs.User
10
3.956130
20
55.171400
11
3.493330
21
55.500445
0
LINE
8
Dwgs.User
10
3.493330
20
55.500445
11
3.644465
21
54.953076
0
LINE
8
Dwgs.User
10
3.644465
20
54.953076
11
3.084546
21
54.858496
0
LINE
8
Dwgs.User
10
3.084546
20
54.858496
11
3.578463
21
54.578316
0
LINE
8
Dwgs.User
10
3.578463
20
54.578316
11
3.249418
21
54.115516
0
LINE
8
Dwgs.User
10
3.249418
20
54.115516
11
3.796787
21
54.266651
0
LINE
8
Dwgs.User
10
3.796787
20
54.266651
11
3.891366
21
53.706731
0
LINE
8
Dwgs.User
10
3.891366
20
53.706731
11
4.171546
21
54.200648
0
LINE
8
Dwgs.User
10
4.171546
20
54.200648
11
4.634346
21
53.871603
0
LINE
8
Dwgs.User
10
4.634346
20
53.871603
11
4.483211
21
54.418972
0
LINE
8
Dwgs.User
10
4.483211
20
54.418972
11
5.043130
21
54.513552
0
LINE
8
Dwgs.User
10
5.043130
20
54.513552
11
4.549213
21
54.793732
0
LINE
8
Dwgs.User
10
4.549213
20
54.793732
11
4.878260
21
55.256600
 0 
ENDSEC
 0 
EOF