<?xml version="1.0" encoding="UTF-8" standalone="no"?>
<!-- Created with Inkscape (http://www.inkscape.org/) -->

<svg
   width="40.080208mm"
   height="128.50101mm"
   viewBox="0 0 40.080208 128.50101"
   version="1.1"
   id="svg2828"
   inkscape:version="1.2.1 (9c6d41e410, 2022-07-14)"
   sodipodi:docname="Blattwerk_Betula_Cu_Silver.svg"
   inkscape:export-filename="Blattwerk_Betula_Cu_Silver.svg"
   inkscape:export-xdpi="96"
   inkscape:export-ydpi="96"
   xmlns:inkscape="http://www.inkscape.org/namespaces/inkscape"
   xmlns:sodipodi="http://sodipodi.sourceforge.net/DTD/sodipodi-0.dtd"
   xmlns="http://www.w3.org/2000/svg"
   xmlns:svg="http://www.w3.org/2000/svg">
  <sodipodi:namedview
     id="namedview2830"
     pagecolor="#ffffff"
     bordercolor="#000000"
     borderopacity="0.25"
     inkscape:showpageshadow="2"
     inkscape:pageopacity="0.0"
     inkscape:pagecheckerboard="0"
     inkscape:deskcolor="#d1d1d1"
     inkscape:document-units="mm"
     showgrid="false"
     inkscape:zoom="191.56902"
     inkscape:cx="119.23379"
     inkscape:cy="479.04404"
     inkscape:window-width="1920"
     inkscape:window-height="1001"
     inkscape:window-x="-9"
     inkscape:window-y="-9"
     inkscape:window-maximized="1"
     inkscape:current-layer="layer2"
     inkscape:lockguides="false" />
  <defs
     id="defs2825" />
  <g
     inkscape:groupmode="layer"
     id="layer2"
     inkscape:label="Cu-Silver"
     style="display:inline"
     transform="translate(-82.076319,-43.942358)">
    <path
       id="path5514"
       style="display:inline;fill:#000000;fill-opacity:1;stroke:#a1ffff;stroke-width:0;stroke-dasharray:none;stroke-opacity:1"
       d="m 114.52736,126.39716 c -0.43954,0.0292 -1.95264,1.01654 -1.75854,1.16323 0.0698,0.0528 0.4133,-0.10804 0.76326,-0.3576 0.87424,-0.62386 1.02027,-0.62216 0.85627,0.008 -0.0783,0.2989 -0.0969,0.80148 -0.0429,1.11725 0.054,0.31576 -0.0217,0.73259 -0.16795,0.92604 -0.26582,0.35172 -0.26562,0.35147 0.42634,0.27027 0.74086,-0.0869 0.7485,0.79388 0.0155,1.76371 -0.27002,0.35739 -0.26977,0.35753 0.58446,0.31833 0.84992,-0.0389 0.85394,-0.037 0.84594,0.40824 -0.005,0.24611 -0.007,0.80931 -0.006,1.25109 0.001,0.44179 -0.0716,0.9779 -0.16226,1.19166 -0.22296,0.52545 -0.0456,0.61486 1.12499,0.56896 0.54946,-0.0215 1.00211,-6.3e-4 1.00511,0.0455 0.003,0.0464 -0.0438,0.36394 -0.1049,0.7059 -0.061,0.34199 -0.0727,0.89777 -0.0258,1.23507 0.0469,0.3373 -0.0118,0.74222 -0.13074,0.89968 -0.35557,0.47045 0.62794,0.60219 1.01079,0.1354 0.1155,-0.14093 0.13874,-0.0735 0.0661,0.19378 -0.17067,0.62888 1.22189,0.99334 1.64693,0.43098 0.061,-0.0807 0.16705,-0.10461 0.23565,-0.0527 0.15559,0.11761 -0.20055,1.46147 -0.48835,1.84227 -0.17537,0.23204 -0.14821,0.29201 0.154,0.33951 0.50006,0.0785 0.49011,0.26282 -0.0537,0.98237 -0.46439,0.61445 -0.46473,0.61456 0.13642,0.68316 0.75097,0.0857 0.75952,0.16508 0.13023,1.20458 -0.63409,1.04744 -0.58785,1.39001 0.185,1.37511 0.78053,-0.0151 0.77987,-0.0182 0.25115,1.06815 -0.25825,0.53057 -0.41469,1.00619 -0.34779,1.05679 0.067,0.0506 -0.0927,0.37551 -0.3545,0.72192 -0.26183,0.34643 -0.44642,0.65151 -0.41082,0.67851 0.0356,0.0269 0.4804,0.16484 0.98857,0.30644 0.91821,0.25584 1.09867,0.87091 0.49144,1.67432 -0.0577,0.0756 -0.0607,0.24921 -0.008,0.38602 0.053,0.13681 -0.0202,0.58136 -0.16227,0.98805 -0.29823,0.85374 -0.16751,1.01767 0.78859,0.97049 v -0.23617 c -0.70919,-0.0178 -0.85335,-0.34217 -0.40308,-0.93792 0.23787,-0.31425 0.32189,-0.58711 0.22789,-0.73794 -0.082,-0.13164 -0.0626,-0.60867 0.0434,-1.05989 0.2109,-0.89777 0.11495,-1.04054 -0.86971,-1.29346 -0.88494,-0.2273 -0.89579,-0.2449 -0.41342,-0.65732 0.28004,-0.23943 0.41186,-0.48641 0.39636,-0.74518 -0.0123,-0.21285 0.17336,-0.80796 0.4129,-1.3224 0.49651,-1.06635 0.50909,-1.03219 -0.4129,-1.11879 -0.69161,-0.0649 -0.69157,-0.065 -0.38137,-0.47542 0.71467,-0.94559 0.86031,-1.96959 0.29249,-2.05879 -0.34205,-0.0537 -0.3568,-0.13958 -0.12712,-0.75706 0.20238,-0.54413 0.19212,-0.72379 -0.0476,-0.82269 -0.23387,-0.0965 -0.25071,-0.24188 -0.0718,-0.61237 0.56511,-1.17042 0.43381,-1.95204 -0.27027,-1.6123 -0.7043,0.33991 -1.53292,0.33176 -1.27279,-0.0124 0.33101,-0.43796 0.0219,-0.86677 -0.44338,-0.61495 -0.50458,0.27307 -0.71373,-0.72523 -0.47284,-2.25671 0.12784,-0.81276 0.0461,-0.95825 -0.47129,-0.83664 -0.48837,0.1148 -1.53794,-0.0875 -1.47174,-0.28371 0.0303,-0.0897 0.0612,-0.66021 0.0682,-1.26762 0.008,-0.6074 0.0334,-1.27387 0.0574,-1.48156 0.0416,-0.35907 0.004,-0.37714 -0.76171,-0.37414 -0.78392,0.003 -0.79955,-0.005 -0.57671,-0.29972 0.56163,-0.74309 0.49066,-1.85859 -0.1142,-1.79369 -0.42685,0.0458 -0.51758,0.0108 -0.39378,-0.15297 0.089,-0.11699 0.119,-0.43308 0.0677,-0.70228 -0.0514,-0.26921 -0.0348,-0.8199 0.0367,-1.2237 0.0715,-0.40381 0.0395,-0.74252 -0.0708,-0.75292 -0.0118,-10e-4 -0.0246,-9.4e-4 -0.0388,0 z m 7.48224,28.40498 c -0.0107,0.019 -0.0229,0.0434 -0.0331,0.0605 -0.0985,0.16598 -0.0865,0.31027 0.0331,0.43667 z m 0,1.33067 c -0.0333,0.0453 -0.0657,0.0895 -0.10542,0.14211 -0.50813,0.6723 -0.46487,1.00826 0.10542,0.91002 v -0.24391 c -0.17687,-0.006 -0.19007,-0.18181 0,-0.37569 z m 0,2.2903 c -0.0669,0.0824 -0.1379,0.1679 -0.21446,0.2589 -1.07335,1.27569 -1.07316,1.27566 -0.44287,1.61075 0.63028,0.33509 0.63012,0.33487 -0.045,1.01286 -0.37129,0.3729 -0.84476,0.91859 -1.05213,1.21233 -0.20737,0.29375 -0.6153,0.64798 -0.90692,0.78755 -0.81573,0.39036 -0.89567,0.60323 -0.36639,0.97927 0.63883,0.45384 0.44457,0.75038 -0.99787,1.5229 -0.91335,0.48917 -1.18355,0.70754 -1.17305,0.94723 0.0109,0.23967 -0.0892,0.3208 -0.4346,0.3514 -0.74804,0.0663 -1.26351,0.40764 -1.34101,0.84801 l 0.27492,0.0579 c 0.0765,-0.29482 0.39447,-0.4911 0.98547,-0.6258 0.54466,-0.12414 0.71831,-0.24059 0.74001,-0.49661 0.0211,-0.24979 0.29792,-0.47691 1.09451,-0.89762 1.32503,-0.6998 1.72135,-1.26969 1.21749,-1.75028 -0.38346,-0.36576 -0.33621,-0.52447 0.2341,-0.78755 0.20571,-0.0949 0.74094,-0.5989 1.18959,-1.12035 0.44863,-0.52146 0.97084,-1.12792 1.16013,-1.34772 0.03,-0.0348 0.0537,-0.0641 0.078,-0.0935 v -0.46406 c -0.0763,-0.0598 -0.18352,-0.13011 -0.3266,-0.22169 -0.58375,-0.37364 -0.58832,-0.38478 0.3266,-1.43815 z" />
    <path
       style="display:inline;fill:#000000;fill-opacity:1;stroke:#a1ffff;stroke-width:0;stroke-dasharray:none;stroke-opacity:1"
       d="m 110.85799,125.64346 c 0.17493,-1.58922 -0.29093,-1.90665 -1.78093,-1.21353 -0.3236,0.15053 -0.33973,0.11216 -0.20339,-0.4836 0.34499,-1.50749 0.10907,-2.26411 -0.67724,-2.17187 -0.70517,0.0827 -0.70517,0.0827 -0.6264,-0.37486 0.12532,-0.728 0.005,-1.48061 -0.24818,-1.55365 -0.21974,-0.0634 -0.45626,-1.28667 -0.29105,-1.50526 0.0422,-0.0558 0.003,-0.26169 -0.0875,-0.4575 -0.14865,-0.32224 -0.19568,-0.31098 -0.49574,0.11868 -0.47177,0.67552 -1.10337,0.93932 -1.27934,0.53432 -0.10542,-0.24264 -0.27356,-0.28288 -0.73537,-0.17601 -0.64952,0.1503 -0.6901,0.0606 -0.65219,-1.44134 0.0113,-0.44689 -0.28278,-0.47678 -0.97221,-0.0988 -0.10704,0.0587 -0.18025,-0.12741 -0.17131,-0.43557 0.0413,-1.42611 -0.13685,-2.00831 -0.54539,-1.78303 -0.50059,0.27601 -0.49249,0.29042 -0.81574,-1.44954 -0.27945,-1.50422 -0.28567,-1.5161 -0.67635,-1.29126 -1.157721,0.66628 -1.574671,0.50395 -1.529361,-0.59544 0.0322,-0.78061 -7e-5,-0.85416 -0.36045,-0.82223 -0.54137,0.0479 -0.61192,-0.0392 -0.45824,-0.56589 0.0728,-0.24954 0.0218,-0.62989 -0.11325,-0.84524 -0.13509,-0.21535 -0.28716,-0.79859 -0.33792,-1.29609 -0.0628,-0.61559 -0.14852,-0.83269 -0.26827,-0.67961 -0.16604,0.21226 -0.75602,0.318 -0.74933,0.13746 0.0338,-0.91204 1.09934,-0.46985 1.21955,0.49516 0.0768,0.61582 0.23813,1.19423 0.3587,1.28535 0.12056,0.0911 0.20317,0.40413 0.18357,0.69557 -0.0324,0.48136 8.8e-4,0.52666 0.36334,0.49455 0.55833,-0.0495 0.58223,-0.004 0.46245,0.8766 -0.1207,0.88749 0.59806,1.22224 1.125621,0.52423 0.13533,-0.17905 0.34094,-0.31664 0.45692,-0.30575 0.1863,0.0175 0.8779,2.60594 0.79314,2.96849 -0.0181,0.0777 0.19541,0.0906 0.4746,0.0288 0.50761,-0.11239 0.50761,-0.11239 0.62248,1.02705 0.10865,1.07812 0.13466,1.13031 0.48284,0.96971 0.58197,-0.26845 1.16191,1.08714 0.71694,1.67587 -0.17806,0.23559 0.18928,0.30067 0.49097,0.087 0.24718,-0.17507 0.39296,-0.14446 0.67484,0.14169 0.40142,0.40752 0.61461,0.32546 1.15485,-0.44452 0.58103,-0.82814 0.93969,-0.35292 0.86418,1.14505 -0.0289,0.57356 0.0344,0.76901 0.24674,0.75934 0.29432,-0.0134 0.48592,0.86544 0.35929,1.64808 -0.0533,0.32946 0.004,0.34574 0.67567,0.19263 0.64408,-0.1468 0.72822,-0.12616 0.68758,0.16863 -0.23273,1.68813 0.0802,2.40949 0.9713,2.23914 0.97765,-0.18688 1.07669,-0.01 1.00023,1.78624 -0.0301,0.7079 -0.0301,0.7079 0.61782,0.63189 0.85554,-0.10037 1.25139,0.40311 0.79339,1.0091 -0.15836,0.20952 -0.30557,-0.16155 -0.19177,-0.48338 0.12287,-0.34749 0.0861,-0.3599 -0.75669,-0.25509 -0.88585,0.11018 -0.88585,0.11018 -0.77338,-0.91156 z"
       id="path5113-1"
       sodipodi:nodetypes="ssssssscsssssssssssssssscsssssssssssssssssssssssssss" />
    <path
       id="path1379"
       style="display:inline;fill:#000000;fill-opacity:1;stroke:#a1ffff;stroke-width:0;stroke-dasharray:none;stroke-opacity:1"
       d="m 91.859499,92.56305 c -0.29591,0.006 -0.6348,0.31395 -0.93431,0.93431 -0.1396,0.28914 -0.37144,0.53087 -0.54881,0.57257 -0.2376,0.0559 -0.33967,0.28216 -0.45217,1.00097 -0.22515,1.43865 -0.35243,1.67482 -0.94671,1.75752 -0.48688,0.0677 -0.52213,0.10455 -0.52813,0.54674 -0.0277,2.15565 -0.0875,2.38458 -0.56431,2.15387 -0.52846,-0.25573 -0.63051,-0.097 -0.69711,1.08521 -0.0738,1.31013 -0.40111,2.29112 -0.82166,2.46444 -0.26734,0.11018 -0.31285,0.19477 -0.19947,0.36846 0.23277,0.35664 0.32058,1.33761 0.14108,1.5751 -0.22135,0.29284 -0.6235,-0.0406 -0.6165,-0.51057 0.003,-0.209 -0.08,-0.36765 -0.18552,-0.35295 -0.26708,0.0371 -0.84257,1.5147 -0.80047,2.05569 0.0256,0.32959 -0.0231,0.42767 -0.18655,0.37517 -0.33881,-0.10879 -0.45871,0.17269 -0.51211,1.20406 -0.0489,0.9447 -0.0487,0.94458 -0.52349,0.94413 -0.47474,-4.6e-4 -0.47476,-4.8e-4 -0.52916,0.86713 -0.0613,0.97837 -0.56777,1.39318 -0.82683,0.94775 l 0.003,0.53071 c 0.42274,0.0609 1.01785,-0.44046 1.08675,-1.25728 0.0652,-0.77266 0.11056,-0.86841 0.39378,-0.82941 0.45211,0.0623 0.62339,-0.24133 0.68419,-1.21181 0.0394,-0.62889 0.12415,-0.85374 0.33177,-0.88264 0.20763,-0.0289 0.29515,-0.1981 0.34365,-0.66559 0.11778,-1.13542 0.31209,-1.46875 0.62786,-1.07642 0.66297,0.82373 1.42803,-0.38957 0.92191,-1.46192 -0.19331,-0.40959 -0.17781,-0.46021 0.1447,-0.47491 0.224,-0.0102 0.36005,-0.11132 0.35605,-0.26614 -0.003,-0.13731 0.093,-0.53092 0.2129,-0.87436 0.11991,-0.34344 0.22135,-0.95363 0.22635,-1.35599 0.0102,-0.88598 0.0937,-1.02169 0.45888,-0.74569 0.43482,0.32865 0.67036,-0.17118 0.75396,-1.5999 0.073,-1.24805 0.2546,-1.59611 0.66869,-1.28313 0.29443,0.22253 0.43604,-0.055 0.71676,-1.40301 0.13806,-0.66289 0.35191,-1.24325 0.47542,-1.28985 0.12351,-0.0466 0.47819,-0.46217 0.78807,-0.92346 0.30989,-0.46128 0.59775,-0.81304 0.63975,-0.78134 0.29997,0.2267 0.50995,0.99774 0.42375,1.55597 -0.0999,0.64691 0.004,0.97393 0.2191,0.68937 0.21586,-0.28555 0.31843,0.0427 0.20258,0.64802 -0.14435,0.75419 -0.24843,1.27319 -0.308,1.63556 a 1.5261539,1.5261538 0 0 1 0.25632,0.0822 c 0.038,-0.21144 0.0949,-0.52506 0.20257,-1.10845 0.17182,-0.93151 0.16979,-1.40138 -0.006,-1.51309 -0.14038,-0.0891 -0.30734,-0.53702 -0.37104,-0.99529 -0.10516,-0.75614 -0.38552,-1.13815 -0.72088,-1.13171 z m 1.77353,5.02553 c -0.0827,0.002 -0.17892,0.01 -0.2899,0.0212 -0.0432,0.004 -0.0811,0.006 -0.12196,0.01 a 1.5261539,1.5261538 0 0 1 0.20981,0.25166 c 0.48188,-0.0437 0.46379,0.15751 0.2527,1.15187 -0.15863,0.74729 -0.12139,1.06828 0.1819,1.56373 0.22783,0.37212 0.34927,0.87194 0.30127,1.2392 -0.10006,0.76673 -0.0913,0.77215 0.75964,0.48472 0.77378,-0.26136 0.90568,-0.15618 0.62736,0.49971 -0.002,0.005 -0.004,0.01 -0.006,0.015 h 0.23668 c 0.023,-0.0944 0.0494,-0.18582 0.0791,-0.27285 0.24829,-0.72861 0.12891,-0.83327 -0.67748,-0.59531 -0.62949,0.18577 -0.62915,0.18576 -0.75034,-0.54312 -0.0667,-0.40088 -0.22741,-0.8738 -0.35709,-1.0511 -0.1327,-0.18142 -0.17298,-0.79159 -0.092,-1.39527 0.14825,-1.10499 0.15179,-1.36327 -0.27544,-1.37872 -0.0246,-9e-4 -0.0505,-10e-4 -0.078,-5.2e-4 z" />
    <path
       style="display:inline;fill:#000000;fill-opacity:1;stroke:#a1ffff;stroke-width:0;stroke-dasharray:none;stroke-opacity:1"
       d="m 89.049529,79.52032 c -0.0309,0.15193 -0.11352,0.23971 -0.18365,0.19506 -0.0701,-0.0446 -0.10224,-0.20549 -0.0714,-0.35741 0.0309,-0.15193 0.11351,-0.2397 0.18366,-0.19505 0.07,0.0446 0.10223,0.20548 0.0714,0.3574 z"
       id="path2998" />
    <path
       id="path2996"
       style="display:inline;fill:#000000;fill-opacity:1;stroke:#a1ffff;stroke-width:0;stroke-dasharray:none;stroke-opacity:1"
       d="m 90.066329,79.84444 c -0.0311,-6.4e-4 -0.0632,0.0203 -0.0941,0.0687 -0.4079,0.64079 0.0271,1.11075 0.87179,0.94206 0.63972,-0.12774 0.6393,-0.1277 0.6661,0.58033 0.0679,1.79663 0.18099,1.96488 1.1405,1.70016 0.8746,-0.2413 1.24424,0.45251 1.14774,2.15387 -0.0151,0.2665 0.0535,0.30471 0.52245,0.16691 a 3,3 0 0 1 -0.0455,-0.45268 c -0.3867,-0.22388 -0.50533,-0.92036 -0.34055,-2.05156 0.0881,-0.60477 0.0692,-0.64161 -0.24133,-0.4656 -1.42957,0.81044 -1.91965,0.53153 -1.87275,-1.0666 v -5.2e-4 c 0.0301,-1.02747 0.0303,-1.02736 -0.84388,-0.84646 -0.83161,0.17209 -0.86974,0.16243 -0.77514,-0.19379 0.0684,-0.25774 -0.0243,-0.53254 -0.13539,-0.53485 z m 5.90299,7.79436 c 0.007,0.0745 0.0116,0.15803 0.0145,0.2527 0.0449,1.4992 0.44021,1.94385 0.95292,1.07177 0.47672,-0.81085 0.68286,-0.90988 1.11569,-0.53589 0.30392,0.26263 0.45187,0.28168 0.6842,0.0873 0.28357,-0.23721 0.65468,-0.20158 0.49609,0.0475 -0.39629,0.62253 0.29049,1.9271 0.849041,1.61282 0.33416,-0.18802 0.36433,-0.13833 0.55914,0.92759 0.20591,1.12656 0.20583,1.12687 0.7028,0.9741 0.27332,-0.0837 0.48723,-0.0882 0.47543,-0.009 -0.0554,0.36818 0.84177,2.89343 1.02887,2.89543 0.11649,0.002 0.31046,-0.15224 0.43099,-0.34158 0.46984,-0.73808 1.21285,-0.46178 1.16375,0.43253 -0.0487,0.88757 -0.0208,0.93074 0.53175,0.83664 0.35875,-0.0611 0.39553,-0.0189 0.40153,0.46354 0.004,0.29208 0.11126,0.59731 0.23874,0.67851 0.12749,0.0812 0.33503,0.64496 0.46095,1.25264 0.19725,0.95226 1.40945,1.26321 1.36995,0.3514 -0.008,-0.18049 -0.70212,0.0164 -0.8506,0.24133 -0.10707,0.1622 -0.20994,-0.0472 -0.32194,-0.65578 -0.0905,-0.49183 -0.28886,-1.06122 -0.4408,-1.26504 -0.1519,-0.20381 -0.23347,-0.57845 -0.18087,-0.83302 0.11092,-0.53741 0.0335,-0.61882 -0.50229,-0.52762 -0.35666,0.0607 -0.39418,-0.01 -0.42478,-0.79065 -0.043,-1.09947 -0.47199,-1.2278 -1.57252,-0.47077 -0.37138,0.25546 -0.37849,0.24447 -0.77773,-1.23248 -0.46182,-1.70841 -0.45283,-1.69504 -0.92966,-1.37976 -0.38915,0.25734 -0.61296,-0.30841 -0.68626,-1.73323 -0.0158,-0.30789 -0.10369,-0.48775 -0.20567,-0.42065 -0.656881,0.43206 -0.952601,0.42569 -0.977201,-0.0207 -0.0827,-1.50014 -0.13049,-1.58634 -0.76585,-1.38441 -0.45175,0.14358 -0.62269,0.11713 -0.74724,-0.11627 -0.0524,-0.0981 -0.13008,-0.15105 -0.22376,-0.16485 a 3,3 0 0 1 -0.24701,0.0393 c -0.24637,0.10006 -0.53263,0.36997 -0.7612,0.76067 -0.26461,0.45235 -0.3107,0.4674 -0.48472,0.15813 -0.10574,-0.18793 -0.16162,-0.39006 -0.12402,-0.44906 0.0623,-0.0978 0.0384,-0.36913 -0.0269,-0.65319 a 3,3 0 0 1 -0.22531,-0.0997 z" />
    <path
       style="display:inline;fill:#000000;fill-opacity:1;stroke:#a1ffff;stroke-width:0;stroke-dasharray:none;stroke-opacity:1"
       d="m 108.91441,102.92851 c 0.25116,-0.80938 -0.10177,-2.65276 -0.54157,-2.79898 -0.25551,-0.0849 -0.39098,-0.2583 -0.40618,-0.51935 -0.0361,-0.62051 -0.26276,-0.98265 -0.30076,-0.48059 -0.055,0.72702 0.12166,1.1642 0.52452,1.29811 0.40724,0.13535 0.64721,1.47108 0.48984,2.50062 z"
       id="path5256" />
    <path
       style="display:inline;fill:#000000;fill-opacity:1;stroke:#a1ffff;stroke-width:0;stroke-dasharray:none;stroke-opacity:1"
       d="m 117.07258,105.68157 c 0.3185,0.0422 0.37339,-0.24612 0.35021,-1.21223 -0.0315,-1.31185 0.21587,-2.31582 0.62116,-2.52233 0.25765,-0.13127 0.29644,-0.2194 0.16949,-0.38344 -0.26022,-0.33681 -0.42703,-1.30796 -0.26716,-1.55908 0.19714,-0.30968 0.62505,-0.01 0.65525,0.45941 0.0135,0.20858 0.10995,0.36054 0.21394,0.33744 0.26324,-0.0585 0.71782,-1.57768 0.63252,-2.11356 -0.052,-0.32644 -0.0111,-0.42781 0.15607,-0.38861 0.34639,0.0813 0.44291,-0.20893 0.41341,-1.24127 -0.027,-0.94561 -0.0268,-0.9458 0.44648,-0.9834 0.47327,-0.0376 0.47326,-0.0377 0.45786,-0.90692 -0.0219,-1.23746 0.73546,-1.63617 0.93069,-0.48989 0.0205,0.12035 0.0528,0.20726 0.0935,0.26406 v -1.13843 c -0.38216,-0.49546 -1.29971,0.10799 -1.30379,1.16479 -0.003,0.77537 -0.0401,0.87403 -0.32556,0.85783 -0.45565,-0.0258 -0.60218,0.29074 -0.58498,1.26297 0.0112,0.63003 -0.0553,0.8609 -0.25993,0.9064 -0.2046,0.0454 -0.27798,0.22156 -0.28888,0.69143 -0.0263,1.14123 -0.19327,1.48865 -0.5395,1.12293 -0.72693,-0.76789 -1.39255,0.50287 -0.80202,1.53118 0.22555,0.39277 0.21435,0.44474 -0.10593,0.48524 -0.22246,0.0281 -0.34962,0.14003 -0.33332,0.29404 0.0139,0.13665 -0.0501,0.53637 -0.14211,0.88831 -0.0919,0.35196 -0.14438,0.96851 -0.11678,1.36995 0.0363,0.52757 0.0251,0.79073 -0.072,0.86491 z"
       id="path5193" />
    <path
       id="path20116-7-6"
       style="display:inline;fill:#000000;fill-opacity:1;stroke:#a1ffff;stroke-width:0;stroke-dasharray:none;stroke-opacity:1"
       d="m 82.245609,68.89834 v 0.19534 c 0.27737,-0.0252 0.4414,0.048 0.32195,0.23564 -0.29481,0.46311 0.0473,0.86608 0.49092,0.57775 0.48101,-0.31268 0.76991,0.66536 0.65268,2.21123 -0.0622,0.82041 0.031,0.95856 0.53692,0.79582 0.4776,-0.15361 1.54013,-0.036 1.48983,0.16485 -0.023,0.0918 -0.008,0.66312 0.0336,1.26917 0.0413,0.60604 0.0685,1.27261 0.0615,1.48156 -0.0105,0.3007 0.0161,0.3613 0.46509,0.3359 a 1.5261539,1.5261538 0 0 1 0.20464,-0.28526 c -0.33847,0.0191 -0.34668,-0.0685 -0.3669,-0.39532 -0.0152,-0.24568 -0.0577,-0.8067 -0.0946,-1.24695 -0.0369,-0.44024 -0.007,-0.98061 0.0661,-1.20096 0.18008,-0.54167 -0.004,-0.61669 -1.16685,-0.47698 -0.54596,0.0657 -0.99862,0.0816 -1.00562,0.0357 -0.007,-0.0459 0.014,-0.36634 0.0475,-0.7121 0.0334,-0.34578 5.2e-4,-0.90107 -0.0734,-1.23352 -0.0738,-0.33245 -0.0476,-0.74042 0.0584,-0.90692 0.31668,-0.49743 -0.67437,-0.54975 -1.01854,-0.0537 -0.1038,0.14974 -0.13255,0.0841 -0.0817,-0.1881 0.0582,-0.31163 -0.2489,-0.52832 -0.62167,-0.60307 z m 5.88078,9.44232 a 1.5261539,1.5261538 0 0 1 -0.2868,0.0703 c -0.0333,0.15389 -0.0224,0.3865 0.0331,0.58808 0.0728,0.26423 0.10091,0.81442 0.062,1.22266 -0.0389,0.40824 0.0199,0.74366 0.13074,0.74466 0.3809,0.005 1.90995,-1.16894 1.69809,-1.3038 -0.0739,-0.047 -0.40345,0.14124 -0.73225,0.41807 -0.82136,0.69154 -0.96711,0.70149 -0.85422,0.0599 0.0541,-0.30422 0.0326,-0.80682 -0.0465,-1.11724 -0.0537,-0.21063 -0.0517,-0.47224 -0.004,-0.68265 z" />
    <path
       style="display:inline;fill:#000000;fill-opacity:1;stroke:#ffffff;stroke-width:0.366001;stroke-linecap:round;stroke-linejoin:bevel;stroke-dasharray:none;stroke-opacity:1"
       d="M 113.38075,169.69952 Z"
       id="path5056-6" />
    <path
       style="display:inline;fill:#000000;fill-opacity:1;stroke:#a1ffff;stroke-width:0;stroke-dasharray:none;stroke-opacity:1"
       d="m 113.81013,170.5426 c -0.17282,0.1998 -0.32987,0.37678 -0.38657,0.43478 -0.0747,0.0764 -0.47125,0.0626 -0.88131,-0.0306 -0.41006,-0.0932 -0.7524,-0.1142 -0.7604,-0.0465 -0.0468,0.38851 -0.84555,0.54201 -1.86102,0.35751 -0.62918,-0.11431 -1.59598,-0.11786 -2.14843,-0.008 -0.55246,0.10999 -1.43535,0.18089 -1.96202,0.15749 -1.35016,-0.0599 -2.48686,0.16314 -4.80094,0.94188 -0.0416,0.014 -0.0839,0.0281 -0.12678,0.0423 l -0.80203,-0.0334 c 0.0601,-0.0201 0.11886,-0.04 0.17576,-0.0598 0.83795,-0.29096 1.87725,-0.59407 2.30956,-0.67357 0.4323,-0.0795 1.06791,-0.23831 1.41246,-0.35294 0.34455,-0.11459 1.05028,-0.17309 1.56829,-0.12989 0.51801,0.0432 1.50833,-0.0123 2.20072,-0.1233 0.69239,-0.111 1.73961,-0.11769 2.32715,-0.0148 0.83039,0.14534 1.13922,0.11296 1.38698,-0.14546 0.22802,-0.23775 0.48362,-0.28613 0.8981,-0.16985 0.68323,0.19167 1.07785,0.11969 1.34011,-0.264 z"
       id="path2469" />
    <path
       id="rect815-7-9-0-9"
       style="display:inline;fill:none;fill-opacity:1;stroke:#000000;stroke-width:0.101;stroke-linecap:square;stroke-linejoin:round;stroke-dasharray:none;stroke-opacity:1"
       d="M 82.126819,43.992858 H 122.02683 V 172.39286 H 82.126819 Z"
       sodipodi:nodetypes="ccccc" />
  </g>
</svg>
