<?xml version="1.0" encoding="UTF-8" standalone="no"?>
<!-- Created with Inkscape (http://www.inkscape.org/) -->

<svg
   width="40.255569mm"
   height="128.50101mm"
   viewBox="0 0 40.255569 128.50101"
   version="1.1"
   id="svg2828"
   xmlns="http://www.w3.org/2000/svg"
   xmlns:svg="http://www.w3.org/2000/svg">
  <defs
     id="defs2825" />
  <g
     aria-label="SYNC"
     id="text504"
     style="font-size:3.88056px;font-family:'Agency FB';-inkscape-font-specification:'Agency FB';display:inline;fill:#ffffff;stroke:#000000;stroke-width:0;stroke-linecap:square"
     transform="translate(-82.054361,-43.942355)">
    <path
       d="m 100.68999,105.77541 q 0,0.0929 -0.0587,0.15158 -0.0568,0.0587 -0.14969,0.0587 h -0.74655 q -0.09285,0 -0.153479,-0.0587 -0.05874,-0.0587 -0.05874,-0.15158 v -0.75224 h 0.263377 v 0.7295 h 0.640442 v -0.70676 l -0.818553,-0.98909 q -0.08527,-0.10232 -0.08527,-0.22548 v -0.60065 q 0,-0.0928 0.05874,-0.15159 0.06063,-0.0587 0.153479,-0.0587 h 0.746554 q 0.0928,0 0.14969,0.0587 0.0587,0.0587 0.0587,0.15159 v 0.68971 h -0.26338 v -0.66698 h -0.640445 v 0.62529 l 0.822345,0.98909 q 0.0815,0.0985 0.0815,0.22169 z"
       id="path2302" />
    <path
       d="m 102.34795,103.03742 -0.36002,1.19941 q -0.0682,0.18 -0.18,0.60065 v 1.14825 h -0.26338 v -1.14825 q -0.0265,-0.144 -0.0815,-0.30317 -0.091,-0.27285 -0.0985,-0.29748 l -0.36001,-1.19941 q 0,-0.002 0,-0.0171 h 0.26717 l 0.40738,1.48364 0.40359,-1.48364 h 0.26528 q 0,0.0133 0,0.0171 z"
       id="path2304" />
    <path
       d="m 103.89221,105.98573 h -0.1819 l -0.79203,-2.18092 v 2.18092 h -0.24822 v -2.96537 h 0.19706 l 0.77687,2.14303 v -2.14303 h 0.24822 z"
       id="path2306" />
    <path
       d="m 105.55395,105.77541 q 0,0.0929 -0.0606,0.15158 -0.0606,0.0587 -0.15348,0.0587 h -0.7636 q -0.0928,0 -0.15159,-0.0587 -0.0587,-0.0587 -0.0587,-0.15158 v -2.54472 q 0,-0.0928 0.0587,-0.15159 0.0587,-0.0587 0.15159,-0.0587 h 0.7636 q 0.0928,0 0.15348,0.0587 0.0606,0.0587 0.0606,0.15159 v 0.68971 h -0.26527 v -0.66698 h -0.65939 v 2.49925 h 0.65939 v -0.7295 h 0.26527 z"
       id="path2308" />
  </g>
</svg>
