<?xml version="1.0" encoding="UTF-8" standalone="no"?>
<!-- Created with Inkscape (http://www.inkscape.org/) -->

<svg
   width="40.255569mm"
   height="128.50099mm"
   viewBox="0 0 40.255569 128.50099"
   version="1.1"
   id="svg2828"
   inkscape:version="1.2.1 (9c6d41e410, 2022-07-14)"
   sodipodi:docname="Blattwerk_Betula_contur.svg"
   inkscape:export-filename="Blattwerk_Betula_Cu_Silver.svg"
   inkscape:export-xdpi="96"
   inkscape:export-ydpi="96"
   xmlns:inkscape="http://www.inkscape.org/namespaces/inkscape"
   xmlns:sodipodi="http://sodipodi.sourceforge.net/DTD/sodipodi-0.dtd"
   xmlns="http://www.w3.org/2000/svg"
   xmlns:svg="http://www.w3.org/2000/svg">
  <sodipodi:namedview
     id="namedview2830"
     pagecolor="#ffffff"
     bordercolor="#000000"
     borderopacity="0.25"
     inkscape:showpageshadow="2"
     inkscape:pageopacity="0.0"
     inkscape:pagecheckerboard="0"
     inkscape:deskcolor="#d1d1d1"
     inkscape:document-units="mm"
     showgrid="false"
     inkscape:zoom="1.496633"
     inkscape:cx="111.24972"
     inkscape:cy="252.23285"
     inkscape:window-width="1920"
     inkscape:window-height="1001"
     inkscape:window-x="-9"
     inkscape:window-y="-9"
     inkscape:window-maximized="1"
     inkscape:current-layer="layer1" />
  <defs
     id="defs2825" />
  <g
     inkscape:label="Ebene 1"
     inkscape:groupmode="layer"
     id="layer1"
     style="display:inline"
     transform="translate(-82.054361,-43.942359)">
    <path
       id="rect815-7-9-0"
       style="display:inline;fill:none;fill-opacity:1;stroke:#000000;stroke-width:0.1;stroke-linecap:square;stroke-linejoin:round;stroke-dasharray:none;stroke-opacity:1"
       d="m 82.126819,43.99286 h 39.900011 v 128.4 H 82.126819 Z"
       sodipodi:nodetypes="ccccc" />
    <path
       id="path832-39-0-6-8-7-3"
       style="display:inline;fill:#ffffff;fill-opacity:1;stroke:#000000;stroke-width:0.1;stroke-linecap:square;stroke-linejoin:round;stroke-dasharray:none"
       d="m 91.126819,46.94285 a 1.5500001,1.5500001 0 0 1 -1.55,1.55 1.5500001,1.5500001 0 0 1 -1.55,-1.55 1.5500001,1.5500001 0 0 1 1.55,-1.55 1.5500001,1.5500001 0 0 1 1.55,1.55 z" />
    <path
       id="path832-39-0-6-9-7-3-3"
       style="display:inline;fill:#ffffff;fill-opacity:1;stroke:#000000;stroke-width:0.1;stroke-linecap:square;stroke-linejoin:round;stroke-dasharray:none"
       d="m 116.40682,169.44288 a 1.5500002,1.5500002 0 0 1 -1.55,1.55 1.5500002,1.5500002 0 0 1 -1.55,-1.55 1.5500002,1.5500002 0 0 1 1.55,-1.55 1.5500002,1.5500002 0 0 1 1.55,1.55 z" />
    <path
       id="path832-39-0-6-6-2-4-2"
       style="display:inline;fill:#ffffff;fill-opacity:1;stroke:#000000;stroke-width:0.1;stroke-linecap:square;stroke-linejoin:round;stroke-dasharray:none"
       d="m 91.126819,169.44288 a 1.5500002,1.5500002 0 0 1 -1.55,1.55 1.5500002,1.5500002 0 0 1 -1.55,-1.55 1.5500002,1.5500002 0 0 1 1.55,-1.55 1.5500002,1.5500002 0 0 1 1.55,1.55 z" />
    <path
       id="path832-39-0-6-5-2-7-6"
       style="display:inline;fill:#ffffff;fill-opacity:1;stroke:#000000;stroke-width:0.1;stroke-linecap:square;stroke-linejoin:round;stroke-dasharray:none"
       d="m 116.40682,46.94285 a 1.5500002,1.5500002 0 0 1 -1.55,1.55 1.5500002,1.5500002 0 0 1 -1.55,-1.55 1.5500002,1.5500002 0 0 1 1.55,-1.55 1.5500002,1.5500002 0 0 1 1.55,1.55 z" />
    <path
       id="rect815-3-9-5-79-3-8"
       style="display:inline;fill:#ffffff;fill-opacity:1;stroke:#000000;stroke-width:0.1;stroke-linecap:square;stroke-linejoin:round;stroke-dasharray:none"
       d="m 87.385949,102.82419 h 9.40088 v 9.90088 h -9.40088 z" />
    <path
       id="path3982-34-8-7-5-7"
       style="display:inline;fill:#ffffff;fill-opacity:1;stroke:#000000;stroke-width:0.1;stroke-dasharray:none"
       d="m 93.556979,98.7086 a 1.4705882,1.4705882 0 0 1 -1.47059,1.47058 1.4705882,1.4705882 0 0 1 -1.47058,-1.47058 1.4705882,1.4705882 0 0 1 1.47058,-1.47059 1.4705882,1.4705882 0 0 1 1.47059,1.47059 z" />
    <path
       id="path3982-34-81-2-1-4"
       style="display:inline;fill:#ffffff;fill-opacity:1;stroke:#000000;stroke-width:0.1;stroke-dasharray:none"
       d="m 113.889,98.7086 a 1.4705882,1.4705882 0 0 1 -1.47059,1.47058 1.4705882,1.4705882 0 0 1 -1.47059,-1.47058 1.4705882,1.4705882 0 0 1 1.47059,-1.47059 1.4705882,1.4705882 0 0 1 1.47059,1.47059 z" />
    <path
       id="rect815-3-9-5-7-3-6-2"
       style="display:inline;fill:#ffffff;fill-opacity:1;stroke:#000000;stroke-width:0.1;stroke-linecap:square;stroke-linejoin:round;stroke-dasharray:none"
       d="m 107.71796,102.88034 h 9.40088 v 9.90088 h -9.40088 z" />
    <g
       id="g533-5-5-0"
       style="display:inline;fill:#ffffff;fill-opacity:1;stroke-width:0.1;stroke-dasharray:none"
       transform="translate(82.076819,42.29284)">
      <path
         id="path832-39-0-6-6-2-1-0-6-6-2-0-3-1-4-2-7-4"
         style="display:inline;opacity:1;fill:#ffffff;fill-opacity:1;stroke:#000000;stroke-width:0.1;stroke-linecap:square;stroke-linejoin:round;stroke-dasharray:none"
         d="m 7.0761541,105.17257 a 1.5261539,1.5261538 0 0 1 -1.5261539,1.52615 1.5261539,1.5261538 0 0 1 -1.5261539,-1.52615 1.5261539,1.5261538 0 0 1 1.5261539,-1.52615 1.5261539,1.5261538 0 0 1 1.5261539,1.52615 z" />
      <path
         id="path832-39-0-6-6-2-1-0-6-6-2-0-3-1-4-1-1-5-7"
         style="display:inline;fill:#ffffff;fill-opacity:1;stroke:#000000;stroke-width:0.1;stroke-linecap:square;stroke-linejoin:round;stroke-dasharray:none"
         d="m 16.742821,105.17257 a 1.5261539,1.5261538 0 0 1 -1.526154,1.52615 1.5261539,1.5261538 0 0 1 -1.526154,-1.52615 1.5261539,1.5261538 0 0 1 1.526154,-1.52615 1.5261539,1.5261538 0 0 1 1.526154,1.52615 z" />
      <path
         id="path832-39-0-6-6-2-1-0-6-6-2-0-3-1-4-5-1-0-4"
         style="display:inline;fill:#ffffff;fill-opacity:1;stroke:#000000;stroke-width:0.1;stroke-linecap:square;stroke-linejoin:round;stroke-dasharray:none"
         d="m 26.409487,105.17258 a 1.5261539,1.5261538 0 0 1 -1.526154,1.52615 1.5261539,1.5261538 0 0 1 -1.526154,-1.52615 1.5261539,1.5261538 0 0 1 1.526154,-1.52616 1.5261539,1.5261538 0 0 1 1.526154,1.52616 z" />
      <path
         id="path832-39-0-6-6-2-1-0-6-6-2-0-3-1-4-3-8-1-9"
         style="display:inline;fill:#ffffff;fill-opacity:1;stroke:#000000;stroke-width:0.1;stroke-linecap:square;stroke-linejoin:round;stroke-dasharray:none"
         d="m 36.076153,105.17258 a 1.5261539,1.5261538 0 0 1 -1.526154,1.52615 1.5261539,1.5261538 0 0 1 -1.526154,-1.52615 1.5261539,1.5261538 0 0 1 1.526154,-1.52616 1.5261539,1.5261538 0 0 1 1.526154,1.52616 z" />
    </g>
    <path
       id="path832-39-0-6-6-2-0-41-2-2"
       style="display:inline;fill:#ffffff;fill-opacity:1;stroke:#000000;stroke-width:0.1;stroke-linecap:square;stroke-linejoin:round;stroke-dasharray:none"
       d="m 90.626809,155.49331 a 3,3 0 0 1 -3,3 3,3 0 0 1 -2.99999,-3 3,3 0 0 1 2.99999,-3 3,3 0 0 1 3,3 z" />
    <path
       id="path832-39-0-6-6-2-0-4-4-4-78"
       style="display:inline;fill:#ffffff;fill-opacity:1;stroke:#000000;stroke-width:0.1;stroke-linecap:square;stroke-linejoin:round;stroke-dasharray:none"
       d="m 100.29349,155.49331 a 3,3 0 0 1 -3.000011,3 3,3 0 0 1 -3,-3 3,3 0 0 1 3,-3 3,3 0 0 1 3.000011,3 z" />
    <path
       id="path832-39-0-6-6-2-5-8-6-3"
       style="display:inline;fill:#ffffff;fill-opacity:1;stroke:#000000;stroke-width:0.1;stroke-linecap:square;stroke-linejoin:round;stroke-dasharray:none"
       d="m 109.96016,155.49331 a 3,3 0 0 1 -3,3 3,3 0 0 1 -3,-3 3,3 0 0 1 3,-3 3,3 0 0 1 3,3 z" />
    <path
       id="path832-39-0-6-6-2-1-2-6-5"
       style="display:inline;fill:#ffffff;fill-opacity:1;stroke:#000000;stroke-width:0.1;stroke-linecap:square;stroke-linejoin:round;stroke-dasharray:none"
       d="m 119.62683,155.49331 a 3,3 0 0 1 -3,3 3,3 0 0 1 -3,-3 3,3 0 0 1 3,-3 3,3 0 0 1 3,3 z" />
    <g
       id="g533-7-9-0-0"
       style="display:inline;fill:#ffffff;fill-opacity:1;stroke-width:0.1;stroke-dasharray:none"
       transform="translate(82.076819,20.932831)">
      <path
         id="path832-39-0-6-6-2-1-0-6-6-2-0-3-1-4-8-1-7-53"
         style="display:inline;opacity:1;fill:#ffffff;fill-opacity:1;stroke:#000000;stroke-width:0.1;stroke-linecap:square;stroke-linejoin:round;stroke-dasharray:none"
         d="m 7.0761541,105.17257 a 1.5261539,1.5261538 0 0 1 -1.5261539,1.52615 1.5261539,1.5261538 0 0 1 -1.5261539,-1.52615 1.5261539,1.5261538 0 0 1 1.5261539,-1.52615 1.5261539,1.5261538 0 0 1 1.5261539,1.52615 z" />
      <path
         id="path832-39-0-6-6-2-1-0-6-6-2-0-3-1-4-1-5-8-4-5"
         style="display:inline;fill:#ffffff;fill-opacity:1;stroke:#000000;stroke-width:0.1;stroke-linecap:square;stroke-linejoin:round;stroke-dasharray:none"
         d="m 16.742821,105.17257 a 1.5261539,1.5261538 0 0 1 -1.526154,1.52615 1.5261539,1.5261538 0 0 1 -1.526154,-1.52615 1.5261539,1.5261538 0 0 1 1.526154,-1.52615 1.5261539,1.5261538 0 0 1 1.526154,1.52615 z" />
      <path
         id="path832-39-0-6-6-2-1-0-6-6-2-0-3-1-4-5-4-4-1-8"
         style="display:inline;fill:#ffffff;fill-opacity:1;stroke:#000000;stroke-width:0.1;stroke-linecap:square;stroke-linejoin:round;stroke-dasharray:none"
         d="m 26.409487,105.17258 a 1.5261539,1.5261538 0 0 1 -1.526154,1.52615 1.5261539,1.5261538 0 0 1 -1.526154,-1.52615 1.5261539,1.5261538 0 0 1 1.526154,-1.52616 1.5261539,1.5261538 0 0 1 1.526154,1.52616 z" />
      <path
         id="path832-39-0-6-6-2-1-0-6-6-2-0-3-1-4-3-9-8-9-0"
         style="display:inline;fill:#ffffff;fill-opacity:1;stroke:#000000;stroke-width:0.1;stroke-linecap:square;stroke-linejoin:round;stroke-dasharray:none"
         d="m 36.076153,105.17258 a 1.5261539,1.5261538 0 0 1 -1.526154,1.52615 1.5261539,1.5261538 0 0 1 -1.526154,-1.52615 1.5261539,1.5261538 0 0 1 1.526154,-1.52616 1.5261539,1.5261538 0 0 1 1.526154,1.52616 z" />
    </g>
    <path
       id="path832-39-0-6-6-2-0-5-3-9-34"
       style="display:inline;fill:#ffffff;fill-opacity:1;stroke:#000000;stroke-width:0.1;stroke-linecap:square;stroke-linejoin:round;stroke-dasharray:none"
       d="m 90.626809,134.13287 a 3,3 0 0 1 -3,3 3,3 0 0 1 -2.99999,-3 3,3 0 0 1 2.99999,-3 3,3 0 0 1 3,3 z" />
    <path
       id="path832-39-0-6-6-2-0-4-3-9-2-7"
       style="display:inline;fill:#ffffff;fill-opacity:1;stroke:#000000;stroke-width:0.1;stroke-linecap:square;stroke-linejoin:round;stroke-dasharray:none"
       d="m 100.29349,134.13287 a 3,3 0 0 1 -3.000011,3 3,3 0 0 1 -3,-3 3,3 0 0 1 3,-3 3,3 0 0 1 3.000011,3 z" />
    <path
       id="path832-39-0-6-6-2-5-2-2-6-4"
       style="display:inline;fill:#ffffff;fill-opacity:1;stroke:#000000;stroke-width:0.1;stroke-linecap:square;stroke-linejoin:round;stroke-dasharray:none"
       d="m 109.96016,134.13287 a 3,3 0 0 1 -3,3 3,3 0 0 1 -3,-3 3,3 0 0 1 3,-3 3,3 0 0 1 3,3 z" />
    <path
       id="path832-39-0-6-6-2-1-7-6-0-09"
       style="display:inline;fill:#ffffff;fill-opacity:1;stroke:#000000;stroke-width:0.1;stroke-linecap:square;stroke-linejoin:round;stroke-dasharray:none"
       d="m 119.62683,134.13287 a 3,3 0 0 1 -3,3 3,3 0 0 1 -3,-3 3,3 0 0 1 3,-3 3,3 0 0 1 3,3 z" />
    <g
       id="g533-0-3-3-7"
       style="display:inline;fill:#ffffff;fill-opacity:1;stroke-width:0.1;stroke-dasharray:none"
       transform="translate(82.076819,-28.258165)">
      <path
         id="path832-39-0-6-6-2-1-0-6-6-2-0-3-1-4-4-7-4-3"
         style="display:inline;opacity:1;fill:#ffffff;fill-opacity:1;stroke:#000000;stroke-width:0.1;stroke-linecap:square;stroke-linejoin:round;stroke-dasharray:none"
         d="m 7.0761541,105.17257 a 1.5261539,1.5261538 0 0 1 -1.5261539,1.52615 1.5261539,1.5261538 0 0 1 -1.5261539,-1.52615 1.5261539,1.5261538 0 0 1 1.5261539,-1.52615 1.5261539,1.5261538 0 0 1 1.5261539,1.52615 z" />
      <path
         id="path832-39-0-6-6-2-1-0-6-6-2-0-3-1-4-1-2-6-6-0"
         style="display:inline;fill:#ffffff;fill-opacity:1;stroke:#000000;stroke-width:0.1;stroke-linecap:square;stroke-linejoin:round;stroke-dasharray:none"
         d="m 16.742821,105.17257 a 1.5261539,1.5261538 0 0 1 -1.526154,1.52615 1.5261539,1.5261538 0 0 1 -1.526154,-1.52615 1.5261539,1.5261538 0 0 1 1.526154,-1.52615 1.5261539,1.5261538 0 0 1 1.526154,1.52615 z" />
      <path
         id="path832-39-0-6-6-2-1-0-6-6-2-0-3-1-4-5-3-5-4-2"
         style="display:inline;fill:#ffffff;fill-opacity:1;stroke:#000000;stroke-width:0.1;stroke-linecap:square;stroke-linejoin:round;stroke-dasharray:none"
         d="m 26.409487,105.17258 a 1.5261539,1.5261538 0 0 1 -1.526154,1.52615 1.5261539,1.5261538 0 0 1 -1.526154,-1.52615 1.5261539,1.5261538 0 0 1 1.526154,-1.52616 1.5261539,1.5261538 0 0 1 1.526154,1.52616 z" />
      <path
         id="path832-39-0-6-6-2-1-0-6-6-2-0-3-1-4-3-91-6-9-26"
         style="display:inline;fill:#ffffff;fill-opacity:1;stroke:#000000;stroke-width:0.1;stroke-linecap:square;stroke-linejoin:round;stroke-dasharray:none"
         d="m 36.076153,105.17258 a 1.5261539,1.5261538 0 0 1 -1.526154,1.52615 1.5261539,1.5261538 0 0 1 -1.526154,-1.52615 1.5261539,1.5261538 0 0 1 1.526154,-1.52616 1.5261539,1.5261538 0 0 1 1.526154,1.52616 z" />
    </g>
    <path
       id="path832-39-0-6-6-2-0-6-4-7-0"
       style="display:inline;fill:#ffffff;fill-opacity:1;stroke:#000000;stroke-width:0.1;stroke-linecap:square;stroke-linejoin:round;stroke-dasharray:none"
       d="m 90.626809,84.9423 a 3,3 0 0 1 -3,3 3,3 0 0 1 -2.99999,-3 3,3 0 0 1 2.99999,-3 3,3 0 0 1 3,3 z" />
    <path
       id="path832-39-0-6-6-2-0-4-7-5-3-6"
       style="display:inline;fill:#ffffff;fill-opacity:1;stroke:#000000;stroke-width:0.1;stroke-linecap:square;stroke-linejoin:round;stroke-dasharray:none"
       d="m 100.29349,84.9423 a 3,3 0 0 1 -3.000011,3 3,3 0 0 1 -3,-3 3,3 0 0 1 3,-3 3,3 0 0 1 3.000011,3 z" />
    <path
       id="path832-39-0-6-6-2-5-6-3-2-0"
       style="display:inline;fill:#ffffff;fill-opacity:1;stroke:#000000;stroke-width:0.1;stroke-linecap:square;stroke-linejoin:round;stroke-dasharray:none"
       d="m 109.96016,84.9423 a 3,3 0 0 1 -3,3 3,3 0 0 1 -3,-3 3,3 0 0 1 3,-3 3,3 0 0 1 3,3 z" />
    <path
       id="path832-39-0-6-6-2-1-0-8-3-9"
       style="display:inline;fill:#ffffff;fill-opacity:1;stroke:#000000;stroke-width:0.1;stroke-linecap:square;stroke-linejoin:round;stroke-dasharray:none"
       d="m 119.62683,84.9423 a 3,3 0 0 1 -3,3 3,3 0 0 1 -3,-3 3,3 0 0 1 3,-3 3,3 0 0 1 3,3 z" />
    <g
       id="g533-7-6-3-5-8"
       style="display:inline;fill:#ffffff;fill-opacity:1;stroke-width:0.1;stroke-dasharray:none"
       transform="translate(82.076819,-48.268165)">
      <path
         id="path832-39-0-6-6-2-1-0-6-6-2-0-3-1-4-8-0-0-1-56"
         style="display:inline;opacity:1;fill:#ffffff;fill-opacity:1;stroke:#000000;stroke-width:0.1;stroke-linecap:square;stroke-linejoin:round;stroke-dasharray:none"
         d="m 7.0761541,105.17257 a 1.5261539,1.5261538 0 0 1 -1.5261539,1.52615 1.5261539,1.5261538 0 0 1 -1.5261539,-1.52615 1.5261539,1.5261538 0 0 1 1.5261539,-1.52615 1.5261539,1.5261538 0 0 1 1.5261539,1.52615 z" />
      <path
         id="path832-39-0-6-6-2-1-0-6-6-2-0-3-1-4-1-5-1-6-9-1"
         style="display:inline;fill:#ffffff;fill-opacity:1;stroke:#000000;stroke-width:0.1;stroke-linecap:square;stroke-linejoin:round;stroke-dasharray:none"
         d="m 16.742821,105.17257 a 1.5261539,1.5261538 0 0 1 -1.526154,1.52615 1.5261539,1.5261538 0 0 1 -1.526154,-1.52615 1.5261539,1.5261538 0 0 1 1.526154,-1.52615 1.5261539,1.5261538 0 0 1 1.526154,1.52615 z" />
      <path
         id="path832-39-0-6-6-2-1-0-6-6-2-0-3-1-4-5-4-6-2-6-1"
         style="display:inline;fill:#ffffff;fill-opacity:1;stroke:#000000;stroke-width:0.1;stroke-linecap:square;stroke-linejoin:round;stroke-dasharray:none"
         d="m 26.409487,105.17258 a 1.5261539,1.5261538 0 0 1 -1.526154,1.52615 1.5261539,1.5261538 0 0 1 -1.526154,-1.52615 1.5261539,1.5261538 0 0 1 1.526154,-1.52616 1.5261539,1.5261538 0 0 1 1.526154,1.52616 z" />
      <path
         id="path832-39-0-6-6-2-1-0-6-6-2-0-3-1-4-3-9-2-8-0-2"
         style="display:inline;fill:#ffffff;fill-opacity:1;stroke:#000000;stroke-width:0.1;stroke-linecap:square;stroke-linejoin:round;stroke-dasharray:none"
         d="m 36.076153,105.17258 a 1.5261539,1.5261538 0 0 1 -1.526154,1.52615 1.5261539,1.5261538 0 0 1 -1.526154,-1.52615 1.5261539,1.5261538 0 0 1 1.526154,-1.52616 1.5261539,1.5261538 0 0 1 1.526154,1.52616 z" />
    </g>
    <path
       id="path832-39-0-6-6-2-0-5-0-0-6-0"
       style="display:inline;fill:#ffffff;fill-opacity:1;stroke:#000000;stroke-width:0.1;stroke-linecap:square;stroke-linejoin:round;stroke-dasharray:none"
       d="m 90.626809,64.93234 a 3,3 0 0 1 -3,3 3,3 0 0 1 -2.99999,-3 3,3 0 0 1 2.99999,-3.00001 3,3 0 0 1 3,3.00001 z" />
    <path
       id="path832-39-0-6-6-2-0-4-3-1-2-7-8"
       style="display:inline;fill:#ffffff;fill-opacity:1;stroke:#000000;stroke-width:0.1;stroke-linecap:square;stroke-linejoin:round;stroke-dasharray:none"
       d="m 100.29349,64.93234 a 3,3 0 0 1 -3.000011,3 3,3 0 0 1 -3,-3 3,3 0 0 1 3,-3.00001 3,3 0 0 1 3.000011,3.00001 z" />
    <path
       id="path832-39-0-6-6-2-5-2-0-4-5-6"
       style="display:inline;fill:#ffffff;fill-opacity:1;stroke:#000000;stroke-width:0.1;stroke-linecap:square;stroke-linejoin:round;stroke-dasharray:none"
       d="m 109.96016,64.93234 a 3,3 0 0 1 -3,3 3,3 0 0 1 -3,-3 3,3 0 0 1 3,-3.00001 3,3 0 0 1 3,3.00001 z" />
    <path
       id="path832-39-0-6-6-2-1-7-9-3-0-8"
       style="display:inline;fill:#ffffff;fill-opacity:1;stroke:#000000;stroke-width:0.1;stroke-linecap:square;stroke-linejoin:round;stroke-dasharray:none"
       d="m 119.62683,64.93234 a 3,3 0 0 1 -3,3 3,3 0 0 1 -3,-3 3,3 0 0 1 3,-3.00001 3,3 0 0 1 3,3.00001 z" />
    <path
       style="display:inline;fill:#000000;stroke-width:0.1;stroke-dasharray:none"
       d="m 118.74192,148.53817 c -47.192171,-100.71454 -23.596081,-50.35727 0,0 z"
       id="path817-4-0" />
    <g
       id="g533-0-3-3-7-5"
       style="display:inline;fill:#ffffff;fill-opacity:1;stroke-width:0.1;stroke-dasharray:none"
       transform="translate(82.070369,-28.24992)">
      <path
         id="path832-39-0-6-6-2-1-0-6-6-2-0-3-1-4-4-7-4-3-87"
         style="display:inline;opacity:1;fill:#ffffff;fill-opacity:1;stroke:#000000;stroke-width:0.1;stroke-linecap:square;stroke-linejoin:round;stroke-dasharray:none"
         d="m 7.0761541,105.17257 a 1.5261539,1.5261538 0 0 1 -1.5261539,1.52615 1.5261539,1.5261538 0 0 1 -1.5261539,-1.52615 1.5261539,1.5261538 0 0 1 1.5261539,-1.52615 1.5261539,1.5261538 0 0 1 1.5261539,1.52615 z" />
    </g>
  </g>
</svg>
